<svg width="24" height="24" viewBox="0 0 24 24" fill="none" xmlns="http://www.w3.org/2000/svg">
    <g clip-path="url(#clip0_2_166)">
        <rect x="3" y="8" width="1" height="2" fill="#EBDDD2"/>
        <rect x="9.20001" y="8" width="1" height="2" fill="#EBDDD2"/>
        <rect x="7" y="2" width="8" height="3" fill="#EBDDD2"/>
        <rect x="15.2" y="11" width="2" height="2" fill="#EBDDD2"/>
        <rect x="15.2" y="14" width="2" height="2" fill="#EBDDD2"/>
        <rect x="19" y="14" width="2" height="2" fill="#EBDDD2"/>
        <rect x="6" y="11" width="1" height="2" fill="#EBDDD2"/>
        <rect x="9.29999" y="14" width="1" height="2" fill="#EBDDD2"/>
        <rect x="3" y="14" width="1" height="2" fill="#EBDDD2"/>
        <rect x="9.29999" y="17.2" width="1" height="2" fill="#EBDDD2"/>
        <rect x="6.10001" y="20.3" width="1" height="2" fill="#EBDDD2"/>
        <rect x="3" y="20.3" width="1" height="2" fill="#EBDDD2"/>
        <rect x="16.2" y="17.4" width="4" height="6" fill="#EBDDD2"/>
        <path d="M23.2258 23.2258V9.29032H17.0323V0H5.41935V6.19355H0.774194V23.2258H0V24H24V23.2258H23.2258ZM11.6129 23.2258H1.54839V6.96774H11.6129V23.2258ZM13.1613 23.2258H12.3871V6.19355H6.19355V0.774194H16.2581V9.29032H13.1613V23.2258ZM20.129 23.2258H16.2581V17.8065H20.129V23.2258ZM22.4516 23.2258H20.9032V17.8065H21.6774V17.0323H14.7097V17.8065H15.4839V23.2258H13.9355V10.0645H22.4516V23.2258Z" fill="#CB5F10"/>
        <path d="M4.64515 7.74194H2.32257V10.0645H4.64515V7.74194ZM3.87096 9.29033H3.09676V8.51614H3.87096V9.29033Z" fill="#CB5F10"/>
        <path d="M17.8065 10.8387H14.7097V13.1613H17.8065V10.8387ZM17.0323 12.3871H15.4839V11.6129H17.0323V12.3871Z" fill="#CB5F10"/>
        <path d="M17.8065 13.9355H14.7097V16.2581H17.8065V13.9355ZM17.0323 15.4839H15.4839V14.7097H17.0323V15.4839Z" fill="#CB5F10"/>
        <path d="M21.6774 13.9355H18.5807V16.2581H21.6774V13.9355ZM20.9032 15.4839H19.3549V14.7097H20.9032V15.4839Z" fill="#CB5F10"/>
        <path d="M7.74192 10.8387H5.41934V13.1613H7.74192V10.8387ZM6.96773 12.3871H6.19354V11.6129H6.96773V12.3871Z" fill="#CB5F10"/>
        <path d="M4.64515 13.9355H2.32257V16.2581H4.64515V13.9355ZM3.87096 15.4839H3.09676V14.7097H3.87096V15.4839Z" fill="#CB5F10"/>
        <path d="M4.64515 20.129H2.32257V22.4516H4.64515V20.129ZM3.87096 21.6774H3.09676V20.9032H3.87096V21.6774Z" fill="#CB5F10"/>
        <path d="M7.74192 20.129H5.41934V22.4516H7.74192V20.129ZM6.96773 21.6774H6.19354V20.9032H6.96773V21.6774Z" fill="#CB5F10"/>
        <path d="M10.8387 7.74194H8.51614V10.0645H10.8387V7.74194ZM10.0645 9.29033H9.29034V8.51614H10.0645V9.29033Z" fill="#CB5F10"/>
        <path d="M10.8387 13.9355H8.51614V16.2581H10.8387V13.9355ZM10.0645 15.4839H9.29034V14.7097H10.0645V15.4839Z" fill="#CB5F10"/>
        <path d="M10.8387 17.0323H8.51614V19.3549H10.8387V17.0323ZM10.0645 18.5807H9.29034V17.8065H10.0645V18.5807Z" fill="#CB5F10"/>
        <path d="M6.96774 5.41937H15.4839V1.5484H6.96774V5.41937ZM7.74194 2.32259H14.7097V4.64517H7.74194V2.32259Z" fill="#CB5F10"/>
    </g>
    <defs>
        <clipPath id="clip0_2_166">
            <rect width="24" height="24" fill="white"/>
        </clipPath>
    </defs>
</svg>
