<svg width="24" height="24" viewBox="0 0 24 24" fill="none" xmlns="http://www.w3.org/2000/svg">
    <g clip-path="url(#clip0_2_165)">
        <path d="M3.5 17L1.5 17.5L1 18.5L0.5 22L1.5 23L2.5 22L3.5 20V17Z" fill="#EBDDD2"/>
        <path d="M20.5 17L22 17.5L22.5 18.5L23.5 22L22.5 23L21.5 21.5L20.5 20V17Z" fill="#EBDDD2"/>
        <path d="M5 14H7.5V17.5H5V14Z" fill="#EBDDD2"/>
        <path d="M16.5 14H19V17.5H16.5V14Z" fill="#EBDDD2"/>
        <path d="M9 7H15V10H9V7Z" fill="#EBDDD2"/>
        <path d="M4.64517 17.8065H8.12904V13.5484H4.64517V17.8065ZM5.41937 14.3226H7.35485V17.0323H5.41937V14.3226Z" fill="#CB5F10"/>
        <path d="M15.871 17.8065H19.3548V13.5484H15.871V17.8065ZM16.6452 14.3226H18.5806V17.0323H16.6452V14.3226Z" fill="#CB5F10"/>
        <path d="M15.871 9.6774H15.0968V6.58063H8.90322V9.6774H8.12903V10.4516H15.871V9.6774ZM11.6129 9.6774H9.67742V7.35482H11.6129V9.6774ZM14.3226 9.6774H12.3871V7.35482H14.3226V9.6774Z" fill="#CB5F10"/>
        <path d="M23.1879 19.3564C23.2138 19.2213 23.2258 19.0943 23.2258 18.9677C23.2258 17.6868 22.1841 16.6452 20.9032 16.6452V8.05819L22.4516 8.71316V5.9369L20.129 4.95445V2.32258H20.9032V0H15.4839V2.32258H16.2581V3.31664L12 1.5151L1.54839 5.9369V8.71316L3.09677 8.05819V16.6452C1.81587 16.6452 0.774194 17.6868 0.774194 18.9677C0.774194 19.0943 0.786194 19.2213 0.812129 19.3564C0.293419 19.865 0 20.5568 0 21.2903C0 22.3394 0.614323 23.2827 1.54839 23.7283V24H22.4516V23.7283C23.3857 23.2827 24 22.3394 24 21.2903C24 20.5568 23.7066 19.865 23.1879 19.3564ZM16.2581 0.774194H20.129V1.54839H16.2581V0.774194ZM19.3548 2.32258V4.62658L17.0323 3.64413V2.32258H19.3548ZM2.32258 7.5449V6.45019L12 2.35587L21.6774 6.45019V7.5449L12 3.45058L2.32258 7.5449ZM8.12903 12V12.7742H8.90323V20.129H3.87097V7.73032L12 4.29135L20.129 7.73032V20.129H15.0968V12.7742H15.871V12H8.12903ZM15.0968 20.9032V21.6774H8.90323V20.9032H15.0968ZM9.67742 20.129V12.7742H14.3226V20.129H9.67742ZM8.12903 20.9032V21.6774H3.09677V20.9032H8.12903ZM1.54839 22.8348C1.07071 22.4756 0.774194 21.9074 0.774194 21.2903C0.774194 20.7074 1.03394 20.1608 1.48684 19.7907L1.68348 19.6301L1.61458 19.3858C1.56929 19.2263 1.54839 19.0935 1.54839 18.9677C1.54839 18.1138 2.24284 17.4194 3.09677 17.4194V20.129H2.32258V21.6774H1.54839V22.8348ZM7.35484 23.2258H2.32258V22.4516H7.35484V23.2258ZM15.871 23.2258H8.12903V22.4516H15.871V23.2258ZM15.871 20.9032H20.9032V21.6774H15.871V20.9032ZM21.6774 23.2258H16.6452V22.4516H21.6774V23.2258ZM22.4516 22.8348V21.6774H21.6774V20.129H20.9032V17.4194C21.7572 17.4194 22.4516 18.1138 22.4516 18.9677C22.4516 19.0935 22.4307 19.2263 22.3854 19.3858L22.3165 19.6301L22.5132 19.7907C22.9661 20.1608 23.2258 20.7074 23.2258 21.2903C23.2258 21.9074 22.9293 22.4756 22.4516 22.8348Z" fill="#CB5F10"/>
    </g>
    <defs>
        <clipPath id="clip0_2_165">
            <rect width="24" height="24" fill="white"/>
        </clipPath>
    </defs>
</svg>
