<svg width="24" height="24" viewBox="0 0 24 24" fill="none" xmlns="http://www.w3.org/2000/svg">
    <path d="M5.8472 12.8921H2.12207V22.4043H5.8472V12.8921Z" fill="#EBDDD2"/>
    <path d="M22.2374 12.8921H18.5123V22.4043H22.2374V12.8921Z" fill="#EBDDD2"/>
    <path d="M10.9757 9.45306H8.63428V11.7945H10.9757V9.45306Z" fill="#EBDDD2"/>
    <path d="M15.6587 9.45306H13.3172V11.7945H15.6587V9.45306Z" fill="#EBDDD2"/>
    <path d="M15 14H13V16H15V14Z" fill="#EBDDD2"/>
    <path d="M11 14H9V16H11V14Z" fill="#EBDDD2"/>
    <path d="M2.2684 22.5704V12.9653H5.7806V22.5704H2.2684Z" stroke="#CB5F10"/>
    <path d="M0.359375 22.4043H23.774V23.136H0.359375V22.4043Z" fill="#CB5F10"/>
    <path d="M2.55452 22.7701H1.82281V12.5262H5.84721V13.258H2.55452V22.7701Z" fill="#CB5F10"/>
    <path d="M22.3106 22.7701H21.5789V13.258H18.2863V12.5262H22.3106V22.7701Z" fill="#CB5F10"/>
    <path d="M18.6521 22.7701H17.9204V4.84334H14.6277V4.11163H18.6521V22.7701Z" fill="#CB5F10"/>
    <path d="M6.21306 22.7701H5.48132V4.11163H9.50574V4.84334H6.21306V22.7701Z" fill="#CB5F10"/>
    <path d="M10.5366 3.0141H11.2683V5.9409H10.5366V3.0141Z" fill="#CB5F10"/>
    <path d="M12.8781 3.0141H13.6098V5.9409H12.8781V3.0141Z" fill="#CB5F10"/>
    <path d="M10.6033 4.11163H13.5302V4.84334H10.6033V4.11163Z" fill="#CB5F10"/>
    <path d="M14.9936 7.40429H9.13989V1.55066H14.9936V7.40429ZM9.8716 6.67258H14.2618V2.28237H9.8716V6.67258Z" fill="#CB5F10"/>
    <path d="M14.9936 22.7701H14.2618V19.1116H9.8716V22.7701H9.13989V18.3799H14.9936V22.7701Z" fill="#CB5F10"/>
    <path d="M11.335 16.5506H8.4082V13.6238H11.335V16.5506ZM9.13991 15.8189H10.6033V14.3555H9.13991V15.8189Z" fill="#CB5F10"/>
    <path d="M15.7253 16.5506H12.7984V13.6238H15.7253V16.5506ZM13.5301 15.8189H14.9936V14.3555H13.5301V15.8189Z" fill="#CB5F10"/>
    <path d="M11.335 12.1604H8.4082V9.23358H11.335V12.1604ZM9.13991 11.4287H10.6033V9.96529H9.13991V11.4287Z" fill="#CB5F10"/>
    <path d="M15.7253 12.1604H12.7984V9.23358H15.7253V12.1604ZM13.5301 11.4287H14.9936V9.96529H13.5301V11.4287Z" fill="#CB5F10"/>
</svg>
