<svg width="24" height="24" viewBox="0 0 24 24" fill="none" xmlns="http://www.w3.org/2000/svg">
    <g clip-path="url(#clip0_2_308)">
        <circle cx="5" cy="5" r="2" fill="#EBDDD2"/>
        <circle cx="12" cy="2.29999" r="2" fill="#EBDDD2"/>
        <circle cx="18.8" cy="5" r="2" fill="#EBDDD2"/>
        <circle cx="21.7" cy="12" r="2" fill="#EBDDD2"/>
        <circle cx="18.8" cy="19" r="2" fill="#EBDDD2"/>
        <circle cx="12" cy="21.7" r="2" fill="#EBDDD2"/>
        <circle cx="5.01999" cy="19" r="2" fill="#EBDDD2"/>
        <circle cx="2.20001" cy="12" r="2" fill="#EBDDD2"/>
        <path d="M6.07626 11.6129H7.74194V16.2581H16.2581V11.6129H17.9237L12 7.66376L6.07626 11.6129ZM13.1613 15.4839H10.8387V14.3226C10.8387 13.6823 11.3597 13.1613 12 13.1613C12.6403 13.1613 13.1613 13.6823 13.1613 14.3226V15.4839ZM15.4839 15.4839H13.9355V14.3226C13.9355 13.2554 13.0672 12.3871 12 12.3871C10.9328 12.3871 10.0645 13.2554 10.0645 14.3226V15.4839H8.51613V11.6129H15.4839V15.4839ZM8.63342 10.8387L12 8.59434L15.3666 10.8387H8.63342Z" fill="#CB5F10"/>
        <path d="M21.7932 9.68323C21.5454 8.63148 21.1324 7.63587 20.5622 6.71458C20.9508 6.28645 21.1657 5.7391 21.1657 5.1569C21.1657 4.53639 20.9241 3.95342 20.4852 3.51445C20.0466 3.07587 19.4632 2.83432 18.8431 2.83432C18.2609 2.83432 17.7132 3.04916 17.2854 3.43781C16.3637 2.86723 15.3677 2.45419 14.3168 2.20684C14.256 0.980129 13.2418 0 12 0C10.7582 0 9.744 0.980129 9.68323 2.20684C8.63226 2.45419 7.63626 2.86723 6.71458 3.43781C6.28684 3.04916 5.7391 2.83432 5.1569 2.83432C4.53639 2.83432 3.95342 3.07587 3.51484 3.51445C3.07587 3.95303 2.83432 4.53639 2.83432 5.1569C2.83432 5.73871 3.04916 6.28645 3.43781 6.71458C2.86761 7.63587 2.45458 8.63148 2.20684 9.68323C0.980129 9.744 0 10.7582 0 12C0 13.2418 0.980129 14.256 2.20684 14.3168C2.45458 15.3685 2.86761 16.3641 3.43781 17.2854C3.04916 17.7135 2.83432 18.2609 2.83432 18.8431C2.83432 19.4636 3.07587 20.0466 3.51484 20.4855C3.95342 20.9241 4.53677 21.1657 5.1569 21.1657C5.7391 21.1657 6.28684 20.9508 6.71458 20.5622C7.63626 21.1328 8.63226 21.5458 9.68323 21.7932C9.744 23.0199 10.7582 24 12 24C13.2418 24 14.256 23.0199 14.3168 21.7932C15.3677 21.5458 16.3637 21.1328 17.2854 20.5622C17.7132 20.9508 18.2609 21.1657 18.8431 21.1657C19.4636 21.1657 20.0466 20.9241 20.4852 20.4855C20.9241 20.047 21.1657 19.4636 21.1657 18.8431C21.1657 18.2613 20.9508 17.7135 20.5622 17.2854C21.1324 16.3641 21.5454 15.3685 21.7932 14.3168C23.0199 14.256 24 13.2418 24 12C24 10.7582 23.0199 9.744 21.7932 9.68323ZM17.7484 4.06181C18.0406 3.76955 18.4293 3.60852 18.8431 3.60852C19.2565 3.60852 19.6452 3.76955 19.9378 4.06181C20.2305 4.35445 20.3915 4.7431 20.3915 5.1569C20.3915 5.57071 20.2305 5.95935 19.9378 6.252C19.3525 6.8369 18.3333 6.8369 17.7484 6.252C17.4557 5.95935 17.2947 5.57071 17.2947 5.1569C17.2947 4.7431 17.4557 4.35445 17.7484 4.06181ZM12 0.774194C12.8539 0.774194 13.5484 1.46865 13.5484 2.32258C13.5484 3.17652 12.8539 3.87097 12 3.87097C11.1461 3.87097 10.4516 3.17652 10.4516 2.32258C10.4516 1.46865 11.1461 0.774194 12 0.774194ZM4.06219 4.06219C4.35484 3.76994 4.74348 3.6089 5.1569 3.6089C5.57032 3.6089 5.95897 3.76994 6.25161 4.06219C6.54426 4.35484 6.70529 4.74348 6.70529 5.15729C6.70529 5.5711 6.54426 5.95974 6.25161 6.25239C5.66632 6.83729 4.6471 6.83729 4.06219 6.25239C3.76955 5.95974 3.60852 5.5711 3.60852 5.15729C3.60852 4.74348 3.76955 4.35484 4.06219 4.06219ZM0.774194 12C0.774194 11.1461 1.46865 10.4516 2.32258 10.4516C3.17652 10.4516 3.87097 11.1461 3.87097 12C3.87097 12.8539 3.17652 13.5484 2.32258 13.5484C1.46865 13.5484 0.774194 12.8539 0.774194 12ZM6.25161 19.9378C5.66671 20.5227 4.64748 20.5227 4.06219 19.9378C3.76955 19.6452 3.60852 19.2565 3.60852 18.8427C3.60852 18.4289 3.76955 18.0403 4.06219 17.7476C4.35484 17.4554 4.74348 17.2943 5.1569 17.2943C5.57032 17.2943 5.95897 17.4554 6.25161 17.7476C6.54426 18.0403 6.70529 18.4289 6.70529 18.8427C6.70529 19.2565 6.54426 19.6452 6.25161 19.9378ZM12 23.2258C11.1461 23.2258 10.4516 22.5314 10.4516 21.6774C10.4516 20.8235 11.1461 20.129 12 20.129C12.8539 20.129 13.5484 20.8235 13.5484 21.6774C13.5484 22.5314 12.8539 23.2258 12 23.2258ZM19.9378 19.9378C19.3525 20.5227 18.3333 20.5227 17.7484 19.9378C17.4557 19.6452 17.2947 19.2565 17.2947 18.8427C17.2947 18.4289 17.4557 18.0403 17.7484 17.7476C18.041 17.4554 18.4297 17.2943 18.8431 17.2943C19.2565 17.2943 19.6452 17.4554 19.9378 17.7476C20.2305 18.0403 20.3915 18.4289 20.3915 18.8427C20.3915 19.2565 20.2305 19.6452 19.9378 19.9378ZM19.9436 16.7969C19.6092 16.6165 19.2337 16.5205 18.8431 16.5205C18.2226 16.5205 17.6396 16.7621 17.201 17.2006C16.7621 17.6392 16.5205 18.2226 16.5205 18.8431C16.5205 19.2337 16.6165 19.6095 16.7973 19.944C15.9941 20.4306 15.1324 20.7879 14.2243 21.0108C13.9366 20.0539 13.049 19.3548 12 19.3548C10.951 19.3548 10.0634 20.0539 9.77613 21.0105C8.868 20.7875 8.00593 20.4298 7.2031 19.9436C7.38348 19.6092 7.47987 19.2333 7.47987 18.8427C7.47987 18.2222 7.23832 17.6392 6.79936 17.2003C6.36077 16.7617 5.77742 16.5201 5.15729 16.5201C4.76671 16.5201 4.39123 16.6161 4.05677 16.7965C3.57019 15.9941 3.2129 15.132 2.98955 14.2235C3.94606 13.9366 4.64516 13.049 4.64516 12C4.64516 10.951 3.94606 10.0634 2.98916 9.77613C3.21252 8.86761 3.56981 8.00555 4.05639 7.2031C4.39084 7.38348 4.76632 7.47948 5.1569 7.47948C5.77742 7.47948 6.36039 7.23794 6.79897 6.79936C7.23794 6.36077 7.47948 5.77742 7.47948 5.1569C7.47948 4.76632 7.38348 4.39045 7.20271 4.056C8.00594 3.56942 8.86761 3.21213 9.77574 2.98916C10.0634 3.94606 10.951 4.64516 12 4.64516C13.049 4.64516 13.9366 3.94606 14.2239 2.98955C15.132 3.21252 15.9941 3.57019 16.7969 4.05639C16.6165 4.39084 16.5201 4.76671 16.5201 5.15729C16.5201 5.77781 16.7617 6.36077 17.2006 6.79974C17.6392 7.23832 18.2226 7.47987 18.8427 7.47987C19.2333 7.47987 19.6088 7.38387 19.9432 7.20348C20.4298 8.00593 20.7871 8.868 21.0105 9.77652C20.0539 10.0634 19.3548 10.951 19.3548 12C19.3548 13.049 20.0539 13.9366 21.0108 14.2239C20.7875 15.1324 20.4302 15.9945 19.9436 16.7969ZM21.6774 13.5484C20.8235 13.5484 20.129 12.8539 20.129 12C20.129 11.1461 20.8235 10.4516 21.6774 10.4516C22.5314 10.4516 23.2258 11.1461 23.2258 12C23.2258 12.8539 22.5314 13.5484 21.6774 13.5484Z" fill="#CB5F10"/>
    </g>
    <defs>
        <clipPath id="clip0_2_308">
            <rect width="24" height="24" fill="white"/>
        </clipPath>
    </defs>
</svg>
