<svg width="24" height="24" viewBox="0 0 24 24" fill="none" xmlns="http://www.w3.org/2000/svg">
    <g clip-path="url(#clip0_2_164)">
        <path d="M5 4H10.5V8.5H5V4Z" fill="#EBDDD2"/>
        <path d="M5 15H10.5V19.5H5V15Z" fill="#EBDDD2"/>
        <path d="M13.5 4H19V8.5H13.5V4Z" fill="#EBDDD2"/>
        <rect width="24" height="2" fill="#EBDDD2"/>
        <rect y="10" width="24" height="2" fill="#EBDDD2"/>
        <path d="M13.5 15H19V19.5H13.5V15Z" fill="#EBDDD2"/>
        <path d="M24 2.32258V0H0V2.32258H0.774194V10.0645H0V12.3871H0.774194V23.2258H0V24H24V23.2258H23.2258V12.3871H24V10.0645H23.2258V2.32258H24ZM22.4516 23.2258H20.9032H19H16H14H13.1613H1.54839V12.3871H22.4516V23.2258ZM23.2258 11.6129H0.774194V10.8387H23.2258V11.6129ZM1.54839 10.0645V2.32258H22.4516V10.0645H1.54839ZM0.774194 1.54839V0.774194H23.2258V1.54839H0.774194Z" fill="#CB5F10"/>
        <path d="M4.64517 8.90324H10.8387V3.48389H4.64517V8.90324ZM8.12904 4.25808H10.0645V5.80647H8.12904V4.25808ZM8.12904 6.58066H10.0645V8.12905H8.12904V6.58066ZM5.41937 4.25808H7.35485V5.80647H5.41937V4.25808ZM5.41937 6.58066H7.35485V8.12905H5.41937V6.58066Z" fill="#CB5F10"/>
        <path d="M13.1613 8.90324H19.3548V3.48389H13.1613V8.90324ZM16.6452 4.25808H18.5806V5.80647H16.6452V4.25808ZM16.6452 6.58066H18.5806V8.12905H16.6452V6.58066ZM13.9355 4.25808H15.871V5.80647H13.9355V4.25808ZM13.9355 6.58066H15.871V8.12905H13.9355V6.58066Z" fill="#CB5F10"/>
        <path d="M10.8387 14.7097H4.64517V20.129H10.8387V14.7097ZM7.35485 19.3548H5.41937V17.8064H7.35485V19.3548ZM7.35485 17.0322H5.41937V15.4838H7.35485V17.0322ZM10.0645 19.3548H8.12904V17.8064H10.0645V19.3548ZM10.0645 17.0322H8.12904V15.4838H10.0645V17.0322Z" fill="#CB5F10"/>
        <path d="M19.3236 14.7097H13.13V20.129H19.3236V14.7097ZM15.8397 19.3548H13.9042V17.8064H15.8397V19.3548ZM15.8397 17.0322H13.9042V15.4838H15.8397V17.0322ZM18.5494 19.3548H16.6139V17.8064H18.5494V19.3548ZM18.5494 17.0322H16.6139V15.4838H18.5494V17.0322Z" fill="#CB5F10"/>
    </g>
    <defs>
        <clipPath id="clip0_2_164">
            <rect width="24" height="24" fill="white"/>
        </clipPath>
    </defs>
</svg>
