<svg width="15" height="16" viewBox="0 0 15 16" fill="none" xmlns="http://www.w3.org/2000/svg">
<path d="M7.4925 0.567627C3.3525 0.567627 0 3.92763 0 8.06763C0 12.2076 3.3525 15.5676 7.4925 15.5676C11.64 15.5676 15 12.2076 15 8.06763C15 3.92763 11.64 0.567627 7.4925 0.567627ZM7.5 14.0676C4.185 14.0676 1.5 11.3826 1.5 8.06763C1.5 4.75263 4.185 2.06763 7.5 2.06763C10.815 2.06763 13.5 4.75263 13.5 8.06763C13.5 11.3826 10.815 14.0676 7.5 14.0676Z" fill="#A05E2A"/>
<path d="M7.875 4.31763H6.75V8.81763L10.6875 11.1801L11.25 10.2576L7.875 8.25513V4.31763Z" fill="#A05E2A"/>
</svg>
