<svg width="28" height="28" viewBox="0 0 28 28" fill="none" xmlns="http://www.w3.org/2000/svg">
<path d="M0 24.4635V3.55365C0.0240379 3.47749 0.0440937 3.40013 0.0600858 3.32189C0.151609 2.55447 0.479013 1.83435 0.997134 1.26088C1.51525 0.687413 2.19856 0.28885 2.95279 0.120172L3.55365 0H24.4635L24.9356 0.0944206C26.7725 0.480687 27.9914 1.97425 27.9914 3.86266C27.9971 10.6266 27.9971 17.3934 27.9914 24.1631C27.9917 24.4282 27.9658 24.6927 27.9142 24.9528C27.5193 26.7897 26.0343 27.9914 24.1373 28H18.5837C18.3176 28.0086 18.2661 27.9228 18.2661 27.6824L18.2918 18.3176C18.2918 18.2232 18.3004 18.1288 18.309 18.0429L18.3948 18.0258H21.6223C22.0601 18.0258 22.2833 17.8541 22.3433 17.4163C22.4721 16.4464 22.5751 15.485 22.7039 14.515C22.7983 13.8369 22.5408 13.5193 21.8455 13.5193H18.5408C18.3348 13.5193 18.2661 13.4507 18.2661 13.2532C18.2833 12.3262 18.2661 11.4077 18.2918 10.4893C18.3176 9.57082 18.7897 8.96996 19.7597 8.87554C20.4378 8.80687 21.1245 8.83262 21.8026 8.82404C22.3348 8.81546 22.6009 8.56653 22.6009 8.04292C22.6094 7.22747 22.6094 6.41202 22.6009 5.60515C22.6009 5.06438 22.3433 4.81545 21.7854 4.80687C21.2275 4.79829 20.8927 4.7897 20.4464 4.80687C19.588 4.84979 18.7124 4.83262 17.8627 4.97854C16.4549 5.22747 15.3391 5.98284 14.6094 7.24464C14.0258 8.25751 13.8541 9.36481 13.8369 10.5064C13.8312 11.4163 13.8312 12.3262 13.8369 13.2361C13.8455 13.4592 13.7682 13.5193 13.5536 13.5193C12.8841 13.5022 12.206 13.5107 11.5365 13.5107C10.867 13.5107 10.6266 13.7425 10.6266 14.412L10.6524 17.3133C10.6609 17.7768 10.9013 18.0172 11.3648 18.0172C12.0858 18.0258 12.8069 18.0343 13.5279 18.0172C13.794 18.0086 13.8627 18.0944 13.8541 18.3519C13.8426 21.4764 13.8369 24.5951 13.8369 27.7082C13.8369 27.8026 13.8197 27.8884 13.8112 27.9828L13.6309 28C10.3519 28 7.06438 28.0172 3.78541 27.9914C1.93133 27.9828 0.480687 26.7468 0.0944206 24.9356C0.0600858 24.7811 0.0343348 24.618 0 24.4635Z" fill="#475993"/>
</svg>
