<svg width="41" height="40" viewBox="0 0 41 40" fill="none" xmlns="http://www.w3.org/2000/svg">
<path d="M39.9873 11.4492H1.13013V39.1193H27.8444H30.8801H33.9158H39.9873V11.4492Z" fill="#EBDDD2"/>
<rect x="3.74457" y="14.0551" width="33.6283" height="21.8287" fill="white"/>
<path d="M40.0799 24.3086H39.8613V12.4989H39.726V11.1636H1.30811V14.1473H1.34974V35.8158V36.7025V38.9768H13.5069H16.5878H25.0916V39.0812H27.954V30.4847H25.0916V35.8158H16.5878V33.2181H13.5069V35.8158H4.18086V14.1473H13.3924V21.8883V24.9867V27.2506H16.3693V24.9867H19.7728V21.8883H16.3693V14.1473H37.4049V22.1074H25.8306V25.1224H37.0094V36.2018H34.1574V38.7995H39.8613V37.3911H40.0799V24.3086Z" fill="#EBDDD2"/>
<path d="M0.746065 10.8088C0.829334 10.7462 0.933419 10.7045 1.0375 10.6627C1.11036 10.6314 1.19363 10.6106 1.2769 10.6001C1.28731 10.6001 1.30813 10.6001 1.31853 10.6001C7.73019 10.5793 14.1419 10.5897 20.5639 10.5897C20.6784 10.5897 20.8345 10.5584 20.9074 10.621C21.0635 10.7462 21.2821 10.9236 21.2821 11.08C21.2821 11.2365 21.0739 11.4348 20.9074 11.5495C20.8137 11.6225 20.6264 11.5808 20.4911 11.5808C14.35 11.5808 8.20899 11.5808 2.06795 11.5808C1.91182 11.5808 1.75569 11.5808 1.57875 11.5808C1.57875 20.5424 1.57875 29.4727 1.57875 38.4238C10.1762 38.4238 18.7632 38.4238 27.3815 38.4238C27.3815 35.92 27.3815 33.4162 27.3815 30.8915C26.7674 30.8915 26.1533 30.8915 25.4767 30.8915C25.4767 31.0271 25.4767 31.1628 25.4767 31.2984C25.4767 32.8111 25.4767 34.3134 25.4767 35.8261C25.4767 36.3582 25.331 36.5042 24.8106 36.5042C22.0523 36.5042 19.2941 36.5042 16.5358 36.5042C15.9842 36.5042 15.8593 36.3686 15.8593 35.8053C15.8593 35.0854 15.8489 34.376 15.8489 33.6562C15.8489 33.6353 15.828 33.6144 15.8072 33.5623C15.2035 33.5623 14.5894 33.5623 13.9233 33.5623C13.9233 34.303 13.9233 35.0228 13.9233 35.7531C13.9233 36.3791 13.7984 36.5042 13.1739 36.5042C10.197 36.5042 7.22018 36.5042 4.23293 36.5042C3.61882 36.5042 3.48351 36.3686 3.48351 35.7427C3.48351 28.5859 3.48351 21.4292 3.48351 14.262C3.48351 13.636 3.60841 13.5004 4.23293 13.5004C7.20977 13.5004 10.1866 13.5004 13.1739 13.5004C13.8296 13.5004 13.9337 13.6152 13.9337 14.2828C13.9337 18.3098 13.9337 22.3264 13.9337 26.3533C13.9337 26.5098 13.9337 26.6663 13.9337 26.8541C14.5686 26.8541 15.1827 26.8541 15.8697 26.8541C15.8697 26.322 15.8697 25.7796 15.8697 25.2371C15.8697 24.6111 15.9946 24.4859 16.6191 24.4755C17.4622 24.4755 18.3053 24.4755 19.1588 24.465C19.1796 24.465 19.2108 24.4442 19.2629 24.4338C19.2629 23.8391 19.2629 23.234 19.2629 22.5768C19.138 22.5663 18.9922 22.5559 18.8569 22.5559C18.0763 22.5559 17.2956 22.5559 16.515 22.5559C16.0258 22.5559 15.8801 22.4098 15.8801 21.9299C15.8801 19.3218 15.8801 16.7241 15.8801 14.1159C15.8801 13.6569 16.0258 13.5108 16.4942 13.5108C16.8793 13.5004 17.2748 13.5004 17.6599 13.5108C17.9618 13.5213 18.1595 13.6778 18.1595 13.9907C18.1595 14.3037 17.9618 14.4602 17.6599 14.4706C17.3997 14.4811 17.1499 14.4706 16.8689 14.4706C16.8689 16.8493 16.8689 19.1862 16.8689 21.5752C17.1499 21.5752 17.431 21.5752 17.712 21.5752C18.3781 21.5752 19.0443 21.5648 19.7 21.5752C20.0747 21.5752 20.2621 21.7526 20.2621 22.1177C20.2725 23.0462 20.2725 23.9643 20.2621 24.8928C20.2621 25.2788 20.0747 25.4561 19.6792 25.4561C18.8881 25.4666 18.0971 25.4561 17.2956 25.4561C17.1603 25.4561 17.0146 25.4561 16.8377 25.4561C16.8377 26.0508 16.8377 26.5933 16.8377 27.1358C16.8377 27.72 16.7128 27.8348 16.1195 27.8348C15.2972 27.8348 14.4853 27.8348 13.6631 27.8348C13.0906 27.8348 12.9553 27.6991 12.9553 27.1149C12.9553 23.0775 12.9553 19.0401 12.9553 15.0131C12.9553 14.8462 12.9553 14.6793 12.9553 14.4915C10.1242 14.4915 7.33467 14.4915 4.51396 14.4915C4.51396 21.4918 4.51396 28.4816 4.51396 35.5027C7.31385 35.5027 10.1033 35.5027 12.9553 35.5027C12.9553 34.8976 12.9553 34.303 12.9553 33.7083C12.9553 32.5607 12.9553 32.5607 14.1002 32.5607C14.8184 32.5607 15.5366 32.5607 16.2444 32.5607C16.6815 32.5607 16.8377 32.7172 16.8377 33.145C16.8481 33.917 16.8377 34.6785 16.8377 35.4819C19.3878 35.4819 21.917 35.4819 24.4879 35.4819C24.4983 35.3358 24.5192 35.1897 24.5192 35.0333C24.5192 33.5518 24.5192 32.0704 24.5192 30.5785C24.5192 29.9735 24.6545 29.8378 25.2478 29.8378C26.6633 29.8587 28.0893 29.7961 29.4944 29.9213C32.0966 30.1612 34.3344 32.446 34.6154 35.0437C34.6571 35.3984 34.7508 35.5444 35.1255 35.5131C35.6147 35.4819 36.1143 35.5027 36.6347 35.5027C36.6347 32.1434 36.6347 28.8154 36.6347 25.4353C36.489 25.4353 36.3329 25.4353 36.1871 25.4353C32.7107 25.4353 29.2446 25.4353 25.7682 25.4353C25.0916 25.4353 24.9667 25.3101 24.9667 24.6528C24.9667 23.8704 24.9667 23.0879 24.9667 22.3055C24.9667 21.69 25.102 21.5439 25.7161 21.5439C29.2134 21.5439 32.7107 21.5439 36.2184 21.5439C36.3537 21.5439 36.4994 21.5439 36.6555 21.5439C36.6555 19.1653 36.6555 16.8284 36.6555 14.4393C36.5098 14.4393 36.3745 14.4393 36.2288 14.4393C34.1575 14.4393 32.0966 14.4393 30.0253 14.4393C29.9108 14.4393 29.7859 14.4498 29.6714 14.4289C29.4008 14.3767 29.2238 14.189 29.2759 13.9386C29.3175 13.7612 29.5153 13.6152 29.6714 13.49C29.7338 13.4378 29.8692 13.4691 29.9732 13.4691C32.2839 13.4691 34.605 13.4691 36.9157 13.4691C37.5194 13.4691 37.6443 13.6047 37.6443 14.1994C37.6443 16.7136 37.6443 19.2279 37.6443 21.7317C37.6443 22.3785 37.5194 22.5142 36.8741 22.5142C33.4185 22.5142 29.9524 22.5142 26.4968 22.5142C26.3302 22.5142 26.1637 22.5142 25.9764 22.5142C25.9764 23.1505 25.9764 23.7661 25.9764 24.4338C26.1117 24.4338 26.2678 24.4338 26.4135 24.4338C29.9004 24.4338 33.3872 24.4338 36.8741 24.4338C37.5194 24.4338 37.6547 24.5694 37.6547 25.2058C37.6547 28.7111 37.6547 32.206 37.6547 35.7114C37.6547 36.306 37.509 36.4521 36.9261 36.4521C36.1871 36.4521 35.4481 36.4521 34.6675 36.4521C34.6675 37.0989 34.6675 37.7249 34.6675 38.3717C36.2912 38.3717 37.8941 38.3717 39.5387 38.3717C39.5387 29.431 39.5387 20.5007 39.5387 11.5286C39.4034 11.5286 39.2577 11.5286 39.1223 11.5286C37.4049 11.5286 35.6875 11.5286 33.9701 11.5286C33.8556 11.5286 33.7307 11.5391 33.6162 11.5182C33.356 11.4661 33.1582 11.2991 33.2207 11.0383C33.2623 10.861 33.4497 10.7045 33.5954 10.5793C33.6683 10.5167 33.8244 10.548 33.9389 10.548C35.8853 10.548 37.8421 10.5376 39.7885 10.5584C39.9967 10.5584 40.2569 10.6001 40.4234 10.7462C40.5691 10.8818 40.5691 11.08 40.5691 11.2678C40.5587 11.4765 40.5587 11.6851 40.5691 11.8938C40.5691 12.2589 40.5691 12.6345 40.5691 12.9996C40.5691 13.7404 40.5587 14.4706 40.5587 15.2113C40.5587 15.2218 40.5587 15.2426 40.5587 15.2531C40.5587 16.7345 40.5587 18.2159 40.5587 19.6869C40.5587 21.1579 40.5587 22.6498 40.5587 24.1208C40.5587 25.5918 40.5587 27.0836 40.5587 28.5546C40.5587 30.036 40.5587 31.5175 40.5587 32.9885C40.5587 34.4699 40.5587 35.9513 40.5587 37.4223C40.5587 37.6936 40.5587 37.9544 40.5587 38.2256C40.5587 38.2987 40.5899 39.0185 40.5587 39.0289C40.3714 39.1437 40.184 39.3419 39.9862 39.3419C38.0711 39.3628 36.1663 39.3628 34.2511 39.3523C33.8348 39.3523 33.6787 39.1959 33.6787 38.789C33.6683 37.8605 33.6474 36.9424 33.6787 36.0139C33.7515 34.1778 32.9917 32.7589 31.5449 31.7053C30.629 31.0376 29.5777 30.735 28.3911 30.8185C28.3911 30.9958 28.3911 31.1523 28.3911 31.2984C28.3911 33.7605 28.3911 36.2121 28.3911 38.6742C28.3911 39.2167 28.2662 39.3419 27.725 39.3419C18.909 39.3419 10.0929 39.3419 1.2769 39.3419C0.975053 39.3419 0.735657 39.2897 0.589937 39.0081C0.589937 38.9976 0.589937 38.9768 0.589937 38.9663C0.589937 38.9455 0.589937 38.935 0.589937 38.9142C0.589937 38.8829 0.589937 38.8411 0.589937 38.8098C0.589937 38.7368 0.589937 38.6742 0.589937 38.6012C0.589937 38.4656 0.589937 38.3195 0.589937 38.1839C0.589937 37.9022 0.589937 37.631 0.589937 37.3493C0.589937 37.0676 0.589937 36.7964 0.589937 36.5147C0.589937 36.233 0.589937 35.9618 0.589937 35.6801C0.589937 35.3984 0.589937 35.1271 0.589937 34.8455C0.589937 34.5638 0.589937 34.2925 0.589937 34.0109C0.589937 33.7292 0.589937 33.4579 0.589937 33.1763C0.589937 32.8946 0.589937 32.6233 0.589937 32.3416C0.589937 32.06 0.589937 31.7887 0.589937 31.507C0.589937 31.2254 0.589937 30.9541 0.589937 30.6724C0.589937 30.3908 0.589937 30.1195 0.589937 29.8378C0.589937 29.5561 0.589937 29.2849 0.589937 29.0032C0.589937 28.7215 0.589937 28.4503 0.589937 28.1686C0.589937 27.8869 0.589937 27.6157 0.589937 27.334C0.589937 27.0523 0.589937 26.7811 0.589937 26.4994C0.589937 26.2177 0.589937 25.9465 0.589937 25.6648C0.589937 25.3831 0.589937 25.1119 0.589937 24.8302C0.589937 24.5485 0.589937 24.2773 0.589937 23.9956C0.589937 23.7139 0.589937 23.4427 0.589937 23.161C0.589937 22.8793 0.589937 22.608 0.589937 22.3264C0.589937 22.0447 0.589937 21.7734 0.589937 21.4918C0.589937 21.2101 0.589937 20.9388 0.589937 20.6572C0.589937 20.3755 0.589937 20.1042 0.589937 19.8225C0.589937 19.5409 0.589937 19.2696 0.589937 18.9879C0.589937 18.7063 0.589937 18.435 0.589937 18.1533C0.589937 17.8717 0.589937 17.6004 0.589937 17.3187C0.589937 17.037 0.589937 16.7658 0.589937 16.4841C0.589937 16.2024 0.589937 15.9312 0.589937 15.6495C0.589937 15.3678 0.589937 15.0966 0.589937 14.8149C0.589937 14.5332 0.589937 14.262 0.589937 13.9803C0.589937 13.6986 0.589937 13.4274 0.589937 13.1457C0.589937 12.864 0.589937 12.5928 0.589937 12.3111C0.589937 11.9564 0.589937 11.5912 0.579529 11.2365C0.579529 11.1113 0.579529 10.9862 0.631571 10.8714C0.64198 10.9131 0.694023 10.8505 0.746065 10.8088Z" fill="#CB5F10"/>
<path d="M23.5719 14.4707C22.7393 14.4707 21.9066 14.4707 21.0739 14.4707C20.668 14.4707 20.4494 14.3038 20.439 14.0012C20.4286 13.6882 20.6367 13.5213 21.0531 13.5109C21.0635 13.5109 21.0843 13.5109 21.0947 13.5109C21.4694 13.49 21.9378 13.6048 22.1876 13.417C22.4374 13.2292 22.4686 12.7493 22.5831 12.3946C22.7393 11.9356 22.9162 11.487 23.0203 11.0279C23.1556 10.4541 23.4783 10.0577 23.9571 9.71342C27.9956 6.80273 32.0341 3.88161 36.031 0.918752C37.6131 -0.249697 39.7468 0.449286 40.2568 2.23326C40.5691 3.32868 40.184 4.41367 39.1952 5.14395C37.8629 6.12461 36.5306 7.09484 35.1879 8.06507C32.3672 10.1203 29.5568 12.1651 26.7257 14.2099C26.5071 14.3664 26.2053 14.4602 25.9451 14.4707C25.154 14.502 24.363 14.4811 23.5615 14.4811C23.5719 14.4602 23.5719 14.4602 23.5719 14.4707ZM24.3942 10.6002C24.6232 10.9236 24.8418 11.2157 25.0812 11.5391C28.516 9.0353 31.9092 6.56278 35.3232 4.07983C35.0734 3.74598 34.8652 3.45387 34.6362 3.14089C31.2014 5.64471 27.8082 8.1068 24.3942 10.6002ZM26.3406 13.2814C29.7754 10.7775 33.1686 8.30502 36.5826 5.82207C36.3432 5.48822 36.1246 5.19611 35.8956 4.88313C32.4608 7.38695 29.0781 9.84904 25.6641 12.3424C25.893 12.6658 26.1012 12.9475 26.3406 13.2814ZM37.3737 5.24827C37.8733 4.88313 38.3521 4.55972 38.81 4.18415C39.4658 3.65209 39.5803 2.70272 39.1119 2.00374C38.6435 1.30476 37.7067 1.05438 36.9781 1.48211C36.4473 1.79509 35.9581 2.19153 35.4273 2.5671C36.083 3.47474 36.7179 4.35107 37.3737 5.24827ZM23.8738 11.5496C23.6552 12.2381 23.4679 12.8328 23.2701 13.4483C23.9571 13.4483 24.5712 13.4483 25.2581 13.4483C24.7793 12.8015 24.3526 12.2068 23.8738 11.5496Z" fill="#CB5F10"/>
<path d="M24.3942 10.6002C27.8186 8.10678 31.2118 5.63426 34.6362 3.14087C34.8652 3.45385 35.0838 3.74596 35.3232 4.0798C31.9092 6.56276 28.516 9.03528 25.0812 11.5391C24.8418 11.2157 24.6232 10.9236 24.3942 10.6002Z" fill="#EBDDD2"/>
<path d="M26.3406 13.2814C26.1013 12.958 25.8931 12.6659 25.6537 12.3425C29.0677 9.85952 32.4609 7.387 35.8853 4.88318C36.1143 5.19616 36.3328 5.4987 36.5722 5.82211C33.1686 8.30507 29.7755 10.7776 26.3406 13.2814Z" fill="white"/>
<path d="M37.3738 5.24833C36.7284 4.35113 36.0831 3.47479 35.4274 2.56716C35.9582 2.19159 36.4474 1.79515 36.9782 1.48217C37.7068 1.05444 38.6332 1.30482 39.112 2.0038C39.5804 2.70278 39.4659 3.65215 38.8101 4.18421C38.3522 4.55978 37.863 4.88319 37.3738 5.24833Z" fill="white"/>
<path d="M23.8739 11.5496C24.3527 12.2068 24.7899 12.8015 25.2582 13.4483C24.5817 13.4483 23.9676 13.4483 23.2702 13.4483C23.4576 12.8328 23.6553 12.2381 23.8739 11.5496Z" fill="white"/>
</svg>
