<svg width="24" height="24" viewBox="0 0 24 24" fill="none" xmlns="http://www.w3.org/2000/svg">
    <path d="M0.133141 0.21475C0.199712 0.164703 0.282925 0.131365 0.366135 0.0979473C0.424384 0.0729238 0.490956 0.0562947 0.557528 0.0479003C0.565851 0.0479003 0.582496 0.0479003 0.59081 0.0479003C5.71675 0.0312713 10.8427 0.0395859 15.9769 0.0395859C16.0685 0.0395859 16.1933 0.0145629 16.2516 0.0646098C16.3764 0.164704 16.5511 0.30653 16.5511 0.431567C16.5511 0.556684 16.3847 0.71522 16.2516 0.80692C16.1766 0.865281 16.0269 0.831943 15.9187 0.831943C11.0091 0.831943 6.09954 0.831943 1.18995 0.831943C1.06513 0.831943 0.940307 0.831943 0.798849 0.831943C0.798849 7.99649 0.798849 15.136 0.798849 22.2922C7.67227 22.2922 14.5373 22.2922 21.4274 22.2922C21.4274 20.2904 21.4274 18.2887 21.4274 16.2703C20.9365 16.2703 20.4455 16.2703 19.9046 16.2703C19.9046 16.3787 19.9046 16.4872 19.9046 16.5956C19.9046 17.805 19.9046 19.006 19.9046 20.2154C19.9046 20.6408 19.7881 20.7575 19.3721 20.7575C17.1669 20.7575 14.9618 20.7575 12.7566 20.7575C12.3156 20.7575 12.2157 20.6491 12.2157 20.1987C12.2157 19.6232 12.2074 19.0561 12.2074 18.4806C12.2074 18.4639 12.1907 18.4472 12.1741 18.4055C11.6915 18.4055 11.2005 18.4055 10.668 18.4055C10.668 18.9977 10.668 19.5732 10.668 20.157C10.668 20.6575 10.5681 20.7575 10.0688 20.7575C7.6889 20.7575 5.30901 20.7575 2.92079 20.7575C2.42983 20.7575 2.32165 20.6491 2.32165 20.1487C2.32165 14.427 2.32165 8.70546 2.32165 2.97549C2.32165 2.47502 2.4215 2.36661 2.92079 2.36661C5.30069 2.36661 7.68058 2.36661 10.0688 2.36661C10.5931 2.36661 10.6763 2.45839 10.6763 2.99212C10.6763 6.21159 10.6763 9.42275 10.6763 12.6421C10.6763 12.7673 10.6763 12.8924 10.6763 13.0425C11.1839 13.0425 11.6748 13.0425 12.2241 13.0425C12.2241 12.6171 12.2241 12.1835 12.2241 11.7498C12.2241 11.2493 12.3239 11.1492 12.8232 11.1409C13.4972 11.1409 14.1713 11.1409 14.8536 11.1325C14.8702 11.1325 14.8952 11.1159 14.9368 11.1076C14.9368 10.6321 14.9368 10.1483 14.9368 9.62293C14.837 9.61454 14.7204 9.60623 14.6122 9.60623C13.9882 9.60623 13.364 9.60623 12.74 9.60623C12.3489 9.60623 12.2324 9.48942 12.2324 9.10575C12.2324 7.02065 12.2324 4.94387 12.2324 2.85868C12.2324 2.49173 12.3489 2.37492 12.7233 2.37492C13.0312 2.36661 13.3474 2.36661 13.6553 2.37492C13.8966 2.38332 14.0547 2.50843 14.0547 2.75859C14.0547 3.00882 13.8966 3.13394 13.6553 3.14226C13.4473 3.15065 13.2475 3.14226 13.0229 3.14226C13.0229 5.04396 13.0229 6.91224 13.0229 8.82218C13.2475 8.82218 13.4723 8.82218 13.6969 8.82218C14.2295 8.82218 14.7621 8.81387 15.2863 8.82218C15.5858 8.82218 15.7357 8.96401 15.7357 9.2559C15.744 9.99821 15.744 10.7322 15.7357 11.4745C15.7357 11.7831 15.5858 11.9249 15.2696 11.9249C14.6372 11.9332 14.0048 11.9249 13.364 11.9249C13.2559 11.9249 13.1394 11.9249 12.9979 11.9249C12.9979 12.4003 12.9979 12.834 12.9979 13.2677C12.9979 13.7348 12.8981 13.8266 12.4238 13.8266C11.7664 13.8266 11.1173 13.8266 10.4599 13.8266C10.0022 13.8266 9.89408 13.7181 9.89408 13.251C9.89408 10.0232 9.89408 6.79544 9.89408 3.57597C9.89408 3.44254 9.89408 3.30911 9.89408 3.15897C7.6307 3.15897 5.40054 3.15897 3.14547 3.15897C3.14547 8.75551 3.14547 14.3437 3.14547 19.9568C5.3839 19.9568 7.61399 19.9568 9.89408 19.9568C9.89408 19.4731 9.89408 18.9977 9.89408 18.5223C9.89408 17.6048 9.89408 17.6048 10.8094 17.6048C11.3836 17.6048 11.9578 17.6048 12.5236 17.6048C12.8731 17.6048 12.9979 17.7299 12.9979 18.0719C13.0063 18.6891 12.9979 19.2979 12.9979 19.9402C15.0367 19.9402 17.0587 19.9402 19.1141 19.9402C19.1224 19.8234 19.1391 19.7066 19.1391 19.5816C19.1391 18.3971 19.1391 17.2128 19.1391 16.0201C19.1391 15.5364 19.2473 15.4279 19.7216 15.4279C20.8532 15.4446 21.9933 15.3946 23.1166 15.4947C25.197 15.6865 26.9861 17.5131 27.2107 19.5899C27.2441 19.8734 27.319 19.9902 27.6185 19.9651C28.0096 19.9402 28.409 19.9568 28.8251 19.9568C28.8251 17.2712 28.8251 14.6105 28.8251 11.9082C28.7086 11.9082 28.5838 11.9082 28.4672 11.9082C25.688 11.9082 22.9169 11.9082 20.1376 11.9082C19.5967 11.9082 19.4969 11.8081 19.4969 11.2826C19.4969 10.6571 19.4969 10.0315 19.4969 9.40604C19.4969 8.91396 19.605 8.79716 20.096 8.79716C22.892 8.79716 25.688 8.79716 28.4923 8.79716C28.6004 8.79716 28.7169 8.79716 28.8417 8.79716C28.8417 6.89554 28.8417 5.02725 28.8417 3.11723C28.7252 3.11723 28.6171 3.11723 28.5006 3.11723C26.8446 3.11723 25.197 3.11723 23.5411 3.11723C23.4495 3.11723 23.3497 3.12563 23.2581 3.10892C23.0418 3.06719 22.9003 2.91712 22.9419 2.71694C22.9752 2.57511 23.1333 2.45839 23.2581 2.35829C23.308 2.31656 23.4163 2.34159 23.4994 2.34159C25.3467 2.34159 27.2024 2.34159 29.0497 2.34159C29.5324 2.34159 29.6322 2.44999 29.6322 2.92544C29.6322 4.93547 29.6322 6.94558 29.6322 8.9473C29.6322 9.4644 29.5324 9.57289 29.0165 9.57289C26.2538 9.57289 23.4828 9.57289 20.7201 9.57289C20.5869 9.57289 20.4538 9.57289 20.3041 9.57289C20.3041 10.0816 20.3041 10.5737 20.3041 11.1076C20.4122 11.1076 20.537 11.1076 20.6535 11.1076C23.4412 11.1076 26.2288 11.1076 29.0165 11.1076C29.5324 11.1076 29.6406 11.216 29.6406 11.7247C29.6406 14.5271 29.6406 17.3212 29.6406 20.1237C29.6406 20.599 29.5241 20.7158 29.0581 20.7158C28.4672 20.7158 27.8764 20.7158 27.2524 20.7158C27.2524 21.2329 27.2524 21.7334 27.2524 22.2505C28.5505 22.2505 29.8319 22.2505 31.1468 22.2505C31.1468 15.1027 31.1468 7.96315 31.1468 0.79021C31.0386 0.79021 30.9221 0.79021 30.8139 0.79021C29.4408 0.79021 28.0678 0.79021 26.6948 0.79021C26.6033 0.79021 26.5034 0.798605 26.4119 0.781896C26.2039 0.740243 26.0457 0.606731 26.0957 0.398229C26.129 0.256482 26.2788 0.131365 26.3953 0.0312715C26.4535 -0.0187754 26.5783 0.0062484 26.6699 0.0062484C28.226 0.0062484 29.7904 -0.00206625 31.3465 0.0145628C31.5129 0.0145628 31.7209 0.0479003 31.854 0.164703C31.9705 0.273112 31.9705 0.431567 31.9705 0.581708C31.9622 0.748558 31.9622 0.915327 31.9705 1.08218C31.9705 1.37406 31.9705 1.67435 31.9705 1.96623C31.9705 2.55848 31.9622 3.14226 31.9622 3.73443C31.9622 3.74282 31.9622 3.75945 31.9622 3.76784C31.9622 4.95218 31.9622 6.13652 31.9622 7.31254C31.9622 8.48856 31.9622 9.6813 31.9622 10.8573C31.9622 12.0333 31.9622 13.226 31.9622 14.402C31.9622 15.5864 31.9622 16.7708 31.9622 17.9468C31.9622 19.1311 31.9622 20.3155 31.9622 21.4915C31.9622 21.7084 31.9622 21.9169 31.9622 22.1337C31.9622 22.1922 31.9872 22.7676 31.9622 22.7759C31.8125 22.8677 31.6627 23.0262 31.5045 23.0262C29.9734 23.0429 28.4506 23.0429 26.9195 23.0345C26.5866 23.0345 26.4619 22.9094 26.4619 22.5841C26.4535 21.8418 26.4368 21.1078 26.4619 20.3655C26.5201 18.8976 25.9126 17.7632 24.7559 16.9209C24.0237 16.3871 23.1832 16.1452 22.2346 16.2119C22.2346 16.3537 22.2346 16.4788 22.2346 16.5956C22.2346 18.564 22.2346 20.524 22.2346 22.4924C22.2346 22.9261 22.1347 23.0262 21.702 23.0262C14.6539 23.0262 7.60567 23.0262 0.557528 23.0262C0.31621 23.0262 0.12482 22.9844 0.00832089 22.7593C0.00832089 22.7509 0.00832089 22.7343 0.00832089 22.7259C0.00832089 22.7092 0.00832089 22.7009 0.00832089 22.6842C0.00832089 22.6592 0.00832089 22.6258 0.00832089 22.6008C0.00832089 22.5424 0.00832089 22.4924 0.00832089 22.434C0.00832089 22.3256 0.00832089 22.2088 0.00832089 22.1004C0.00832089 21.8752 0.00832089 21.6583 0.00832089 21.4331C0.00832089 21.2079 0.00832089 20.9911 0.00832089 20.7659C0.00832089 20.5407 0.00832089 20.3239 0.00832089 20.0987C0.00832089 19.8734 0.00832089 19.6565 0.00832089 19.4314C0.00832089 19.2062 0.00832089 18.9893 0.00832089 18.7642C0.00832089 18.539 0.00832089 18.3221 0.00832089 18.0969C0.00832089 17.8717 0.00832089 17.6548 0.00832089 17.4296C0.00832089 17.2045 0.00832089 16.9876 0.00832089 16.7624C0.00832089 16.5372 0.00832089 16.3203 0.00832089 16.0951C0.00832089 15.87 0.00832089 15.6531 0.00832089 15.4279C0.00832089 15.2027 0.00832089 14.9859 0.00832089 14.7607C0.00832089 14.5354 0.00832089 14.3186 0.00832089 14.0934C0.00832089 13.8682 0.00832089 13.6514 0.00832089 13.4262C0.00832089 13.201 0.00832089 12.9842 0.00832089 12.7589C0.00832089 12.5337 0.00832089 12.3169 0.00832089 12.0917C0.00832089 11.8665 0.00832089 11.6497 0.00832089 11.4245C0.00832089 11.1993 0.00832089 10.9824 0.00832089 10.7572C0.00832089 10.532 0.00832089 10.3152 0.00832089 10.09C0.00832089 9.86477 0.00832089 9.64788 0.00832089 9.42275C0.00832089 9.19754 0.00832089 8.98064 0.00832089 8.75551C0.00832089 8.5303 0.00832089 8.3134 0.00832089 8.08827C0.00832089 7.86306 0.00832089 7.64616 0.00832089 7.42095C0.00832089 7.19582 0.00832089 6.97892 0.00832089 6.75371C0.00832089 6.52858 0.00832089 6.31168 0.00832089 6.08647C0.00832089 5.86134 0.00832089 5.64444 0.00832089 5.41923C0.00832089 5.19402 0.00832089 4.9772 0.00832089 4.75199C0.00832089 4.52678 0.00832089 4.30996 0.00832089 4.08475C0.00832089 3.85954 0.00832089 3.64273 0.00832089 3.41751C0.00832089 3.1923 0.00832089 2.97549 0.00832089 2.75028C0.00832089 2.52506 0.00832089 2.30825 0.00832089 2.08304C0.00832089 1.85783 0.00832089 1.64101 0.00832089 1.4158C0.00832089 1.13222 0.0083209 0.840257 0 0.556684C0 0.45659 5.95653e-09 0.356577 0.0416061 0.264797C0.0499278 0.298135 0.0915347 0.248088 0.133141 0.21475Z" fill="#CB5F10"/>
</svg>
