<svg width="40" height="34" viewBox="0 0 40 34" fill="none" xmlns="http://www.w3.org/2000/svg">
<g clip-path="url(#clip0_2_1840)">
<path d="M4.60876 31.3997V5.45242C4.60876 4.72443 5.19735 4.13257 5.9213 4.13257H34.0849C34.8089 4.13257 35.3975 4.72443 35.3975 5.45242V31.4056C35.3975 32.1336 34.8089 32.7255 34.0849 32.7255H5.9213C5.19146 32.7196 4.60876 32.1277 4.60876 31.3997Z" fill="white"/>
<path d="M34.0849 33.0155H5.92128C5.03252 33.0155 4.31445 32.2934 4.31445 31.3997V5.45246C4.31445 4.55874 5.03252 3.83667 5.92128 3.83667H34.0849C34.9737 3.83667 35.6917 4.55874 35.6917 5.45246V31.4057C35.6917 32.2934 34.9678 33.0155 34.0849 33.0155ZM5.92128 4.42853C5.36213 4.42853 4.90303 4.89019 4.90303 5.45246V31.4057C4.90303 31.9679 5.36213 32.4296 5.92128 32.4296H34.0849C34.6441 32.4296 35.1032 31.9679 35.1032 31.4057V5.45246C35.1032 4.89019 34.6441 4.42853 34.0849 4.42853H5.92128Z" fill="#CB5F10"/>
<path d="M29.6819 28.5522L29.6819 12.8678L10.3234 12.8678L10.3234 28.5522L29.6819 28.5522Z" fill="white"/>
<path d="M29.6823 28.8489H10.318C10.1532 28.8489 10.0237 28.7187 10.0237 28.5529V12.8686C10.0237 12.7028 10.1532 12.5726 10.318 12.5726H29.6764C29.8412 12.5726 29.9707 12.7028 29.9707 12.8686V28.5529C29.9766 28.7187 29.8412 28.8489 29.6823 28.8489ZM10.6123 28.257H29.3821V13.1645H10.6123V28.257Z" fill="#CB5F10"/>
<path d="M29.6784 26.5896L29.6784 14.776L10.32 14.776L10.32 26.5896L29.6784 26.5896Z" fill="#CB5F10"/>
<path d="M29.6823 26.8838H10.318C10.1532 26.8838 10.0237 26.7536 10.0237 26.5879V14.7743C10.0237 14.6086 10.1532 14.4784 10.318 14.4784H29.6764C29.8412 14.4784 29.9707 14.6086 29.9707 14.7743V26.5879C29.9766 26.7536 29.8412 26.8838 29.6823 26.8838ZM10.6123 26.292H29.3821V15.0703H10.6123V26.292Z" fill="#CB5F10"/>
<path d="M0.294434 4.13258V1.64675C0.294434 1.35674 0.529866 1.12 0.818271 1.12H39.182C39.4704 1.12 39.7059 1.35674 39.7059 1.64675V4.1385C39.7059 4.42851 39.4704 4.66526 39.182 4.66526H0.818271C0.529866 4.65934 0.294434 4.42259 0.294434 4.13258Z" fill="#EBDDD2"/>
<path d="M39.182 4.9553H0.81825C0.365043 4.9553 0.00012207 4.58835 0.00012207 4.13261V1.64679C0.00012207 1.19105 0.365043 0.824097 0.81825 0.824097H39.182C39.6352 0.824097 40.0001 1.19105 40.0001 1.64679V4.13853C40.0001 4.58835 39.6352 4.9553 39.182 4.9553ZM0.81825 1.41596C0.694648 1.41596 0.588704 1.51658 0.588704 1.64679V4.13853C0.588704 4.26282 0.688762 4.36936 0.81825 4.36936H39.182C39.3056 4.36936 39.4115 4.26874 39.4115 4.13853V1.64679C39.4115 1.5225 39.3115 1.41596 39.182 1.41596H0.81825Z" fill="#CB5F10"/>
<path d="M2.78998 5.87854V4.98483C2.78998 4.80727 2.93712 4.6593 3.1137 4.6593H36.8865C37.0631 4.6593 37.2102 4.80727 37.2102 4.98483V5.88446C37.2102 6.06202 37.0631 6.20998 36.8865 6.20998H3.1137C2.93712 6.20406 2.78998 6.06202 2.78998 5.87854Z" fill="#EBDDD2"/>
<path d="M36.8865 6.50003H3.11368C2.7723 6.50003 2.49567 6.22185 2.49567 5.87857V4.98486C2.49567 4.64158 2.7723 4.3634 3.11368 4.3634H36.8865C37.2279 4.3634 37.5045 4.64158 37.5045 4.98486V5.88449C37.5045 6.22185 37.2279 6.50003 36.8865 6.50003ZM3.11368 4.95527C3.09602 4.95527 3.08425 4.9671 3.08425 4.98486V5.88449C3.08425 5.90225 3.09602 5.91408 3.11368 5.91408H36.8865C36.9041 5.91408 36.9159 5.90225 36.9159 5.88449V4.98486C36.9159 4.9671 36.9041 4.95527 36.8865 4.95527H3.11368Z" fill="#CB5F10"/>
<path d="M0.294434 30.5652V33.057C0.294434 33.347 0.529866 33.5837 0.818271 33.5837H39.182C39.4704 33.5837 39.7059 33.347 39.7059 33.057V30.5652C39.7059 30.2752 39.4704 30.0385 39.182 30.0385H0.818271C0.529866 30.0385 0.294434 30.2752 0.294434 30.5652Z" fill="#EBDDD2"/>
<path d="M39.182 33.8797H0.81825C0.365043 33.8797 0.00012207 33.5127 0.00012207 33.057V30.5652C0.00012207 30.1095 0.365043 29.7426 0.81825 29.7426H39.182C39.6352 29.7426 40.0001 30.1095 40.0001 30.5652V33.057C40.0001 33.5068 39.6352 33.8797 39.182 33.8797ZM0.81825 30.3344C0.694648 30.3344 0.588704 30.435 0.588704 30.5652V33.057C0.588704 33.1813 0.688762 33.2878 0.81825 33.2878H39.182C39.3056 33.2878 39.4115 33.1872 39.4115 33.057V30.5652C39.4115 30.441 39.3115 30.3344 39.182 30.3344H0.81825Z" fill="#CB5F10"/>
<path d="M2.78998 28.8192V29.7188C2.78998 29.8964 2.93712 30.0443 3.1137 30.0443H36.8865C37.0631 30.0443 37.2102 29.8964 37.2102 29.7188V28.8192C37.2102 28.6416 37.0631 28.4937 36.8865 28.4937H3.1137C2.93712 28.4937 2.78998 28.6416 2.78998 28.8192Z" fill="#EBDDD2"/>
<path d="M36.8865 30.3344H3.11368C2.7723 30.3344 2.49567 30.0562 2.49567 29.7129V28.8192C2.49567 28.4759 2.7723 28.1978 3.11368 28.1978H36.8865C37.2279 28.1978 37.5045 28.4759 37.5045 28.8192V29.7188C37.5045 30.0562 37.2279 30.3344 36.8865 30.3344ZM3.11368 28.7896C3.09602 28.7896 3.08425 28.8015 3.08425 28.8192V29.7188C3.08425 29.7366 3.09602 29.7484 3.11368 29.7484H36.8865C36.9041 29.7484 36.9159 29.7366 36.9159 29.7188V28.8192C36.9159 28.8015 36.9041 28.7896 36.8865 28.7896H3.11368Z" fill="#CB5F10"/>
<path d="M23.0961 26.5879H17.2927C17.2927 24.9425 18.5934 23.6108 20.1944 23.6108C21.7953 23.6108 23.0961 24.9425 23.0961 26.5879Z" fill="white"/>
<path d="M23.0961 26.8839H17.2926C17.1278 26.8839 16.9984 26.7537 16.9984 26.5879C16.9984 24.7828 18.4345 23.3149 20.1944 23.3149C21.9601 23.3149 23.3903 24.7828 23.3903 26.5879C23.3903 26.7537 23.2609 26.8839 23.0961 26.8839ZM17.5987 26.292H22.7841C22.6429 24.9544 21.5304 23.9068 20.1885 23.9068C18.8465 23.9068 17.7459 24.9544 17.5987 26.292Z" fill="#CB5F10"/>
<path d="M17.2927 26.5879H13.4198C13.4198 25.493 14.285 24.5992 15.3562 24.5992C16.4216 24.5992 17.2927 25.493 17.2927 26.5879Z" fill="white"/>
<path d="M17.2926 26.8839H13.4198C13.255 26.8839 13.1255 26.7537 13.1255 26.5879C13.1255 25.3273 14.1261 24.3033 15.3562 24.3033C16.5863 24.3033 17.5869 25.3273 17.5869 26.5879C17.5869 26.7537 17.4516 26.8839 17.2926 26.8839ZM13.7376 26.292H16.9748C16.8394 25.4989 16.1626 24.8952 15.3562 24.8952C14.5499 24.8952 13.873 25.4989 13.7376 26.292Z" fill="#CB5F10"/>
<path d="M26.9689 26.5879H23.0961C23.0961 25.493 23.9613 24.5992 25.0325 24.5992C26.1037 24.5992 26.9689 25.493 26.9689 26.5879Z" fill="white"/>
<path d="M26.9689 26.8839H23.096C22.9312 26.8839 22.8018 26.7537 22.8018 26.5879C22.8018 25.3273 23.8023 24.3033 25.0325 24.3033C26.2626 24.3033 27.2632 25.3273 27.2632 26.5879C27.2632 26.7537 27.1337 26.8839 26.9689 26.8839ZM23.4139 26.292H26.6511C26.5157 25.4989 25.8388 24.8952 25.0325 24.8952C24.2261 24.8952 23.5493 25.4989 23.4139 26.292Z" fill="#CB5F10"/>
<path d="M23.4668 21.8115C23.3962 22.8177 22.9371 23.7114 22.1308 24.2441C21.0478 23.4214 21.036 21.8766 21.036 21.8766C21.036 21.8766 20.5357 22.3205 20.571 23.0189C19.4939 22.3738 19.9295 20.6455 19.9295 20.6455C17.6281 22.4152 18.6522 24.3269 18.3874 24.2441C17.7223 24.0251 16.0036 22.2081 16.6805 19.592C17.0748 18.0709 18.0578 17.414 18.0578 17.414C18.0578 17.414 17.7635 19.2547 18.3756 19.6926C18.0931 18.136 20.2238 16.4019 21.295 16.2657C21.2479 17.1358 21.0007 19.154 22.066 20.2549C22.0837 19.5269 22.1484 19.0889 22.7311 18.7575C22.5722 19.6512 23.5787 20.2667 23.4668 21.8115Z" fill="white"/>
</g>
<defs>
<clipPath id="clip0_2_1840">
<rect width="40" height="33.0556" fill="white" transform="translate(0.00012207 0.824097)"/>
</clipPath>
</defs>
</svg>
