<svg width="40" height="41" viewBox="0 0 40 41" fill="none" xmlns="http://www.w3.org/2000/svg">
<path d="M0.812622 38.774V33.7115H39.3751V38.774H34.6251V35.774H18.8751V38.774H0.812622Z" fill="#EBDDD2"/>
<path d="M8.62385 15.0788L5.98502 19.1271C5.82064 19.3792 5.80767 19.7 5.95127 19.9645C6.09463 20.2285 6.37017 20.3925 6.67064 20.3925H6.67197L8.55947 20.3892C8.76049 20.3888 8.95963 20.322 9.12002 20.2013L12.9904 17.288L18.4597 18.2253C18.4646 18.2262 18.4695 18.2269 18.4743 18.2276C18.5672 18.2412 18.6636 18.2475 18.7539 18.2476L20.8744 18.2443L14.9588 28.2609C14.8136 28.5068 14.8114 28.8135 14.9531 29.0613C15.0946 29.3089 15.3595 29.4626 15.6445 29.4626H15.6453L18.9997 29.4605C19.3087 29.4602 19.601 29.3415 19.8227 29.1263L22.8008 26.2362C23.0326 26.0112 23.0381 25.6408 22.8131 25.4089C22.5881 25.1771 22.2178 25.1716 21.9859 25.3966L19.0078 28.2867C19.0053 28.2892 19.002 28.2905 18.9987 28.2905L16.2991 28.2922L22.2346 18.2421L29.3699 18.231L23.9703 23.4709C23.7385 23.6959 23.733 24.0663 23.958 24.2982C24.0727 24.4164 24.2251 24.4758 24.3778 24.4758C24.5245 24.4758 24.6716 24.4209 24.7852 24.3106L31.0525 18.2284L34.0201 18.2238C34.5248 18.2229 35.0178 18.1258 35.4853 17.9352L38.3665 16.7602C39.0845 16.4673 39.5299 15.8035 39.5285 15.0279C39.5271 14.2523 39.0795 13.5902 38.3604 13.2998L35.4752 12.1348C35.0092 11.9466 34.5184 11.8513 34.016 11.8513C34.0138 11.8513 34.0113 11.8513 34.0089 11.8513L30.9928 11.8563L19.8228 1.01626C19.601 0.801104 19.3088 0.682432 18.9995 0.682119L15.6455 0.679932C15.6453 0.679932 15.645 0.679932 15.6447 0.679932C15.3596 0.679932 15.0946 0.833682 14.9531 1.08118C14.8115 1.32907 14.8137 1.63571 14.9588 1.88157L20.8588 11.8717L18.7427 11.8749C18.6489 11.8752 18.5547 11.8824 18.4626 11.8961C18.458 11.8968 18.4533 11.8976 18.4487 11.8984L12.9828 12.8546L9.10197 9.95454C8.94142 9.83454 8.7426 9.7686 8.54174 9.7686C8.54142 9.7686 8.54111 9.7686 8.5408 9.7686L6.6533 9.77188C6.35244 9.77251 6.07697 9.93751 5.93432 10.2024C5.79174 10.4673 5.80572 10.7881 5.97096 11.0395L8.62385 15.0788ZM8.46447 10.9389L12.3227 13.822C12.5541 13.9951 12.8503 14.0659 13.1346 14.0159L18.6424 13.0524C18.6762 13.0476 18.7109 13.045 18.745 13.0449L26.5606 13.0327C26.8837 13.0322 27.1452 12.7699 27.1446 12.4468C27.1441 12.124 26.8824 11.8627 26.5596 11.8627C26.5593 11.8627 26.559 11.8627 26.5587 11.8627L22.2163 11.8695L16.2992 1.85032L18.9986 1.85212C19.0021 1.85212 19.0055 1.85345 19.0079 1.85587L29.3485 11.8909C29.1183 11.9699 28.9529 12.1878 28.9533 12.4448C28.9538 12.7675 29.2156 13.0288 29.5383 13.0288H29.5393L34.011 13.0212H34.016C34.3675 13.0212 34.7111 13.0879 35.0371 13.2195L37.9224 14.3845C38.3263 14.5477 38.3583 14.9197 38.3585 15.0299C38.3587 15.14 38.328 15.5122 37.9246 15.6767L35.0435 16.8517C34.7163 16.9851 34.3713 17.0531 34.0181 17.0538L18.7516 17.0776C18.751 17.0776 18.7505 17.0776 18.7499 17.0776C18.7167 17.0776 18.6828 17.0752 18.6489 17.0706L13.1382 16.1262C12.8531 16.0771 12.5578 16.1491 12.327 16.3228L8.47885 19.2195L7.32017 19.2214L9.6458 15.6537C9.87439 15.303 9.87353 14.8503 9.64377 14.5006L7.3058 10.9409L8.46447 10.9389Z" fill="#CB5F10"/>
<path d="M21.1167 15.7677C21.5301 15.7253 21.8309 15.3558 21.7885 14.9424C21.7461 14.529 21.3766 14.2282 20.9632 14.2706C20.5498 14.3129 20.249 14.6824 20.2913 15.0959C20.3337 15.5093 20.7032 15.8101 21.1167 15.7677Z" fill="#CB5F10"/>
<path d="M24.5413 15.2383C24.6659 14.8419 24.4457 14.4195 24.0493 14.2948C23.653 14.1702 23.2306 14.3905 23.106 14.7869C22.9813 15.1833 23.2016 15.6057 23.5979 15.7303C23.9943 15.855 24.4166 15.6347 24.5413 15.2383Z" fill="#CB5F10"/>
<path d="M27.0823 15.543C27.3761 15.2493 27.3761 14.773 27.0824 14.4793C26.7886 14.1855 26.3124 14.1856 26.0186 14.4793C25.7248 14.7731 25.7248 15.2493 26.0185 15.5431C26.3123 15.8368 26.7885 15.8368 27.0823 15.543Z" fill="#CB5F10"/>
<path d="M29.3395 15.7605C29.755 15.7603 30.0916 15.4233 30.0914 15.0077C30.0912 14.5923 29.7541 14.2556 29.3386 14.2559C28.9231 14.2561 28.5865 14.5932 28.5868 15.0087C28.5871 15.4241 28.924 15.7608 29.3395 15.7605Z" fill="#CB5F10"/>
<path d="M38.6351 32.749H11.4493V30.2031H11.7979C12.121 30.2031 12.3829 29.9412 12.3829 29.6181C12.3829 29.295 12.121 29.0331 11.7979 29.0331H11.4493V26.4872H11.7979C12.121 26.4872 12.3829 26.2253 12.3829 25.9022C12.3829 25.579 12.121 25.3172 11.7979 25.3172H11.4493V24.6293C11.4493 24.2347 11.2141 23.8815 10.85 23.7295L7.99083 22.5358C7.56106 22.3564 7.06817 22.3564 6.63856 22.5358L3.77911 23.7294C3.41497 23.8815 3.17981 24.2347 3.17981 24.6292V25.3171H2.86668C2.54356 25.3171 2.28168 25.579 2.28168 25.9021C2.28168 26.2252 2.54356 26.4871 2.86668 26.4871H3.17981V29.033H2.86668C2.54356 29.033 2.28168 29.2949 2.28168 29.618C2.28168 29.9411 2.54356 30.203 2.86668 30.203H3.17981V32.749H1.36512C0.612466 32.749 0.00012207 33.3614 0.00012207 34.114V38.2529C0.00012207 39.0056 0.612466 39.6179 1.36512 39.6179H13.3054C13.6286 39.6179 13.8904 39.3561 13.8904 39.0329C13.8904 38.7098 13.6286 38.4479 13.3054 38.4479H1.36512C1.25754 38.4479 1.17012 38.3605 1.17012 38.2529V34.114C1.17012 34.0065 1.25754 33.919 1.36512 33.919H38.635C38.7426 33.919 38.83 34.0065 38.83 34.114V38.2529C38.83 38.3605 38.7426 38.4479 38.635 38.4479H35.3975V36.1902C35.3975 35.6526 34.9601 35.2152 34.4225 35.2152H19.5448C19.0072 35.2152 18.5698 35.6526 18.5698 36.1902V38.4479H6.37668C6.05356 38.4479 5.79169 38.7098 5.79169 39.0329C5.79169 39.3561 6.05356 39.6179 6.37668 39.6179H38.635C39.3877 39.6179 40 39.0056 40 38.2529V34.114C40.0001 33.3614 39.3878 32.749 38.6351 32.749ZM10.2793 29.0331H4.34989V26.4872H10.2793V29.0331ZM7.08926 23.6154C7.23247 23.5556 7.39676 23.5558 7.53997 23.6154L10.2793 24.7591V25.317H4.34981V24.7591L7.08926 23.6154ZM4.34981 30.2031H10.2793V32.749H4.34981V30.2031ZM27.5576 36.3852H30.5008V38.4479H27.5576V36.3852ZM26.3876 38.4479H23.4233V36.3852H26.3876V38.4479ZM19.7398 36.3852H22.2533V38.4479H19.7398V36.3852ZM31.6708 38.4479V36.3852H34.2275V38.4479H31.6708Z" fill="#CB5F10"/>
</svg>
