<svg width="41" height="41" viewBox="0 0 41 41" fill="none" xmlns="http://www.w3.org/2000/svg">
<path d="M15.2834 8.31368L18.5394 8.04285H24.0911V8.96993L16.6714 16.9283H7.39404L15.2834 8.31368Z" fill="white"/>
<path d="M0.788208 33.6053C1.06997 32.9387 1.4874 32.4178 2.25964 32.3137C2.41618 32.2928 2.57271 32.2928 2.72925 32.2928C14.772 32.2928 26.8044 32.2928 38.8472 32.2928C40.1203 32.2928 40.7882 32.9699 40.7882 34.2512C40.7882 35.5637 40.7882 36.8762 40.7882 38.1991C40.7882 39.4595 40.5273 39.8553 39.3794 40.3345C26.9818 40.3345 14.5946 40.3345 2.19703 40.3345C1.49783 40.1366 1.03866 39.6783 0.788208 39.0012C0.788208 37.1991 0.788208 35.4074 0.788208 33.6053ZM22.9641 33.2928C22.9641 33.4699 22.9641 33.6053 22.9641 33.7512C22.9641 34.272 22.9745 34.7928 22.9641 35.3137C22.9536 35.6366 22.7866 35.8449 22.4631 35.8449C22.1605 35.8449 22.004 35.6262 21.9831 35.3345C21.9727 35.1887 21.9831 35.0533 21.9831 34.9074C21.9831 34.3762 21.9831 33.8553 21.9831 33.3137C21.1691 33.3137 20.4073 33.3137 19.6038 33.3137C19.6038 33.5637 19.6038 33.7928 19.6038 34.0324C19.6038 34.522 19.4264 34.772 19.1028 34.7616C18.7898 34.7512 18.6228 34.5116 18.6228 34.0533C18.6228 33.8137 18.6228 33.5637 18.6228 33.3241C17.8088 33.3241 17.047 33.3241 16.233 33.3241C16.233 33.6366 16.2435 33.9387 16.233 34.2303C16.2226 34.5533 16.0661 34.772 15.7321 34.7616C15.4086 34.7512 15.2521 34.5324 15.2521 34.2095C15.2521 33.9178 15.2521 33.6158 15.2521 33.3137C14.4381 33.3137 13.6659 33.3137 12.8519 33.3137C12.8519 33.4595 12.8519 33.5845 12.8519 33.7095C12.8519 34.1783 12.8519 34.647 12.8519 35.1158C12.8519 35.2199 12.8519 35.3241 12.8414 35.4283C12.7997 35.7199 12.6118 35.8762 12.3301 35.8553C12.0483 35.8345 11.8813 35.647 11.8813 35.3553C11.8813 34.6783 11.8813 34.0116 11.8813 33.3137C11.0674 33.3137 10.2951 33.3137 9.53332 33.3137C9.50201 33.3449 9.49157 33.3553 9.49157 33.3658C9.48114 33.6366 9.48114 33.9074 9.4707 34.1887C9.46027 34.5533 9.27242 34.7824 8.96979 34.7512C8.63585 34.7199 8.50018 34.5116 8.50018 34.1887C8.50018 33.897 8.50018 33.6053 8.50018 33.3241C7.66533 33.3241 6.89309 33.3241 6.09997 33.3241C6.09997 33.647 6.09997 33.9283 6.09997 34.2095C6.09997 34.5324 5.94344 34.7408 5.6095 34.7512C5.27556 34.7512 5.12946 34.5324 5.12946 34.2095C5.12946 33.9178 5.12946 33.6158 5.12946 33.3033C4.17981 33.3033 3.28234 33.2928 2.38487 33.3137C2.01962 33.3241 1.79003 33.6053 1.76916 34.0012C1.74829 34.4283 1.75873 34.8553 1.75873 35.2928C1.75873 36.3762 1.74829 37.4491 1.75873 38.5324C1.76916 39.0845 2.01962 39.3345 2.57271 39.3553C2.67707 39.3553 2.78142 39.3553 2.88578 39.3553C14.8138 39.3553 26.7418 39.3553 38.6593 39.3553C38.7741 39.3553 38.8889 39.3553 39.0141 39.3553C39.5046 39.3345 39.776 39.0949 39.7864 38.6053C39.7968 37.0845 39.7968 35.5637 39.7864 34.0324C39.7864 33.5533 39.4942 33.3033 39.0037 33.2928C38.4715 33.2824 37.9393 33.2928 37.407 33.2928C37.0835 33.2928 36.7705 33.2928 36.4261 33.2928C36.4261 33.647 36.4261 33.9283 36.4261 34.2095C36.4261 34.5324 36.2696 34.7408 35.9356 34.7408C35.6017 34.7303 35.4556 34.522 35.4556 34.1991C35.4556 33.9074 35.4556 33.6158 35.4556 33.3241C34.6207 33.3241 33.8485 33.3241 33.0554 33.3241C33.0554 33.5533 33.0554 33.7408 33.0554 33.9387C33.0554 34.4178 33.0658 34.9074 33.0449 35.3866C33.0345 35.6783 32.8466 35.8449 32.5649 35.8449C32.2831 35.8449 32.1057 35.6783 32.0848 35.3866C32.0744 35.2408 32.0848 35.1053 32.0848 34.9595C32.0848 34.4178 32.0848 33.8762 32.0848 33.3241C31.2604 33.3241 30.4882 33.3241 29.6846 33.3241C29.6846 33.6366 29.6846 33.9178 29.6846 34.1991C29.6846 34.522 29.5385 34.7408 29.215 34.7512C28.8811 34.7616 28.7246 34.5533 28.7246 34.2199C28.7246 33.9283 28.7246 33.6262 28.7246 33.3137C27.9001 33.3137 27.1279 33.3137 26.3243 33.3137C26.3243 33.6053 26.3243 33.8762 26.3243 34.147C26.3348 34.4803 26.1991 34.7095 25.8547 34.7512C25.5521 34.7824 25.3538 34.5533 25.3434 34.1574C25.333 33.8762 25.3434 33.5949 25.3434 33.3033C24.5294 33.2928 23.778 33.2928 22.9641 33.2928Z" fill="#CB5F10"/>
<path d="M38.5236 0.324097C38.5862 0.34493 38.6384 0.37618 38.701 0.397013C39.9428 0.68868 40.7777 1.67826 40.7673 2.9491C40.7464 7.3241 40.6942 11.6991 40.6525 16.0637C40.642 16.7512 40.3081 17.2408 39.6819 17.4908C39.0558 17.7408 38.4818 17.6053 38.0018 17.1262C33.337 12.4595 28.6723 7.79285 24.0075 3.12618C23.5171 2.6366 23.371 2.05326 23.6318 1.40743C23.9032 0.730347 24.4563 0.43868 25.1763 0.43868C27.7435 0.417847 30.3003 0.40743 32.8674 0.386597C33.3997 0.386597 33.9319 0.34493 34.4641 0.334513C35.8103 0.324097 37.1669 0.324097 38.5236 0.324097ZM31.0307 8.61576C31.5004 9.09493 31.9595 9.56368 32.4813 10.0845C32.5752 9.96993 32.69 9.80326 32.8361 9.65743C33.0657 9.42826 33.3266 9.39701 33.5562 9.6366C33.7649 9.85535 33.7336 10.1158 33.5353 10.3345C33.3892 10.4908 33.2431 10.647 33.1388 10.7512C33.6292 11.2408 34.0884 11.6991 34.5893 12.1991C34.7041 12.0637 34.8398 11.8762 34.9963 11.7303C35.205 11.5324 35.4555 11.522 35.6642 11.7199C35.8833 11.9387 35.8729 12.1991 35.6746 12.4178C35.5285 12.5741 35.3303 12.6887 35.1946 12.7928C35.7164 13.3241 36.1651 13.772 36.6243 14.2303C36.6973 14.1678 36.7913 14.0741 36.8852 13.9908C37.24 13.6366 37.5218 13.5741 37.7513 13.8033C38.0018 14.0428 37.9496 14.3137 37.5635 14.6991C37.4696 14.7928 37.3861 14.8866 37.2609 15.022C37.72 15.4699 38.1688 15.897 38.6071 16.3345C38.8262 16.5533 39.0558 16.6991 39.3689 16.5637C39.6611 16.4283 39.7132 16.1678 39.7132 15.8762C39.7446 11.6158 39.7759 7.36576 39.8072 3.10535C39.8176 1.95951 39.1602 1.31368 38.0227 1.31368C34.6728 1.34493 31.3334 1.36576 27.9835 1.39701C27.0339 1.40743 26.0842 1.39701 25.1346 1.42826C24.9467 1.43868 24.6963 1.56368 24.6024 1.71993C24.5189 1.85535 24.5189 2.17826 24.6232 2.28243C25.1137 2.81368 25.6564 3.29285 26.199 3.8241C26.3347 3.67826 26.4704 3.52201 26.6269 3.37618C26.846 3.16785 27.0965 3.1366 27.3156 3.35535C27.5348 3.5741 27.5139 3.8241 27.3156 4.05326C27.1695 4.21993 27.013 4.36576 26.9087 4.48035C27.3678 4.9491 27.8061 5.40743 28.307 5.91785C28.4218 5.77201 28.5471 5.59493 28.6932 5.4491C28.9123 5.23035 29.1732 5.21993 29.3923 5.42826C29.6115 5.64701 29.6011 5.90743 29.3819 6.12618C29.2254 6.28243 29.0375 6.39701 28.9019 6.49076C29.4445 7.02201 29.8933 7.46993 30.342 7.91785C30.6759 7.75118 30.8638 7.04285 31.4586 7.50118C31.7195 7.74076 31.6151 7.99076 31.0307 8.61576Z" fill="#CB5F10"/>
<path d="M0.788208 6.26163C1.00736 6.15746 1.22651 5.9908 1.45609 5.95955C1.86308 5.90746 2.29095 5.94913 2.70837 5.94913C3.03188 5.94913 3.2406 6.10538 3.2406 6.43871C3.2406 6.75121 3.04232 6.90746 2.73968 6.91788C2.44748 6.9283 2.14485 6.91788 1.81091 6.91788C1.81091 7.73038 1.81091 8.50121 1.81091 9.31371C2.09267 9.31371 2.38487 9.3033 2.66663 9.31371C3.04232 9.32413 3.2406 9.50121 3.2406 9.8033C3.2406 10.1054 3.04232 10.2825 2.6562 10.2929C2.38487 10.3033 2.11354 10.2929 1.81091 10.2929C1.81091 11.095 1.81091 11.8658 1.81091 12.6783C2.1031 12.6783 2.38487 12.6679 2.66663 12.6783C3.04232 12.6887 3.25103 12.8762 3.23016 13.1783C3.20929 13.5429 2.96927 13.6575 2.64576 13.6679C2.37443 13.6679 2.1031 13.6679 1.80047 13.6679C1.80047 14.4595 1.80047 15.22 1.80047 16.0533C2.06136 16.0533 2.32225 16.0533 2.59358 16.0533C3.03188 16.0637 3.2406 16.2304 3.23016 16.5637C3.21972 16.8762 3.01101 17.0325 2.60402 17.0429C2.34313 17.0429 2.09267 17.0429 1.80047 17.0429C1.80047 17.845 1.80047 18.6158 1.80047 19.4387C2.11354 19.4387 2.41618 19.4387 2.70837 19.4387C3.03188 19.4491 3.2406 19.595 3.23016 19.9283C3.21972 20.2616 3.01101 20.4075 2.6875 20.4075C2.40574 20.4075 2.11354 20.4075 1.76916 20.4075C1.76916 21.1679 1.75873 21.897 1.7796 22.6366C1.7796 22.6991 1.9257 22.7929 2.01962 22.8033C2.22833 22.8241 2.43705 22.8137 2.64576 22.8137C2.9797 22.8033 3.20929 22.9179 3.23016 23.2825C3.25103 23.595 3.03188 23.772 2.62489 23.772C2.35356 23.772 2.08223 23.772 1.79003 23.772C1.79003 24.5845 1.79003 25.3658 1.79003 26.1783C2.11354 26.1783 2.40574 26.1783 2.70837 26.1783C3.03188 26.1783 3.23016 26.345 3.23016 26.6783C3.21972 26.9908 3.02145 27.1366 2.71881 27.147C2.69794 27.147 2.66663 27.147 2.64576 27.147C1.76916 27.1783 1.76916 27.1783 1.76916 28.0637C1.76916 28.5429 1.76916 29.022 1.76916 29.5429C2.1031 29.5429 2.40574 29.5429 2.69794 29.5429C3.02145 29.5429 3.23016 29.6991 3.23016 30.0325C3.23016 30.345 3.03188 30.5012 2.72925 30.5116C2.25964 30.522 1.79003 30.5429 1.32043 30.5012C1.13259 30.4908 0.965615 30.3345 0.788208 30.2512C0.788208 22.2512 0.788208 14.2616 0.788208 6.26163Z" fill="#CB5F10"/>
<path d="M8.51062 16.647C11.0987 16.647 13.5824 16.647 16.0661 16.6366C16.2017 16.6366 16.3791 16.522 16.4731 16.4074C18.8524 13.7511 21.2317 11.0949 23.6111 8.43864C24.0807 7.9178 24.2476 7.90739 24.7486 8.40739C27.1696 10.8449 29.5907 13.2928 32.0118 15.7303C32.0848 15.8032 32.1579 15.8761 32.2309 15.9595C32.4083 16.1886 32.4188 16.4178 32.2205 16.6261C32.0118 16.8345 31.7718 16.8241 31.5526 16.647C31.4274 16.5532 31.323 16.4282 31.2187 16.3241C28.9854 14.0636 26.7418 11.8136 24.5085 9.55322C24.4146 9.45947 24.3207 9.37614 24.2059 9.27197C23.298 10.2824 22.4005 11.2824 21.5135 12.2824C20.0108 13.9595 18.508 15.6366 17.0157 17.3241C16.8174 17.5532 16.5983 17.6366 16.3061 17.6366C13.405 17.6261 10.5038 17.6261 7.59228 17.6366C7.33139 17.6366 7.03919 17.6366 6.98701 17.3449C6.9557 17.1366 7.03919 16.8553 7.18529 16.6991C9.63768 13.9282 12.1109 11.1782 14.5633 8.4178C14.7825 8.17822 15.0121 8.06364 15.3356 8.07405C17.0261 8.08447 18.7167 8.08447 20.4177 8.07405C20.6786 8.07405 20.9187 8.1053 21.023 8.38655C21.1587 8.74072 20.9082 9.0428 20.449 9.0428C18.8837 9.0428 17.3288 9.05322 15.7634 9.03239C15.4504 9.03239 15.2416 9.12614 15.0329 9.3553C12.9771 11.6678 10.9108 13.9803 8.84456 16.2928C8.74021 16.3657 8.65672 16.4699 8.51062 16.647Z" fill="#CB5F10"/>
<path d="M27.201 27.8762C28.1193 27.8762 28.975 27.8762 29.8934 27.8762C29.8934 27.7199 29.8934 27.5637 29.8934 27.4178C29.8934 24.8137 29.8934 22.2095 29.8934 19.6053C29.8934 19.4803 29.8934 19.3449 29.9038 19.2199C29.9351 18.9283 30.0917 18.7616 30.3839 18.7616C30.6761 18.7616 30.8326 18.9387 30.8639 19.2303C30.8743 19.3241 30.8639 19.4074 30.8639 19.5012C30.8639 22.3762 30.8639 25.2512 30.8639 28.1366C30.8639 28.7408 30.7387 28.8658 30.1334 28.8658C26.3974 28.8658 22.6614 28.8658 18.9255 28.8658C18.2889 28.8658 18.1741 28.7512 18.1741 28.1158C18.1741 25.2512 18.1741 22.3866 18.1741 19.522C18.1741 19.397 18.1428 19.2303 18.2054 19.1366C18.3202 18.9908 18.4976 18.7824 18.6333 18.7824C18.8002 18.7928 18.9881 18.9803 19.1133 19.1262C19.1759 19.2095 19.1446 19.3762 19.1446 19.5116C19.1446 22.1366 19.1446 24.772 19.1446 27.397C19.1446 27.5428 19.1446 27.6783 19.1446 27.8553C20.0316 27.8553 20.8874 27.8553 21.8057 27.8553C21.8161 27.7303 21.8266 27.5949 21.8266 27.4595C21.8266 26.2616 21.8161 25.0637 21.8266 23.8658C21.8579 21.8345 23.7572 20.5428 25.5626 21.3241C26.5644 21.7616 27.1383 22.5637 27.1801 23.6574C27.2218 24.9074 27.1905 26.1574 27.1905 27.4074C27.201 27.5533 27.201 27.6991 27.201 27.8762ZM26.2096 27.8762C26.2096 26.4074 26.2618 24.9699 26.1887 23.5324C26.147 22.6158 25.2808 21.9803 24.3938 22.0533C23.4963 22.1262 22.8284 22.8449 22.818 23.772C22.8075 24.7824 22.818 25.8033 22.818 26.8137C22.818 27.1574 22.818 27.5116 22.818 27.8658C23.9659 27.8762 25.0616 27.8762 26.2096 27.8762Z" fill="#CB5F10"/>
<path d="M10.3785 27.897C10.5664 27.897 10.7021 27.897 10.8377 27.897C12.664 27.897 14.4798 27.897 16.306 27.897C16.4313 27.897 16.6087 27.8553 16.6817 27.9178C16.8382 28.0428 17.0261 28.2303 17.0261 28.397C17.0365 28.5428 16.8278 28.7199 16.6817 28.8345C16.6087 28.897 16.4521 28.8658 16.3373 28.8658C14.2711 28.8658 12.2048 28.8658 10.1281 28.8658C9.50195 28.8658 9.37672 28.7408 9.37672 28.1158C9.37672 25.2512 9.37672 22.397 9.37672 19.5324C9.37672 19.4074 9.34542 19.2303 9.40803 19.1574C9.53326 19.0012 9.7211 18.8137 9.88807 18.8033C10.0342 18.7928 10.222 18.9908 10.3264 19.147C10.3994 19.2512 10.3681 19.4283 10.3681 19.5637C10.3681 22.1783 10.3681 24.7928 10.3681 27.4074C10.3785 27.5428 10.3785 27.6991 10.3785 27.897Z" fill="#CB5F10"/>
<path d="M22.964 33.2929C23.778 33.2929 24.5294 33.2929 25.3538 33.2929C25.3538 33.5845 25.3434 33.8658 25.3538 34.147C25.3643 34.5429 25.5625 34.7825 25.8652 34.7408C26.22 34.6991 26.3452 34.47 26.3348 34.1366C26.3243 33.8658 26.3348 33.595 26.3348 33.3033C27.1383 33.3033 27.9106 33.3033 28.735 33.3033C28.735 33.6158 28.735 33.9179 28.735 34.2095C28.735 34.5325 28.902 34.7408 29.2255 34.7408C29.549 34.7304 29.7055 34.5116 29.6951 34.1887C29.6951 33.9075 29.6951 33.6158 29.6951 33.3137C30.4986 33.3137 31.2709 33.3137 32.0953 33.3137C32.0953 33.8658 32.0953 34.4075 32.0953 34.9491C32.0953 35.095 32.0953 35.2408 32.0953 35.3762C32.1161 35.6679 32.2831 35.8345 32.5753 35.8345C32.8571 35.8345 33.0449 35.6679 33.0554 35.3762C33.0658 34.897 33.0658 34.4179 33.0658 33.9283C33.0658 33.7304 33.0658 33.5429 33.0658 33.3137C33.8693 33.3137 34.6416 33.3137 35.466 33.3137C35.466 33.595 35.466 33.897 35.466 34.1887C35.466 34.5116 35.6121 34.7304 35.946 34.7304C36.28 34.7408 36.4365 34.522 36.4365 34.1991C36.4365 33.9179 36.4365 33.6262 36.4365 33.2825C36.7809 33.2825 37.1044 33.2825 37.4175 33.2825C37.9497 33.2825 38.4819 33.272 39.0141 33.2825C39.5046 33.2929 39.7864 33.5429 39.7968 34.022C39.8072 35.5429 39.8072 37.0637 39.7968 38.595C39.7968 39.0741 39.515 39.3137 39.0246 39.345C38.9098 39.3554 38.795 39.345 38.6698 39.345C26.7418 39.345 14.8138 39.345 2.89622 39.345C2.79186 39.345 2.68751 39.345 2.58315 39.345C2.03006 39.3241 1.76916 39.0741 1.76916 38.522C1.75873 37.4387 1.76916 36.3658 1.76916 35.2825C1.76916 34.8554 1.75873 34.4179 1.7796 33.9908C1.80047 33.595 2.04049 33.3137 2.39531 33.3033C3.29277 33.2825 4.19024 33.2929 5.13989 33.2929C5.13989 33.6054 5.13989 33.9075 5.13989 34.1991C5.13989 34.522 5.28599 34.7408 5.61993 34.7408C5.94344 34.7408 6.11041 34.5325 6.11041 34.1991C6.11041 33.9179 6.11041 33.6262 6.11041 33.3137C6.90352 33.3137 7.67576 33.3137 8.51062 33.3137C8.51062 33.595 8.51062 33.8866 8.51062 34.1783C8.51062 34.5012 8.64628 34.7095 8.98023 34.7408C9.27242 34.772 9.46027 34.5429 9.48114 34.1783C9.49157 33.9075 9.49157 33.6366 9.50201 33.3554C9.50201 33.345 9.51245 33.3345 9.54375 33.3033C10.2951 33.3033 11.0674 33.3033 11.8918 33.3033C11.8918 33.9908 11.8918 34.6679 11.8918 35.345C11.8918 35.6366 12.0588 35.8241 12.3405 35.845C12.6223 35.8658 12.8101 35.7095 12.8519 35.4179C12.8623 35.3137 12.8623 35.2095 12.8623 35.1054C12.8623 34.6366 12.8623 34.1679 12.8623 33.6991C12.8623 33.5741 12.8623 33.4491 12.8623 33.3033C13.6763 33.3033 14.4381 33.3033 15.2625 33.3033C15.2625 33.6054 15.2625 33.897 15.2625 34.1991C15.2625 34.522 15.419 34.7408 15.7425 34.7512C16.0765 34.7616 16.233 34.5429 16.2435 34.22C16.2539 33.9283 16.2435 33.6262 16.2435 33.3137C17.047 33.3137 17.8088 33.3137 18.6332 33.3137C18.6332 33.5637 18.6332 33.8033 18.6332 34.0429C18.6332 34.5116 18.8002 34.7512 19.1133 34.7512C19.4472 34.7616 19.6142 34.5116 19.6142 34.022C19.6142 33.7929 19.6142 33.5637 19.6142 33.3033C20.4177 33.3033 21.1795 33.3033 21.9935 33.3033C21.9935 33.845 21.9935 34.3658 21.9935 34.897C21.9935 35.0429 21.9831 35.1887 21.9935 35.3241C22.0144 35.6262 22.1709 35.8345 22.4736 35.8345C22.7971 35.8345 22.9745 35.6262 22.9745 35.3033C22.9849 34.7825 22.9745 34.2616 22.9745 33.7408C22.964 33.6054 22.964 33.47 22.964 33.2929Z" fill="#EBDDD2"/>
<path d="M31.0309 8.61576C31.6257 7.99076 31.7197 7.74076 31.4275 7.5116C30.8326 7.05326 30.6448 7.7616 30.3108 7.92826C29.8621 7.48035 29.4134 7.03243 28.8707 6.50118C29.0064 6.39701 29.1942 6.28243 29.3508 6.1366C29.5699 5.91785 29.5803 5.65743 29.3612 5.43868C29.142 5.23035 28.8812 5.24076 28.662 5.45951C28.5159 5.60535 28.4011 5.78243 28.2759 5.92826C27.775 5.41785 27.3367 4.95951 26.8775 4.49076C26.9819 4.3866 27.1384 4.23035 27.2845 4.06368C27.4828 3.83451 27.5036 3.58451 27.2845 3.36576C27.0653 3.14701 26.8149 3.17826 26.5957 3.3866C26.4496 3.53243 26.314 3.68868 26.1679 3.83451C25.6252 3.31368 25.0826 2.8241 24.5921 2.29285C24.4877 2.17826 24.4877 1.86576 24.5712 1.73035C24.6651 1.5741 24.9156 1.43868 25.1034 1.43868C26.0531 1.40743 27.0027 1.41785 27.9524 1.40743C31.3022 1.37618 34.6417 1.35535 37.9915 1.3241C39.129 1.31368 39.7865 1.96993 39.776 3.11576C39.7447 7.37618 39.7134 11.6262 39.6821 15.8866C39.6821 16.1783 39.6299 16.4387 39.3377 16.5741C39.0246 16.7095 38.7951 16.5637 38.5759 16.3449C38.1376 15.9074 37.6889 15.4699 37.2297 15.0324C37.3549 14.897 37.4384 14.8033 37.5323 14.7095C37.9185 14.3241 37.9706 14.0533 37.7202 13.8137C37.4906 13.5949 37.1984 13.6574 36.854 14.0012C36.7601 14.0949 36.6662 14.1783 36.5931 14.2408C36.134 13.7824 35.6957 13.3345 35.1634 12.8033C35.2991 12.6991 35.4974 12.5845 35.6435 12.4283C35.8522 12.2095 35.8626 11.9491 35.633 11.7303C35.4243 11.5324 35.1739 11.5428 34.9652 11.7408C34.8086 11.8866 34.673 12.0741 34.5582 12.2095C34.0573 11.7095 33.5981 11.2512 33.1076 10.7616C33.212 10.6574 33.3581 10.5012 33.5042 10.3449C33.7129 10.1262 33.7442 9.86576 33.525 9.64701C33.2954 9.40743 33.0346 9.43868 32.805 9.66785C32.6589 9.81368 32.5441 9.99076 32.4502 10.0949C31.9492 9.55326 31.4901 9.08451 31.0309 8.61576ZM33.9112 3.58451C33.9112 3.59493 33.9112 3.60535 33.9112 3.61576C32.9406 3.61576 31.9597 3.61576 30.9892 3.61576C30.7074 3.61576 30.4256 3.61576 30.29 3.91785C30.1439 4.23035 30.3526 4.42826 30.5509 4.62618C32.5232 6.59493 34.4851 8.56368 36.4575 10.5324C36.6557 10.7303 36.8331 10.9491 37.1567 10.8137C37.4697 10.6887 37.4802 10.4074 37.4802 10.1262C37.4906 8.15743 37.501 6.1991 37.5115 4.23035C37.5115 3.70951 37.3758 3.5741 36.8331 3.5741C35.8626 3.58451 34.8817 3.58451 33.9112 3.58451Z" fill="white"/>
<path d="M26.2095 27.8761C25.0615 27.8761 23.9658 27.8761 22.8179 27.8761C22.8179 27.5116 22.8179 27.1678 22.8179 26.824C22.8179 25.8136 22.8074 24.7928 22.8179 23.7824C22.8283 22.8553 23.4962 22.1365 24.3937 22.0636C25.2807 21.9907 26.1364 22.6157 26.1886 23.5428C26.2616 24.9595 26.2095 26.4074 26.2095 27.8761Z" fill="white"/>
<path d="M33.911 3.58447C34.8815 3.58447 35.8625 3.58447 36.833 3.58447C37.3756 3.58447 37.5113 3.71989 37.5113 4.24072C37.5009 6.20947 37.4904 8.1678 37.48 10.1366C37.48 10.4178 37.4696 10.6991 37.1565 10.8241C36.833 10.9595 36.6451 10.7303 36.4573 10.5428C34.4849 8.57406 32.523 6.60531 30.5507 4.63656C30.3524 4.43864 30.1437 4.24072 30.2898 3.92822C30.4255 3.62614 30.7072 3.62614 30.989 3.62614C31.9595 3.62614 32.9405 3.62614 33.911 3.62614C33.911 3.60531 33.911 3.59489 33.911 3.58447ZM32.0743 4.59489C33.5562 6.08447 35.038 7.56364 36.5095 9.03239C36.5095 7.58447 36.5095 6.08447 36.5095 4.59489C34.9963 4.59489 33.504 4.59489 32.0743 4.59489Z" fill="#CB5F10"/>
</svg>
