<svg width="40" height="41" viewBox="0 0 40 41" fill="none" xmlns="http://www.w3.org/2000/svg">
<g clip-path="url(#clip0_2_1885)">
<path d="M38.8806 7.51968C38.8694 6.44705 38.0634 5.56437 37.0558 5.49733C36.2162 5.44146 35.399 5.45264 34.537 5.46381C34.1675 5.46381 33.7981 5.47498 33.4174 5.47498H33.3055V6.00012C33.3055 6.29063 33.3055 6.56995 33.3055 6.84928C33.2943 8.34649 32.186 9.47498 30.7306 9.47498C29.2865 9.47498 28.1782 8.33532 28.167 6.83811C28.167 6.55878 28.167 6.26828 28.167 5.98895V5.48616H22.5806V5.59789C22.5806 5.74314 22.5806 5.89956 22.5806 6.03364C22.5806 6.34649 22.5806 6.64817 22.5806 6.94984C22.5582 7.72079 22.2672 8.34649 21.7074 8.81576C20.8678 9.53085 19.9498 9.66493 18.9758 9.22917C18.0018 8.79342 17.4981 8.02247 17.4533 6.91632C17.4421 6.60347 17.4421 6.29063 17.4421 5.98895C17.4421 5.8437 17.4421 5.69845 17.4421 5.56437V5.45264H11.8557V5.9666C11.8557 6.24593 11.8557 6.50292 11.8557 6.77107C11.8445 8.31297 10.7474 9.46381 9.28086 9.46381H9.26967C7.81431 9.48616 6.71719 8.32414 6.706 6.80459C6.706 6.53644 6.706 6.26828 6.706 5.98895V5.47498H5.5641C4.81403 5.47498 4.08635 5.47498 3.34747 5.47498C2.01526 5.47498 1.11965 6.38001 1.10846 7.72079C1.11965 8.9275 1.11965 10.1565 1.11965 11.3409V11.8996C1.11965 11.9889 1.13085 12.0672 1.13085 12.1565C1.13085 12.1901 1.14204 12.2236 1.14204 12.2571L1.15324 12.3577H38.8806V12.2459C38.8806 11.7655 38.8806 11.2962 38.8806 10.8269C38.8918 9.74314 38.8918 8.62582 38.8806 7.51968Z" fill="#EBDDD2"/>
<rect x="0.430237" y="12.3671" width="39.1398" height="24.5161" rx="6" fill="white"/>
<path d="M6.62758 21.5531C6.92984 21.5643 7.23211 21.5531 7.52318 21.5531C7.65752 21.5531 7.79186 21.5531 7.9262 21.5531C7.9262 21.5531 7.9262 21.5531 7.9374 21.5531C8.07174 21.5531 8.21728 21.5531 8.35162 21.5531C8.65388 21.5531 8.96735 21.5531 9.26961 21.5531C9.9861 21.5419 10.5011 21.028 10.5123 20.3017C10.5235 19.6648 10.5235 19.0056 10.5123 18.3352C10.5011 17.609 9.9861 17.095 9.28081 17.0838C8.32923 17.0726 7.44482 17.0726 6.60519 17.0838C5.91109 17.095 5.39612 17.609 5.38492 18.3129C5.37373 18.9609 5.37373 19.6425 5.38492 20.324C5.38492 21.0391 5.8999 21.5419 6.62758 21.5531ZM6.50443 18.2235H9.37037V20.4134H6.50443V18.2235Z" fill="#CB5F10"/>
<path d="M14.632 21.5531C14.9343 21.5643 15.2478 21.5643 15.55 21.5531C15.6956 21.5531 15.8299 21.5531 15.9755 21.5531C16.1098 21.5531 16.2329 21.5531 16.3673 21.5531C16.6583 21.5531 16.9718 21.5531 17.2741 21.5531C18.0242 21.542 18.5391 21.0392 18.5503 20.3017C18.5615 19.6313 18.5615 18.961 18.5503 18.3353C18.5391 17.609 18.0242 17.1062 17.3077 17.095C16.8823 17.095 16.4456 17.0839 15.9978 17.0839C15.5612 17.0839 15.1134 17.0839 14.6656 17.095C13.9379 17.1062 13.423 17.609 13.4118 18.3241C13.4006 19.0057 13.4006 19.6872 13.4118 20.3353C13.423 21.0168 13.9379 21.542 14.632 21.5531ZM14.5313 18.2347H17.3972V20.4023H14.5313V18.2347Z" fill="#CB5F10"/>
<path d="M22.6589 21.5531C23.5545 21.5643 24.4725 21.5643 25.3793 21.5531C26.0622 21.542 26.5772 21.0168 26.5884 20.3241C26.5996 19.609 26.5996 18.9498 26.5884 18.3129C26.5772 17.6202 26.0622 17.1062 25.3569 17.095C25.0547 17.0839 24.7412 17.0839 24.4389 17.095C24.159 17.095 23.8792 17.095 23.6105 17.095C23.4761 17.095 23.3306 17.095 23.1963 17.095C23.0283 17.095 22.8604 17.095 22.6925 17.095C21.9872 17.1174 21.4722 17.609 21.461 18.3129C21.4498 19.0168 21.4498 19.7096 21.461 20.3576C21.4722 21.028 21.9872 21.542 22.6589 21.5531ZM22.5917 18.2347H25.4465V20.4135H22.5917V18.2347Z" fill="#CB5F10"/>
<path d="M30.7529 21.5532C31.0552 21.5643 31.3575 21.5532 31.6597 21.5532C31.7941 21.5532 31.9172 21.5532 32.0516 21.5532H32.0628C32.1971 21.5532 32.3426 21.5532 32.477 21.5532C32.7904 21.5532 33.1039 21.5532 33.4174 21.5532C34.1003 21.5308 34.604 21.028 34.6264 20.3576C34.6376 19.7096 34.6488 19.0392 34.6264 18.3129C34.6152 17.6202 34.0891 17.1062 33.395 17.095C32.4994 17.0839 31.5926 17.0839 30.7193 17.095C30.0253 17.1062 29.5103 17.6202 29.4879 18.3129C29.4767 18.9386 29.4767 19.5867 29.4879 20.3241C29.5103 21.028 30.0253 21.542 30.7529 21.5532ZM30.6298 18.2235H33.4845V20.4023H30.6298V18.2235Z" fill="#CB5F10"/>
<path d="M9.2585 23.1286C8.95624 23.1174 8.64278 23.1286 8.34051 23.1286C8.20617 23.1286 8.06063 23.1286 7.92629 23.1286C7.79195 23.1286 7.65761 23.1286 7.52327 23.1286C7.38893 23.1286 7.25459 23.1286 7.12025 23.1286C6.95232 23.1286 6.79559 23.1286 6.62766 23.1286C5.88879 23.1398 5.38501 23.6426 5.37381 24.3577C5.36262 25.0281 5.36262 25.6985 5.37381 26.3688C5.38501 27.0728 5.89998 27.5867 6.59408 27.5979C7.4449 27.6091 8.31812 27.6091 9.2697 27.5979C9.98619 27.5867 10.49 27.0728 10.5012 26.3465C10.5124 25.6873 10.5124 25.0281 10.5012 24.38C10.49 23.6538 9.97499 23.1398 9.2585 23.1286ZM9.35926 26.4471H6.51571V24.2683H9.37046V26.4471H9.35926Z" fill="#CB5F10"/>
<path d="M17.3302 23.1286C17.0279 23.1174 16.7144 23.1174 16.4122 23.1286C16.2778 23.1286 16.1323 23.1286 15.9979 23.1286C15.8524 23.1286 15.7181 23.1286 15.5725 23.1286C15.4382 23.1286 15.2926 23.1286 15.1471 23.1286C14.968 23.1286 14.8001 23.1286 14.6209 23.1398C13.938 23.1621 13.4343 23.6649 13.4119 24.3353C13.3895 25.0839 13.3895 25.7655 13.4119 26.4247C13.4343 27.0839 13.938 27.5867 14.5986 27.5979C15.5165 27.6202 16.4457 27.6202 17.3525 27.5979C18.0131 27.5867 18.5168 27.0839 18.5392 26.4247C18.5616 25.7655 18.5616 25.0839 18.5392 24.3353C18.528 23.6538 18.0131 23.151 17.3302 23.1286ZM17.3973 26.4582H14.5538V24.2571H17.4085V26.4582H17.3973Z" fill="#CB5F10"/>
<path d="M9.24731 29.1621C8.32931 29.1509 7.4449 29.1509 6.61647 29.1621C5.89998 29.1732 5.38501 29.6872 5.37381 30.4023C5.36262 31.028 5.36262 31.676 5.37381 32.3688C5.38501 33.1062 5.89998 33.609 6.65005 33.6202C6.95232 33.6202 7.25459 33.6202 7.54566 33.6202C7.68 33.6202 7.81434 33.6202 7.94868 33.6202C8.08302 33.6202 8.21736 33.6202 8.3517 33.6202C8.64277 33.6202 8.94504 33.6202 9.24731 33.6202C9.99738 33.609 10.5012 33.095 10.5124 32.3576C10.5235 31.7431 10.5235 31.1062 10.5124 30.4358C10.49 29.676 9.98618 29.1732 9.24731 29.1621ZM9.35926 32.5028H6.51571V30.3017H9.35926V32.5028Z" fill="#CB5F10"/>
<path d="M17.3412 29.1621C16.4456 29.1509 15.5276 29.1509 14.6208 29.1621C13.9379 29.1732 13.4342 29.676 13.4118 30.3576C13.4006 30.9833 13.4006 31.6537 13.4118 32.4023C13.423 33.095 13.9379 33.609 14.6432 33.6202C14.9567 33.6313 15.2702 33.6313 15.5724 33.6202C15.7068 33.6202 15.8411 33.6202 15.9754 33.6202C15.9866 33.6202 15.9978 33.6202 15.9978 33.6202C16.1322 33.6202 16.2777 33.6202 16.4121 33.6202C16.7143 33.6202 17.039 33.6202 17.3524 33.609C18.013 33.5866 18.5167 33.0839 18.5391 32.4358C18.5615 31.7878 18.5615 31.1062 18.5391 30.3464C18.5279 29.6872 18.0129 29.1732 17.3412 29.1621ZM17.3972 32.4917H14.5537V30.2906H17.3972V32.4917Z" fill="#CB5F10"/>
<path d="M9.37034 18.2235H6.50439V20.4135H9.37034V18.2235Z" fill="white"/>
<path d="M17.3971 18.2347H14.5312V20.4023H17.3971V18.2347Z" fill="white"/>
<path d="M25.4465 18.2347H22.5917V20.4135H25.4465V18.2347Z" fill="white"/>
<path d="M33.4845 18.2235H30.6298V20.4023H33.4845V18.2235Z" fill="white"/>
<path d="M9.37037 24.2571H6.51562V26.4359H9.37037V24.2571Z" fill="white"/>
<path d="M17.4084 24.2571H14.5536V26.4582H17.4084V24.2571Z" fill="white"/>
<path d="M9.35917 30.3018H6.51562V32.5029H9.35917V30.3018Z" fill="white"/>
<path d="M17.3972 30.3018H14.5536V32.5029H17.3972V30.3018Z" fill="white"/>
<path d="M22.6478 27.5867C22.9612 27.5867 23.1516 27.4415 23.2187 27.1621C23.2859 26.8828 23.1851 26.6705 22.9053 26.5364C22.8493 26.5141 22.7933 26.4917 22.7373 26.4694C22.715 26.4582 22.6814 26.447 22.659 26.4359L22.5918 26.4023V24.2347H22.7038C22.9724 24.2347 23.2299 24.2347 23.4874 24.2347C24.1143 24.2347 24.7077 24.2347 25.301 24.2347C25.6705 24.2347 25.9056 24.0225 25.9167 23.6873C25.9167 23.5308 25.872 23.3968 25.7712 23.2962C25.6705 23.1845 25.5137 23.1286 25.3346 23.1286C24.8644 23.1174 24.3718 23.1174 23.8792 23.1174C23.465 23.1174 23.0396 23.1174 22.6142 23.1286C21.9985 23.1398 21.4835 23.6314 21.4611 24.2459C21.4275 24.9722 21.4275 25.7208 21.4611 26.4582C21.4835 27.0727 22.0432 27.5979 22.6478 27.5867Z" fill="#CB5F10"/>
<path d="M35.399 28.961C35.3206 29.0168 35.2534 29.0839 35.1863 29.1509L35.1303 29.2068L34.4586 29.8772C33.4622 30.8716 32.4659 31.8772 31.4695 32.8716C31.1784 33.1621 30.8873 33.4638 30.5851 33.7878C30.4395 33.9442 30.2828 34.1006 30.1149 34.2794L30.0253 34.3688L29.947 34.2682C29.891 34.2012 29.8462 34.1453 29.8126 34.0895C29.7343 33.9889 29.6783 33.9107 29.6111 33.8436L29.32 33.5531C28.7827 33.0057 28.2229 32.4358 27.652 31.8995C27.5176 31.7654 27.3497 31.6984 27.1818 31.6984C27.1146 31.6984 27.0474 31.7096 26.9915 31.7319C26.8123 31.799 26.7004 31.9442 26.6892 32.1341C26.6668 32.3017 26.7788 32.5699 26.9355 32.7375C27.5624 33.3967 28.2229 34.0448 28.861 34.6816C29.0625 34.8827 29.2753 35.0839 29.4768 35.2962C29.7343 35.5531 29.9022 35.6537 30.0589 35.6537C30.2156 35.6537 30.3948 35.542 30.6522 35.285C32.4211 33.5196 34.1899 31.7543 35.9475 29.9889L35.9811 29.9554C36.0595 29.8772 36.1266 29.8101 36.1826 29.7207C36.3505 29.4638 36.3282 29.2291 36.1266 29.028C35.9139 28.7934 35.6676 28.771 35.399 28.961Z" fill="#CB5F10"/>
<path d="M39.1399 13.0123H0.645264L0.860317 6.56067L2.15064 5.0553H4.08612H37.6345L39.1399 6.99078V13.0123Z" fill="#EBDDD2"/>
<circle cx="31.398" cy="31.7219" r="7.74193" fill="#CB5F10"/>
<path d="M31.4247 23.1285H31.4135C26.6556 23.1397 22.7933 26.9721 22.7933 31.676C22.7933 36.5252 26.5885 40.3352 31.4247 40.3352C33.7085 40.3352 35.858 39.4414 37.4813 37.8101C39.1046 36.1788 40.0002 34.0112 40.0002 31.7095C40.0002 29.4302 39.1046 27.2738 37.4589 25.6425C35.8356 24.0112 33.6973 23.1285 31.4247 23.1285ZM36.6752 37.028C35.2535 38.4358 33.3951 39.2067 31.4247 39.2067H31.4135C29.4096 39.2067 27.5289 38.4246 26.1071 37.0056C24.6853 35.5866 23.9128 33.7095 23.9128 31.7207C23.9128 29.7095 24.6965 27.8213 26.1183 26.4135C27.5289 25.0056 29.432 24.2347 31.4471 24.2347C33.4175 24.2347 35.2758 25.0056 36.6752 26.4135C38.1082 27.8436 38.8919 29.7542 38.8807 31.7766C38.8695 33.7542 38.0858 35.6202 36.6752 37.028Z" fill="#CB5F10"/>
<path d="M36.6752 26.4246C35.2758 25.0168 33.4175 24.2458 31.4471 24.2458C29.432 24.2458 27.54 25.0168 26.1183 26.4246C24.6965 27.8324 23.924 29.7207 23.9128 31.7319C23.9128 33.7207 24.6853 35.5978 26.1071 37.0168C27.5288 38.4358 29.4096 39.2179 31.4135 39.2179H31.4247C33.3951 39.2179 35.2534 38.447 36.6752 37.0392C38.097 35.6313 38.8807 33.7654 38.8918 31.7989C38.8918 29.7654 38.1082 27.8548 36.6752 26.4246ZM26.6892 32.1341C26.7116 31.9442 26.8236 31.7878 26.9915 31.7319C27.0475 31.7095 27.1146 31.6984 27.1818 31.6984C27.3497 31.6984 27.5177 31.7654 27.652 31.8995C28.2117 32.447 28.7715 33.0056 29.3201 33.5531L29.6111 33.8436C29.6783 33.9107 29.7343 33.9889 29.8126 34.0894C29.8574 34.1453 29.9022 34.2012 29.947 34.2682L30.0254 34.3688L30.1149 34.2794C30.2828 34.1118 30.4396 33.9442 30.5851 33.7878C30.8874 33.4749 31.1784 33.1732 31.4695 32.8716C32.4659 31.866 33.4622 30.8716 34.4586 29.8771L35.1303 29.2067L35.1863 29.1509C35.2534 29.0838 35.3206 29.0168 35.399 28.9609C35.6677 28.771 35.9028 28.7933 36.1267 29.0168C36.3282 29.2291 36.3506 29.4637 36.1826 29.7095C36.1267 29.7878 36.0595 29.866 35.9811 29.9442L35.9475 29.9777C34.1787 31.7431 32.4211 33.5084 30.6523 35.2738C30.3948 35.5308 30.2157 35.6425 30.0589 35.6425C29.9022 35.6425 29.7231 35.5419 29.4768 35.285C29.2753 35.0838 29.0738 34.8827 28.8611 34.6704C28.2229 34.0336 27.5624 33.3855 26.9355 32.7263C26.79 32.5699 26.678 32.3017 26.6892 32.1341Z" fill="white"/>
<path d="M36.7088 4.35776C36.0483 4.35776 35.3766 4.35776 34.716 4.35776C34.4138 4.35776 34.1227 4.35776 33.8092 4.35776H33.2831V4.24603C33.2831 4.08961 33.2831 3.93318 33.2831 3.78793C33.2831 3.48625 33.2831 3.20692 33.2831 2.91642C33.2607 1.46391 32.13 0.324243 30.7194 0.324243C29.2976 0.324243 28.1669 1.46391 28.1557 2.91642C28.1557 3.20692 28.1557 3.5086 28.1557 3.7991C28.1557 3.93318 28.1557 4.07843 28.1557 4.21251V4.32424H22.5694V4.21251C22.5694 4.08961 22.5694 3.95553 22.5694 3.83262C22.5694 3.55329 22.5806 3.28514 22.5582 3.01698C22.547 2.70413 22.5246 2.41363 22.4351 2.1343C22.088 0.949941 20.9013 0.178991 19.6811 0.335416C18.4048 0.503014 17.4532 1.54212 17.4197 2.81586C17.4085 3.13988 17.4085 3.46391 17.4197 3.77676C17.4197 3.92201 17.4197 4.06726 17.4197 4.21251V4.32424H11.8333V4.21251C11.8333 4.05609 11.8333 3.91083 11.8333 3.76558C11.8333 3.44156 11.8333 3.13988 11.8333 2.82704C11.7997 1.43039 10.669 0.335416 9.26964 0.335416C9.26964 0.335416 9.26964 0.335416 9.25845 0.335416C7.85906 0.335416 6.72836 1.44156 6.69478 2.84938C6.68358 3.15106 6.69478 3.45273 6.69478 3.76558C6.69478 3.92201 6.69478 4.07843 6.69478 4.23486V4.34659H5.57527C4.86998 4.34659 4.17589 4.34659 3.48179 4.34659C1.34353 4.35776 0.00012207 5.69854 0.00012207 7.85497C0.00012207 16.6147 0.00012207 25.3633 0.00012207 34.1231C0.00012207 36.3019 1.34353 37.6427 3.51538 37.6427C7.70233 37.6427 11.8893 37.6427 16.0763 37.6427H21.6626H21.7522C21.8193 37.6427 21.8865 37.6427 21.9537 37.6427C22.3231 37.6315 22.5694 37.4192 22.5806 37.0952C22.5918 36.76 22.3455 36.5365 21.9537 36.5254C21.8641 36.5254 21.7857 36.5254 21.6962 36.5254H21.5842H15.8635C11.7326 36.5254 7.61277 36.5254 3.48179 36.5254C2.00404 36.5254 1.13082 35.6538 1.13082 34.1902C1.13082 29.1622 1.13082 24.1343 1.13082 19.1064V13.5421H38.8918V16.7376C38.8918 19.4416 38.8918 22.1455 38.8918 24.8494C38.8918 25.1175 38.959 25.5756 39.4404 25.5756C39.5859 25.5756 39.7202 25.5309 39.8098 25.4416C39.933 25.3187 40.0001 25.1175 40.0001 24.8606V21.3187C40.0001 16.8382 40.0001 12.2013 40.0001 7.64268C39.9889 5.77676 38.5784 4.36893 36.7088 4.35776ZM29.2752 2.94994C29.2864 2.10078 29.9022 1.46391 30.7082 1.45273C31.1 1.44156 31.4583 1.58681 31.727 1.85497C32.018 2.1343 32.1748 2.52536 32.1748 2.96111C32.186 4.17899 32.186 5.45273 32.1748 6.86055C32.1748 7.73206 31.5478 8.38011 30.7194 8.38011C29.9022 8.38011 29.2752 7.72089 29.2752 6.84938C29.2752 6.39128 29.2752 5.93318 29.2752 5.48625C29.2752 5.28514 29.2752 5.08402 29.2752 4.8829C29.2752 4.68178 29.2752 4.48067 29.2752 4.27955C29.2752 3.8438 29.2752 3.38569 29.2752 2.94994ZM18.5504 2.97229C18.5504 2.10078 19.1773 1.45273 20.0057 1.45273C20.8342 1.45273 21.4387 2.10078 21.4499 2.98346C21.4499 3.43039 21.4499 3.87731 21.4499 4.32424C21.4499 4.52536 21.4499 4.7153 21.4499 4.91642C21.4499 5.11754 21.4499 5.32983 21.4499 5.53095C21.4499 5.97787 21.4499 6.43597 21.4499 6.8829C21.4387 7.72089 20.823 8.36893 20.0169 8.36893C20.0057 8.36893 20.0057 8.36893 19.9945 8.36893C19.6139 8.36893 19.2557 8.22368 18.987 7.9667C18.6959 7.68737 18.5392 7.29631 18.5392 6.86055C18.5392 5.62033 18.5392 4.31307 18.5504 2.97229ZM7.82548 4.31307C7.82548 3.87732 7.82548 3.44156 7.82548 3.00581C7.83667 2.10078 8.44121 1.45273 9.28084 1.45273H9.29203C10.1205 1.45273 10.725 2.10078 10.7362 2.98346C10.7474 4.24603 10.7474 5.54212 10.7362 6.83821C10.7362 7.72089 10.1317 8.36893 9.29203 8.38011H9.28084C8.90021 8.38011 8.54196 8.23486 8.28448 7.97787C7.99341 7.68737 7.82548 7.28514 7.82548 6.81586C7.82548 6.36893 7.82548 5.92201 7.82548 5.47508V4.8829V4.31307ZM38.8806 10.827C38.8806 11.2963 38.8806 11.7768 38.8806 12.246V12.3578H1.15321L1.14202 12.2572C1.14202 12.2237 1.14202 12.1902 1.13082 12.1566C1.11963 12.0784 1.11963 11.989 1.11963 11.8997V11.341C1.11963 10.1566 1.11963 8.92759 1.11963 7.70972C1.11963 6.36894 2.02643 5.47508 3.35864 5.46391C4.08632 5.46391 4.8252 5.46391 5.57527 5.46391H6.71717V5.97787C6.71717 6.2572 6.71717 6.52536 6.71717 6.79352C6.71717 8.32424 7.81428 9.48625 9.25845 9.48625H9.26964C10.725 9.48625 11.8333 8.32424 11.8445 6.79352C11.8445 6.53653 11.8445 6.26838 11.8445 5.98905V5.47508H17.4309V5.58681C17.4309 5.73206 17.4309 5.87732 17.4309 6.01139C17.4309 6.31307 17.4197 6.63709 17.442 6.93877C17.4868 8.03374 18.0018 8.81586 18.9646 9.25162C19.9385 9.68737 20.8565 9.54212 21.6962 8.83821C22.2559 8.36893 22.547 7.73206 22.5694 6.97229C22.5806 6.67061 22.5806 6.36893 22.5694 6.05609C22.5694 5.91083 22.5694 5.76558 22.5694 5.62033V5.5086H28.1557V6.01139C28.1557 6.29072 28.1557 6.58123 28.1557 6.86055C28.1669 8.35776 29.2752 9.49743 30.7194 9.49743C32.1636 9.49743 33.2719 8.36893 33.2943 6.87173C33.2943 6.5924 33.2943 6.3019 33.2943 6.02257V5.49743H33.4062C33.7869 5.49743 34.1563 5.49743 34.5257 5.48625C35.3878 5.47508 36.2162 5.46391 37.0446 5.51977C38.0522 5.58681 38.8582 6.46949 38.8694 7.54212C38.8918 8.62592 38.8918 9.74324 38.8806 10.827Z" fill="#CB5F10"/>
<path d="M7.82553 6.81576C7.82553 7.27386 7.99346 7.68727 8.28453 7.97778C8.54202 8.23476 8.90026 8.38001 9.2809 8.38001H9.29209C10.1205 8.36884 10.7251 7.73197 10.7363 6.83811C10.7475 5.54202 10.7475 4.24593 10.7363 2.98336C10.7363 2.10068 10.1205 1.45264 9.29209 1.45264H9.2809C8.44126 1.45264 7.83673 2.10068 7.82553 3.00571C7.82553 3.44146 7.82553 3.87722 7.82553 4.31297V4.89398V5.48616C7.81434 5.92191 7.81434 6.36884 7.82553 6.81576Z" fill="white"/>
<path d="M18.9982 7.96655C19.2668 8.22353 19.6139 8.36878 20.0057 8.36878C20.0169 8.36878 20.0169 8.36878 20.0281 8.36878C20.8342 8.35761 21.4499 7.72074 21.4611 6.87157C21.4723 6.42465 21.4611 5.96655 21.4611 5.51962C21.4611 5.3185 21.4611 5.10621 21.4611 4.90509C21.4611 4.70398 21.4611 4.51403 21.4611 4.31291C21.4611 3.87716 21.4611 3.41906 21.4611 2.97213C21.4499 2.08945 20.8454 1.44141 20.0169 1.44141C19.1997 1.44141 18.5728 2.08945 18.5616 2.96096C18.5504 4.30174 18.5504 5.609 18.5616 6.8604C18.5504 7.29615 18.7071 7.68722 18.9982 7.96655Z" fill="white"/>
<path d="M29.2753 4.87156C29.2753 5.07268 29.2753 5.2738 29.2753 5.47492C29.2753 5.92184 29.2753 6.37994 29.2753 6.83804C29.2865 7.70955 29.9023 8.36877 30.7195 8.36877C31.5367 8.36877 32.1637 7.70955 32.1749 6.84922C32.1861 5.45257 32.1861 4.16765 32.1749 2.94978C32.1749 2.51402 32.0181 2.12296 31.7271 1.84363C31.4584 1.57547 31.1001 1.43022 30.7083 1.4414C29.9023 1.45257 29.2865 2.10061 29.2753 2.9386C29.2753 3.38553 29.2753 3.83246 29.2753 4.26821C29.2753 4.46933 29.2753 4.67045 29.2753 4.87156Z" fill="white"/>
</g>
<defs>
<clipPath id="clip0_2_1885">
<rect width="40" height="40" fill="white" transform="translate(0.00012207 0.324097)"/>
</clipPath>
</defs>
</svg>
