<svg width="40" height="41" viewBox="0 0 40 41" fill="none" xmlns="http://www.w3.org/2000/svg">
<path d="M23.3503 8.22632H20.4753V4.72632H25.1003L25.8503 6.72632H28.6003V8.22632V10.2263H23.3503V8.22632Z" fill="#EBDDD2" stroke="#CB5F10"/>
<path d="M39.3105 19.4436H30.4898V17.7402C30.4894 17.4914 30.355 17.2621 30.1381 17.1402L20.6898 11.8298V9.12637H22.5588V10.154C22.5588 10.5348 22.8676 10.8436 23.2485 10.8436H28.8829C29.2638 10.8434 29.5724 10.5346 29.5723 10.1537C29.5723 10.0739 29.5584 9.99465 29.5312 9.91948L28.9657 8.31258L29.5381 6.74016C29.6676 6.38197 29.4823 5.98663 29.1241 5.85715C29.049 5.82999 28.9698 5.81611 28.8898 5.81603H26.3243V4.81603C26.3243 4.43516 26.0155 4.12637 25.6347 4.12637H20.6898V3.28499C20.6898 2.90413 20.381 2.59534 20.0002 2.59534C19.6193 2.59534 19.3105 2.90413 19.3105 3.28499V11.8298L9.86225 17.1333C9.64536 17.2552 9.51096 17.4845 9.51053 17.7333V19.4367H0.689838C0.308976 19.4367 0.000183105 19.7455 0.000183105 20.1264V38.1678C0.000183105 38.5486 0.308976 38.8574 0.689838 38.8574H39.3105C39.6914 38.8574 40.0002 38.5486 40.0002 38.1678V20.1333C40.0002 19.7524 39.6914 19.4436 39.3105 19.4436ZM26.3243 8.43672L26.2967 8.40913V7.22292H27.8691L27.5864 8.10568C27.5299 8.2593 27.5299 8.42792 27.5864 8.58154L27.9105 9.4643H23.9381V9.12637H25.6347C26.0155 9.12637 26.3243 8.81758 26.3243 8.43672ZM20.6898 5.50568H24.945V6.53327V7.74706H20.6898V5.50568ZM9.51053 37.4781H1.37949V20.8229H9.51053V37.4781ZM19.3105 37.4781H15.6898V29.6022H19.3105V37.4781ZM24.3105 37.4781H20.6898V29.6022H24.3105V37.4781ZM29.1381 37.4781H25.6898V28.9126C25.6898 28.5317 25.381 28.2229 25.0002 28.2229H15.0002C14.6193 28.2229 14.3105 28.5317 14.3105 28.9126V37.4781H10.8623V18.1678L20.0002 13.0229L29.1105 18.1402L29.1381 20.1264V37.4781ZM38.6209 37.4781H30.4898V20.8229H38.6209V37.4781Z" fill="#CB5F10"/>
<path d="M20.0002 15.1333C18.4031 15.1371 17.1105 16.4328 17.1105 18.0299C17.1143 19.6258 18.4111 20.9164 20.0071 20.9126C21.603 20.9088 22.8936 19.612 22.8898 18.0161C22.8861 16.4229 21.5934 15.1333 20.0002 15.1333ZM20.0002 19.5333C19.1661 19.5295 18.4929 18.8502 18.4967 18.0161C18.5005 17.1874 19.1714 16.5164 20.0002 16.5126C20.8354 16.5164 21.5105 17.1946 21.5105 18.0299H21.5174C21.5136 18.864 20.8343 19.5371 20.0002 19.5333Z" fill="#CB5F10"/>
<path d="M4.42088 22.3402H3.04156V25.0988H4.42088V22.3402Z" fill="#CB5F10"/>
<path d="M7.8209 22.3402H6.44159V25.0988H7.8209V22.3402Z" fill="#CB5F10"/>
<path d="M15.7174 22.3402H12.9588V23.7195H15.7174V22.3402Z" fill="#CB5F10"/>
<path d="M21.3795 22.3402H18.6208V23.7195H21.3795V22.3402Z" fill="#CB5F10"/>
<path d="M27.0416 22.3402H24.283V23.7195H27.0416V22.3402Z" fill="#CB5F10"/>
<path d="M15.7174 25.554H12.9588V26.9333H15.7174V25.554Z" fill="#CB5F10"/>
<path d="M21.3795 25.554H18.6208V26.9333H21.3795V25.554Z" fill="#CB5F10"/>
<path d="M27.0416 25.554H24.283V26.9333H27.0416V25.554Z" fill="#CB5F10"/>
<path d="M4.42088 27.7677H3.04156V30.5263H4.42088V27.7677Z" fill="#CB5F10"/>
<path d="M7.8209 27.7677H6.44159V30.5263H7.8209V27.7677Z" fill="#CB5F10"/>
<path d="M4.42088 33.2023H3.04156V35.9609H4.42088V33.2023Z" fill="#CB5F10"/>
<path d="M7.8209 33.2023H6.44159V35.9609H7.8209V33.2023Z" fill="#CB5F10"/>
<path d="M33.5588 22.3402H32.1795V25.0988H33.5588V22.3402Z" fill="#CB5F10"/>
<path d="M36.9588 22.3402H35.5795V25.0988H36.9588V22.3402Z" fill="#CB5F10"/>
<path d="M33.5588 27.7677H32.1795V30.5263H33.5588V27.7677Z" fill="#CB5F10"/>
<path d="M36.9588 27.7677H35.5795V30.5263H36.9588V27.7677Z" fill="#CB5F10"/>
<path d="M33.5588 33.2023H32.1795V35.9609H33.5588V33.2023Z" fill="#CB5F10"/>
<path d="M36.9588 33.2023H35.5795V35.9609H36.9588V33.2023Z" fill="#CB5F10"/>
</svg>
