<svg width="41" height="41" viewBox="0 0 41 41" fill="none" xmlns="http://www.w3.org/2000/svg">
<rect x="3.62518" y="22.024" width="6.36377" height="16.25" fill="#EBDDD2"/>
<rect x="31.6252" y="22.024" width="6.36377" height="16.25" fill="#EBDDD2"/>
<rect x="14.7502" y="16.149" width="4" height="4" fill="#EBDDD2"/>
<rect x="22.7502" y="16.149" width="4" height="4" fill="#EBDDD2"/>
<rect x="21.7502" y="23.149" width="4" height="4" fill="#EBDDD2"/>
<rect x="14.7502" y="23.149" width="4" height="4" fill="#EBDDD2"/>
<path d="M3.87518 39.024V22.149H9.87518V39.024H3.87518Z" stroke="#CB5F10"/>
<path d="M0.613953 38.274H40.614V39.524H0.613953V38.274Z" fill="#CB5F10"/>
<path d="M4.36395 38.899H3.11395V21.399H9.98895V22.649H4.36395V38.899Z" fill="#CB5F10"/>
<path d="M38.114 38.899H36.864V22.649H31.239V21.399H38.114V38.899Z" fill="#CB5F10"/>
<path d="M31.864 38.899H30.614V8.27405H24.989V7.02405H31.864V38.899Z" fill="#CB5F10"/>
<path d="M10.614 38.899H9.36395V7.02405H16.239V8.27405H10.614V38.899Z" fill="#CB5F10"/>
<path d="M19.989 5.14905H21.239V10.149H19.989V5.14905Z" fill="#CB5F10"/>
<path d="M18.114 7.02405H23.114V8.27405H18.114V7.02405Z" fill="#CB5F10"/>
<path d="M25.614 12.649H15.614V2.64905H25.614V12.649ZM16.864 11.399H24.364V3.89905H16.864V11.399Z" fill="#CB5F10"/>
<path d="M25.614 38.899H24.364V32.649H16.864V38.899H15.614V31.399H25.614V38.899Z" fill="#CB5F10"/>
<path d="M19.364 28.274H14.364V23.274H19.364V28.274ZM15.614 27.024H18.114V24.524H15.614V27.024Z" fill="#CB5F10"/>
<path d="M26.864 28.274H21.864V23.274H26.864V28.274ZM23.114 27.024H25.614V24.524H23.114V27.024Z" fill="#CB5F10"/>
<path d="M19.364 20.774H14.364V15.774H19.364V20.774ZM15.614 19.524H18.114V17.024H15.614V19.524Z" fill="#CB5F10"/>
<path d="M26.864 20.774H21.864V15.774H26.864V20.774ZM23.114 19.524H25.614V17.024H23.114V19.524Z" fill="#CB5F10"/>
</svg>
