<svg width="40" height="41" viewBox="0 0 40 41" fill="none" xmlns="http://www.w3.org/2000/svg">
<path d="M14.247 20.2559L11.551 34.0438H18.1752L18.1754 20.2559H14.247Z" fill="#EBDDD2"/>
<path d="M16.0552 7.27148L14.7072 14.1655H18.0194L18.0195 7.27148H16.0552Z" fill="#EBDDD2"/>
<path d="M25.4795 20.2559L28.1755 34.0438H21.5512L21.5511 20.2559H25.4795Z" fill="#EBDDD2"/>
<path d="M23.5414 7.27148L24.8895 14.1655H21.5773L21.5772 7.27148H23.5414Z" fill="#EBDDD2"/>
<path d="M38.0963 30.6851C38.4199 30.6851 38.6822 30.4228 38.6822 30.0992V4.11094C38.6822 2.28836 37.1995 0.805664 35.377 0.805664H4.62382C2.80124 0.805664 1.31854 2.28836 1.31854 4.11094V37.5005C1.31854 39.323 2.80124 40.8057 4.62382 40.8057H35.377C37.1995 40.8057 38.6822 39.323 38.6822 37.5005V32.8214C38.6822 32.4978 38.42 32.2355 38.0964 32.2355C37.7727 32.2355 37.5105 32.4978 37.5105 32.8214V37.5005C37.5105 38.6769 36.5535 39.634 35.377 39.634H4.62382C3.44741 39.634 2.49027 38.677 2.49027 37.5005V4.11094C2.49027 2.93445 3.44733 1.97739 4.62382 1.97739H35.377C36.5535 1.97739 37.5105 2.93445 37.5105 4.11094V30.0992C37.5104 30.4228 37.7727 30.6851 38.0963 30.6851Z" fill="#CB5F10"/>
<path d="M34.1088 3.70361H5.89203C4.94958 3.70361 4.1828 4.47039 4.1828 5.41285V36.1985C4.1828 37.1409 4.94958 37.9077 5.89203 37.9077H34.1087C35.0512 37.9077 35.8179 37.1409 35.8179 36.1985V5.41285C35.8179 4.47039 35.0512 3.70361 34.1088 3.70361ZM34.6462 36.1986C34.6462 36.4949 34.4051 36.7361 34.1087 36.7361H5.89203C5.59566 36.7361 5.35452 36.4949 5.35452 36.1986V5.41285C5.35452 5.11648 5.59566 4.87534 5.89203 4.87534H34.1087C34.4051 4.87534 34.6462 5.11648 34.6462 5.41285V36.1986Z" fill="#CB5F10"/>
<path d="M32.4553 14.9891H17.2222C16.8986 14.9891 16.6363 15.2514 16.6363 15.575C16.6363 15.8985 16.8986 16.1609 17.2222 16.1609H32.26V17.6919H31.3112C30.9876 17.6919 30.7254 17.9542 30.7254 18.2778V20.8913H29.3954V18.2778C29.3954 17.9542 29.1332 17.6919 28.8095 17.6919H11.1912C10.8677 17.6919 10.6054 17.9542 10.6054 18.2778V20.8913H9.2754V18.2778C9.2754 17.9542 9.01309 17.6919 8.68954 17.6919H7.74075V16.1609H14.4849C14.8084 16.1609 15.0707 15.8985 15.0707 15.575C15.0707 15.2514 14.8084 14.9891 14.4849 14.9891H7.54547C7.00702 14.9891 6.56903 15.4271 6.56903 15.9656V17.8872C6.56903 18.4256 7.00702 18.8636 7.54547 18.8636H8.1036V21.0866C8.1036 21.625 8.54159 22.063 9.08004 22.063H10.8006C11.339 22.063 11.777 21.625 11.777 21.0866V18.8636H28.2236V21.0866C28.2236 21.625 28.6616 22.063 29.2 22.063H30.9206C31.459 22.063 31.897 21.625 31.897 21.0866V18.8636H32.4552C32.9937 18.8636 33.4317 18.4256 33.4317 17.8872V15.9656C33.4317 15.4271 32.9937 14.9891 32.4553 14.9891Z" fill="#CB5F10"/>
<path d="M18.1967 19.7263H14.4783C14.0184 19.7263 13.6165 20.053 13.5225 20.5031L10.6826 34.0974C10.6223 34.3865 10.6945 34.6837 10.8807 34.9128C11.0669 35.1419 11.3432 35.2734 11.6384 35.2734H18.1967C18.7352 35.2734 19.1732 34.8354 19.1732 34.2969V20.7028C19.1732 20.1644 18.7351 19.7263 18.1967 19.7263ZM18.0014 34.1017H11.8788L14.637 20.898H18.0014V34.1017Z" fill="#CB5F10"/>
<path d="M26.4781 20.503C26.384 20.053 25.982 19.7263 25.5223 19.7263H21.8038C21.2653 19.7263 20.8273 20.1643 20.8273 20.7028V34.2969C20.8273 34.8354 21.2653 35.2734 21.8038 35.2734H28.3621C28.6573 35.2734 28.9335 35.1419 29.1198 34.9128C29.306 34.6836 29.3783 34.3864 29.3179 34.0973L26.4781 20.503ZM21.9991 34.1017V20.898H25.3635L28.1218 34.1017H21.9991Z" fill="#CB5F10"/>
<path d="M15.3381 14.1655H18.197C18.7354 14.1655 19.1734 13.7275 19.1734 13.189V7.31433C19.1734 6.77588 18.7354 6.33789 18.197 6.33789H16.3713C15.8962 6.33789 15.4918 6.67738 15.4096 7.14513L14.3764 13.0199C14.3263 13.3048 14.4042 13.5953 14.5902 13.8168C14.7762 14.0385 15.0488 14.1655 15.3381 14.1655ZM16.5351 7.50961H18.0016V12.9938H15.5706L16.5351 7.50961Z" fill="#CB5F10"/>
<path d="M21.8038 14.1655H24.6627C24.952 14.1655 25.2245 14.0385 25.4106 13.817C25.5966 13.5954 25.6745 13.3049 25.6244 13.02L24.5911 7.14541C24.509 6.67758 24.1046 6.33801 23.6295 6.33801H21.8038C21.2653 6.33801 20.8273 6.776 20.8273 7.31445V13.1892C20.8273 13.7275 21.2654 14.1655 21.8038 14.1655ZM21.9991 7.50966H23.4655L24.4301 12.9938H21.9991V7.50966Z" fill="#CB5F10"/>
</svg>
