<svg width="34" height="34" viewBox="0 0 34 34" fill="none" xmlns="http://www.w3.org/2000/svg">
<g clip-path="url(#clip0_2_1799)">
<path d="M29.2097 7.13204L22.3347 0.257019C22.2058 0.128113 22.0312 0.055603 21.8486 0.055603H7.41109C5.89444 0.055603 4.66113 1.28891 4.66113 2.80562V30.3056C4.66113 31.8223 5.89444 33.0556 7.41115 33.0556H26.6612C28.1778 33.0556 29.4111 31.8223 29.4111 30.3056V7.61808C29.4111 7.43549 29.3386 7.26095 29.2097 7.13204ZM22.5361 2.40279L27.0639 6.93062H23.9111C23.1531 6.93062 22.5361 6.31361 22.5361 5.55565V2.40279ZM28.0362 30.3056C28.0362 31.0636 27.4191 31.6806 26.6612 31.6806H7.41115C6.65319 31.6806 6.03618 31.0636 6.03618 30.3056V2.80562C6.03618 2.04766 6.65319 1.43065 7.41115 1.43065H21.1611V5.55565C21.1611 7.07229 22.3944 8.3056 23.9112 8.3056H28.0362V30.3056Z" fill="#CB5F10"/>
<path d="M20.5414 20.2381C19.9049 19.7372 19.3 19.2223 18.8972 18.8195C18.3735 18.2958 17.9069 17.7883 17.5014 17.3049C18.1339 15.3504 18.4112 14.3427 18.4112 13.8056C18.4112 11.5235 17.5867 11.0555 16.3487 11.0555C15.408 11.0555 14.2862 11.5443 14.2862 13.8714C14.2862 14.8973 14.8481 16.1427 15.962 17.5902C15.6894 18.422 15.3691 19.3815 15.0093 20.4631C14.836 20.982 14.6481 21.4627 14.4493 21.9072C14.2875 21.9791 14.1304 22.0522 13.9787 22.1281C13.4322 22.4014 12.9132 22.647 12.4318 22.8753C10.2363 23.9146 8.78613 24.6022 8.78613 25.9597C8.78613 26.9453 9.85702 27.5555 10.8486 27.5555C12.1269 27.5555 14.0572 25.8482 15.4671 22.972C16.9307 22.3946 18.7502 21.9669 20.1863 21.699C21.337 22.5839 22.608 23.4305 23.2236 23.4305C24.9283 23.4305 25.2861 22.4449 25.2861 21.6184C25.2861 19.993 23.429 19.993 22.5361 19.993C22.2588 19.9931 21.515 20.075 20.5414 20.2381ZM10.8486 26.1806C10.4559 26.1806 10.19 25.9953 10.1611 25.9597C10.1611 25.4722 11.6147 24.7834 13.0206 24.1174C13.1098 24.0751 13.2005 24.0328 13.2925 23.9892C12.2599 25.4864 11.2387 26.1806 10.8486 26.1806ZM15.6612 13.8714C15.6612 12.4306 16.1083 12.4306 16.3487 12.4306C16.8348 12.4306 17.0362 12.4306 17.0362 13.8056C17.0362 14.0956 16.8428 14.8207 16.489 15.9527C15.9491 15.1215 15.6612 14.4092 15.6612 13.8714ZM16.1882 21.2607C16.2312 21.1412 16.2728 21.0203 16.3131 20.8981C16.5682 20.1327 16.7978 19.4452 17.0026 18.8262C17.288 19.1404 17.5955 19.462 17.9251 19.7916C18.054 19.9206 18.3736 20.2106 18.7993 20.5738C17.9519 20.7584 17.0502 20.9874 16.1882 21.2607ZM23.9112 21.6185C23.9112 21.9274 23.9112 22.0556 23.2733 22.0596C23.086 22.0193 22.653 21.7642 22.1185 21.4003C22.3125 21.3789 22.4555 21.3681 22.5361 21.3681C23.552 21.3681 23.84 21.4674 23.9112 21.6185Z" fill="#CB5F10"/>
</g>
<defs>
<clipPath id="clip0_2_1799">
<rect width="33" height="33" fill="white" transform="translate(0.536133 0.055603)"/>
</clipPath>
</defs>
</svg>
