<svg width="15" height="16" viewBox="0 0 15 16" fill="none" xmlns="http://www.w3.org/2000/svg">
<g clip-path="url(#clip0_2_1722)">
<path d="M7.5 0.386475C4.50454 0.386475 2.06757 2.82345 2.06757 5.81888C2.06757 9.5363 6.92906 14.9937 7.13604 15.2242C7.33046 15.4407 7.66989 15.4404 7.86395 15.2242C8.07094 14.9937 12.9324 9.5363 12.9324 5.81888C12.9324 2.82345 10.4954 0.386475 7.5 0.386475ZM7.5 8.55207C5.99291 8.55207 4.76683 7.32597 4.76683 5.81888C4.76683 4.31179 5.99294 3.08571 7.5 3.08571C9.00706 3.08571 10.2331 4.31182 10.2331 5.81891C10.2331 7.326 9.00706 8.55207 7.5 8.55207Z" fill="#CB5F10"/>
</g>
<defs>
<clipPath id="clip0_2_1722">
<rect width="15" height="15" fill="white" transform="translate(0 0.386475)"/>
</clipPath>
</defs>
</svg>
