<svg width="14" height="17" viewBox="0 0 14 17" fill="none" xmlns="http://www.w3.org/2000/svg">
<g clip-path="url(#clip0_2_1215)">
<path d="M0.25 7.36887C0.2553 4.07001 2.57124 1.39553 5.72982 0.896021C9.21698 0.344476 12.5399 2.66513 13.144 6.08367C13.4938 8.06611 13.0062 9.84042 11.6813 11.3754C10.1815 13.1185 8.66052 14.8407 7.14482 16.5682C6.85864 16.8908 6.63606 16.8908 6.34988 16.563C4.81828 14.8147 3.28139 13.0716 1.7657 11.3077C0.753465 10.137 0.271199 8.75814 0.25 7.36887ZM6.75265 15.7929C6.82684 15.7097 6.88514 15.6472 6.93814 15.5848C8.31074 14.0186 9.68335 12.4525 11.0507 10.8811C12.1795 9.58025 12.6299 8.06611 12.3756 6.38025C11.9145 3.27911 8.9679 1.17179 5.80402 1.70773C3.65766 2.07196 2.15787 3.30513 1.41592 5.31358C0.673971 7.33245 1.06084 9.21082 2.44935 10.8655C3.1383 11.6876 3.85905 12.4837 4.5692 13.2954C5.28995 14.1227 6.0107 14.9448 6.75265 15.7929Z" fill="#A05E2A"/>
<path d="M6.74219 4.41334C8.27909 4.39253 9.5722 5.64131 9.59869 7.17107C9.62519 8.71123 8.35858 9.99123 6.78459 10.012C5.2212 10.0329 3.92809 8.78407 3.90689 7.2335C3.89099 5.69855 5.1523 4.43416 6.74219 4.41334ZM6.73689 9.20554C7.87631 9.20554 8.77725 8.32619 8.77725 7.20749C8.77725 6.1044 7.87101 5.21985 6.74219 5.21985C5.62927 5.21985 4.72303 6.1044 4.71773 7.20229C4.71773 8.31058 5.61867 9.20554 6.73689 9.20554Z" fill="#A05E2A"/>
</g>
<defs>
<clipPath id="clip0_2_1215">
<rect width="13" height="16" fill="white" transform="translate(0.25 0.812744)"/>
</clipPath>
</defs>
</svg>
