<svg width="72" height="30" viewBox="0 0 72 30" fill="none" xmlns="http://www.w3.org/2000/svg">
<path d="M12.5327 10.0637V14.6381L15.8151 11.4177V10.3902L12.5327 10.0637Z" fill="#155797"/>
<path d="M21.3225 6.70923L8.84223 19.7364H11.0988V23.4989L0 26.2267L12.2961 24.1574V17.808L21.7832 7.97851L21.3225 6.70923Z" fill="#155797"/>
<path d="M20.0406 16.5L20.0808 14.8031L21.7402 14.8443L21.6999 16.5412L20.0406 16.5Z" fill="#7498E6"/>
<path d="M54.2959 19.9904L54.3664 18.578L55.7476 18.65L55.6772 20.0625L54.2959 19.9904Z" fill="#7498E6"/>
<path d="M19.9917 18.5749L20.032 16.878L21.6914 16.9192L21.6511 18.6161L19.9917 18.5749Z" fill="#7498E6"/>
<path d="M55.9566 21.8713L56.027 20.4588L57.4083 20.5309L57.3378 21.9433L55.9566 21.8713Z" fill="#7498E6"/>
<path d="M22.02 18.6247L22.0603 16.9278L23.7197 16.969L23.6794 18.6659L22.02 18.6247Z" fill="#7498E6"/>
<path d="M54.2071 21.7793L54.2775 20.3668L55.6588 20.4389L55.5883 21.8513L54.2071 21.7793Z" fill="#7498E6"/>
<path d="M22.0684 16.5503L22.1086 14.8534L23.768 14.8946L23.7278 16.5914L22.0684 16.5503Z" fill="#7498E6"/>
<path d="M56.0464 20.0815L56.1169 18.6691L57.4981 18.7411L57.4277 20.1535L56.0464 20.0815Z" fill="#7498E6"/>
<path d="M22.0815 6.09912L32.9451 10.9174L39.8497 20.6471H40.4019L47.2609 12.7885L56.0991 10.4964L47.0768 20.4601V21.9571L32.8066 21.115V20.039L22.0815 6.09912Z" fill="#759BE9"/>
<path d="M41.6945 2.98941L54.6071 0L41.0032 15.553L37.2214 15.2725L34.3159 11.0695L41.6945 2.98941Z" fill="#759BE9"/>
<path d="M60.5752 6.4043V7.33811L63.3779 11.5886L63.5592 6.73098L60.5752 6.4043Z" fill="#155797"/>
<path d="M55.6264 0.609863L54.6069 1.64339L63.597 15.4085V17.8048L66.8413 17.9926L55.6264 0.609863Z" fill="#155797"/>
<path d="M37.612 25.0068C36.5844 25.0068 35.5508 25.0235 34.5109 25.0569C15.3979 25.6841 0 29.1583 0 29.1583C0 29.1583 15.44 26.9828 34.553 26.3549C35.8948 26.3108 37.2251 26.2894 38.5439 26.2906C56.0143 26.2906 71.0191 29.8862 71.0191 29.8862C71.0191 29.8862 55.4647 25.0062 37.612 25.0068Z" fill="#155797"/>
<path d="M57.3566 10.9785L56.3975 12.0133L62.7934 21.6091V26.7832L70.4222 29.2762L63.1582 26.2189L63.3414 23.5378H65.6257L57.3566 10.9785Z" fill="#155797"/>
</svg>
