<svg width="71" height="31" viewBox="0 0 71 31" fill="none" xmlns="http://www.w3.org/2000/svg">
<g clip-path="url(#clip0_2_242)">
<path d="M12.5503 10.457V15.2034L15.8493 11.8661V10.8278L12.5503 10.457Z" fill="#3C7670"/>
<path d="M21.3 6.97119L8.82121 20.4688H11.0444V24.3994L0 27.2176L12.2636 25.0669V18.4664L21.7303 8.23196L21.3 6.97119Z" fill="#3C7670"/>
<path d="M20.0093 17.1315L20.081 15.3516L21.7305 15.4257L21.6588 17.2056L20.0093 17.1315Z" fill="#9AC496"/>
<path d="M54.29 20.7655L54.3618 19.2822L55.7244 19.3564L55.6527 20.8396L54.29 20.7655Z" fill="#9AC496"/>
<path d="M20.0093 19.2823L20.081 17.5024L21.7305 17.5766L21.6588 19.3565L20.0093 19.2823Z" fill="#9AC496"/>
<path d="M55.9395 22.6937L56.0112 21.2104L57.3738 21.2846L57.3021 22.7679L55.9395 22.6937Z" fill="#9AC496"/>
<path d="M22.0171 19.3566L22.0888 17.5767L23.7383 17.6508L23.6666 19.3566H22.0171Z" fill="#9AC496"/>
<path d="M54.2183 22.6195L54.29 21.1362L55.6526 21.2104L55.5809 22.6936L54.2183 22.6195Z" fill="#9AC496"/>
<path d="M22.0889 17.2057L22.1606 15.4258L23.8101 15.4999L23.7384 17.2798L22.0889 17.2057Z" fill="#9AC496"/>
<path d="M56.083 20.8397L56.1547 19.3564L57.5174 19.4306L57.4456 20.9139L56.083 20.8397Z" fill="#9AC496"/>
<path d="M22.0889 6.30371L32.9899 11.2726L39.8747 21.3587H40.4485L47.3333 13.2008L56.1545 10.8276L47.1182 21.2104V22.7678L32.8464 21.8779V20.7654L22.0889 6.30371Z" fill="#9AC496"/>
<path d="M41.6676 3.11483L54.5767 0L40.9504 16.1675L37.1494 15.8708L34.209 11.4952L41.6676 3.11483Z" fill="#9AC496"/>
<path d="M60.6011 6.67456V7.63868L63.398 12.0884L63.6132 7.04537L60.6011 6.67456Z" fill="#3C7670"/>
<path d="M55.6525 0.66748L54.6484 1.70576L63.6131 16.0192V18.5407L66.8404 18.7632L55.6525 0.66748Z" fill="#3C7670"/>
<path d="M37.6515 25.957C36.6475 25.957 35.5717 25.957 34.5677 26.0312C15.4192 26.6987 0 30.2585 0 30.2585C0 30.2585 15.4192 28.0336 34.5677 27.3661C35.9303 27.292 37.2212 27.292 38.5838 27.292C56.0828 27.292 71.0717 31.0001 71.0717 31.0001C71.0717 31.0001 55.5091 25.957 37.6515 25.957Z" fill="#3C7670"/>
<path d="M57.3737 11.4211L56.4414 12.4594L62.8242 22.3972V27.7369L70.4262 30.4068L63.1828 27.2178L63.398 24.3996H65.6929L57.3737 11.4211Z" fill="#3C7670"/>
</g>
<defs>
<clipPath id="clip0_2_242">
<rect width="71" height="31" fill="white"/>
</clipPath>
</defs>
</svg>
