<svg width="76" height="68" viewBox="0 0 76 68" fill="none" xmlns="http://www.w3.org/2000/svg">
<path d="M31.6938 66.9021H64.7991V38.3447L48.2041 27.868L31.6938 38.3447V66.9021Z" fill="#EBDDD2"/>
<path d="M64.7991 67.747H31.6938C31.1858 67.747 30.8472 67.409 30.8472 66.9021V38.3447C30.8472 38.0912 31.0165 37.7533 31.2705 37.6688L47.8655 27.1921C48.1195 27.0231 48.4582 27.0231 48.7968 27.1921L65.3918 37.6688C65.6458 37.8378 65.8151 38.0912 65.8151 38.3447V66.9021C65.6458 67.3245 65.3071 67.747 64.7991 67.747ZM32.5405 66.0572H64.0371V38.8516L48.2041 28.8819L32.5405 38.8516V66.0572Z" fill="#CB5F10"/>
<path d="M42.8397 57.5681L53.6772 57.5681L53.6772 44.3032L42.8397 44.3032L42.8397 57.5681Z" fill="white"/>
<path d="M53.6232 58.3686H42.7856C42.2776 58.3686 41.939 58.0306 41.939 57.5237V44.2589C41.939 43.752 42.2776 43.414 42.7856 43.414H53.6232C54.1312 43.414 54.4699 43.752 54.4699 44.2589V57.5237C54.4699 58.0306 54.1312 58.3686 53.6232 58.3686ZM43.6323 56.6788H52.7765V45.1038H43.6323V56.6788Z" fill="#CB5F10"/>
<path d="M48.2046 57.8617C47.6966 57.8617 47.3579 57.5237 47.3579 57.0168V44.2589C47.3579 43.752 47.6966 43.414 48.2046 43.414C48.7126 43.414 49.0513 43.752 49.0513 44.2589V57.0168C49.0513 57.4392 48.7126 57.8617 48.2046 57.8617Z" fill="#CB5F10"/>
<path d="M53.6232 54.6511H42.7856C42.2776 54.6511 41.939 54.3131 41.939 53.8062C41.939 53.2993 42.2776 52.9613 42.7856 52.9613H53.5385C54.0465 52.9613 54.3852 53.2993 54.3852 53.8062C54.3852 54.3131 54.0465 54.6511 53.6232 54.6511Z" fill="#CB5F10"/>
<path d="M26.106 39.0206L48.035 22.3762H48.3737L70.3874 39.0206L67.5934 42.6536L48.2044 28.037L28.8153 42.6536L26.106 39.0206Z" fill="white"/>
<path d="M28.8154 43.4985H28.7307C28.4767 43.4985 28.3074 43.3295 28.138 43.1606L25.344 39.5275C25.09 39.1896 25.1746 38.5981 25.5133 38.3447L47.527 21.7003C47.6964 21.6158 47.8657 21.5313 48.0351 21.5313H48.3737C48.5431 21.5313 48.7124 21.6158 48.8817 21.7003L70.8955 38.3447C71.2341 38.5981 71.3188 39.1896 71.0648 39.5275L68.2707 43.1606C68.1014 43.3295 67.9321 43.4985 67.6781 43.4985C67.4241 43.4985 67.2547 43.4985 67.0854 43.3295L48.2044 29.0509L29.3234 43.3295C29.2387 43.4985 28.9847 43.4985 28.8154 43.4985ZM27.2913 39.1896L29.0694 41.4708L47.781 27.2766C48.1197 27.0231 48.5431 27.0231 48.7971 27.2766L67.5087 41.4708L69.2868 39.1896L48.2044 23.3056L27.2913 39.1896Z" fill="#CB5F10"/>
<path d="M20.6026 14.4343H8.74902V66.9021H20.6026V14.4343Z" fill="white"/>
<path d="M20.6026 67.747H8.74903C8.24102 67.747 7.90234 67.409 7.90234 66.9021V14.4342C7.90234 13.9273 8.24102 13.5894 8.74903 13.5894H20.6026C21.1106 13.5894 21.4493 13.9273 21.4493 14.4342V66.9021C21.4493 67.3245 21.0259 67.747 20.6026 67.747ZM9.59571 66.0572H19.7559V15.2791H9.59571V66.0572Z" fill="#CB5F10"/>
<path d="M74.1978 19.6725H65.3076V28.5439H74.1978V19.6725Z" fill="white"/>
<path d="M74.1131 29.3044H65.3076C64.7996 29.3044 64.4609 28.9664 64.4609 28.4595V19.6726C64.4609 19.1657 64.7996 18.8277 65.3076 18.8277H74.1978C74.7058 18.8277 75.0445 19.1657 75.0445 19.6726V28.544C74.9598 28.9664 74.6211 29.3044 74.1131 29.3044ZM66.1543 27.6146H73.3511V20.433H66.1543V27.6146Z" fill="#CB5F10"/>
<path d="M20.4494 20.2061L14.6421 14.4111L8.83481 20.2061L14.6421 26.0012L20.4494 20.2061Z" fill="white"/>
<path d="M14.6761 26.8542C14.4221 26.8542 14.2528 26.7697 14.0834 26.6007L8.24131 20.771C7.90264 20.433 7.90264 19.9261 8.24131 19.5881L14.0834 13.7584C14.4221 13.4204 14.9301 13.4204 15.2688 13.7584L21.1109 19.5881C21.4495 19.9261 21.4495 20.433 21.1109 20.771L15.2688 26.6007C15.0994 26.7697 14.8454 26.8542 14.6761 26.8542ZM10.0193 20.264L14.6761 24.9109L19.3328 20.264L14.6761 15.6171L10.0193 20.264Z" fill="#CB5F10"/>
<path d="M20.4777 31.8771L14.6704 26.0821L8.86313 31.8771L14.6704 37.6721L20.4777 31.8771Z" fill="white"/>
<path d="M14.6761 38.5981C14.4221 38.5981 14.2528 38.5137 14.0834 38.3447L8.24131 32.5149C7.90264 32.177 7.90264 31.67 8.24131 31.3321L14.0834 25.5023C14.4221 25.1644 14.9301 25.1644 15.2688 25.5023L21.1109 31.3321C21.4495 31.67 21.4495 32.177 21.1109 32.5149L15.2688 38.3447C15.0994 38.5137 14.8454 38.5981 14.6761 38.5981ZM10.0193 31.9235L14.6761 36.5704L19.3328 31.9235L14.6761 27.2766L10.0193 31.9235Z" fill="#CB5F10"/>
<path d="M20.4455 43.6079L14.6382 37.8129L8.8309 43.6079L14.6382 49.4029L20.4455 43.6079Z" fill="white"/>
<path d="M14.6761 50.2577C14.4221 50.2577 14.2528 50.1732 14.0834 50.0042L8.24131 44.1745C8.07197 44.0055 7.9873 43.8365 7.9873 43.583C7.9873 43.3296 8.07197 43.1606 8.24131 42.9916L14.0834 37.1619C14.4221 36.8239 14.9301 36.8239 15.2688 37.1619L21.1109 42.9916C21.2802 43.1606 21.3649 43.3296 21.3649 43.583C21.3649 43.8365 21.2802 44.0055 21.1109 44.1745L15.2688 50.0042C15.0994 50.1732 14.8454 50.2577 14.6761 50.2577ZM10.0193 43.583L14.6761 48.23L19.3328 43.583L14.6761 38.9361L10.0193 43.583Z" fill="#CB5F10"/>
<path d="M20.4645 55.1906L14.6572 49.3956L8.84994 55.1906L14.6572 60.9856L20.4645 55.1906Z" fill="white"/>
<path d="M14.6761 61.9172C14.4221 61.9172 14.2528 61.8327 14.0834 61.6638L8.24131 55.834C8.07197 55.665 7.9873 55.496 7.9873 55.2426C7.9873 54.9891 8.07197 54.8201 8.24131 54.6512L14.0834 48.8214C14.4221 48.4834 14.9301 48.4834 15.2688 48.8214L21.1109 54.6512C21.2802 54.8201 21.3649 54.9891 21.3649 55.2426C21.3649 55.496 21.2802 55.665 21.1109 55.834L15.2688 61.6638C15.0994 61.7483 14.8454 61.9172 14.6761 61.9172ZM10.0193 55.2426L14.6761 59.8895L19.3328 55.2426L14.6761 50.5957L10.0193 55.2426Z" fill="#CB5F10"/>
<path d="M8.91847 67.7469C8.5798 67.7469 8.24113 67.578 8.15646 67.24C7.98712 66.902 8.07179 66.5641 8.32579 66.3106L14.0832 60.5654C14.4219 60.2274 14.9299 60.2274 15.2686 60.5654L21.026 66.3106C21.28 66.5641 21.3647 66.902 21.1954 67.24C21.026 67.578 20.772 67.7469 20.4333 67.7469H8.91847ZM14.6759 62.3396L10.9505 66.0572H18.4013L14.6759 62.3396Z" fill="#CB5F10"/>
<path d="M14.6752 15.2785H1.80568C1.46701 15.2785 1.12833 15.1095 1.04367 14.7716C0.874329 14.4336 0.958997 14.0956 1.213 13.8422L14.0826 0.999811C14.3366 0.746343 14.6752 0.661854 15.0139 0.830833C15.3526 0.915322 15.5219 1.25328 15.5219 1.59124V14.4336C15.5219 14.8561 15.1833 15.2785 14.6752 15.2785ZM3.83772 13.5887H13.8286V3.61898L3.83772 13.5887Z" fill="#CB5F10"/>
<path d="M69.7101 15.2791H14.6758C14.1678 15.2791 13.8291 14.9411 13.8291 14.4342V1.59184C13.8291 1.33837 13.9138 1.08491 14.1678 0.915927C14.4218 0.746948 14.6758 0.746948 14.8451 0.746948L69.8794 13.5893C70.3028 13.6738 70.5568 14.0963 70.5568 14.5187C70.5568 14.9411 70.1334 15.2791 69.7101 15.2791ZM15.5225 13.5893H62.344L15.5225 2.6902V13.5893Z" fill="#CB5F10"/>
<path d="M69.71 22.2073C69.202 22.2073 68.8633 21.8693 68.8633 21.3624V14.4342C68.8633 13.9273 69.202 13.5894 69.71 13.5894C70.218 13.5894 70.5566 13.9273 70.5566 14.4342V21.3624C70.5566 21.7848 70.218 22.2073 69.71 22.2073Z" fill="#CB5F10"/>
</svg>
