<svg width="52" height="69" viewBox="0 0 52 69" fill="none" xmlns="http://www.w3.org/2000/svg">
<path d="M42.395 0.836304H0.828125V68.1636H51.1721V10.3708H42.395V0.836304Z" fill="white"/>
<path d="M51.172 69H0.828025C0.33121 69 0 68.6655 0 68.1636V0.836364C0 0.334545 0.33121 0 0.828025 0H42.3949C42.8917 0 43.2229 0.334545 43.2229 0.836364V9.53454H51.172C51.6688 9.53454 52 9.86909 52 10.3709V68.1636C52 68.6655 51.586 69 51.172 69ZM1.65605 67.3273H50.3439V11.2073H42.3949C41.8981 11.2073 41.5669 10.8727 41.5669 10.3709V1.67273H1.65605V67.3273Z" fill="#CB5F10"/>
<path d="M42.395 0.836426V10.371H51.1721L42.395 0.836426Z" fill="white"/>
<path d="M51.172 11.2073H42.3949C41.8981 11.2073 41.5669 10.8728 41.5669 10.371V0.836423C41.5669 0.501878 41.8153 0.167332 42.0637 0.0836961C42.3949 5.97313e-05 42.7261 5.9735e-05 42.9745 0.334605L51.7516 9.86915C52 10.1201 52 10.4546 51.9172 10.7891C51.7516 11.0401 51.5032 11.2073 51.172 11.2073ZM43.2229 9.5346H49.2675L43.2229 2.92733V9.5346Z" fill="#CB5F10"/>
<path d="M37.3441 36.2145H14.6562V16.4763L26.0002 9.19995L37.3441 16.4763V36.2145Z" fill="#EBDDD2"/>
<path d="M37.344 37.0508H14.6562C14.1593 37.0508 13.8281 36.7163 13.8281 36.2145V16.4763C13.8281 16.2254 13.9937 15.8908 14.2421 15.8072L25.5861 8.53085C25.8345 8.36358 26.1657 8.36358 26.4969 8.53085L37.8409 15.8072C38.0893 15.9745 38.2549 16.2254 38.2549 16.4763V36.2145C38.1721 36.6327 37.7581 37.0508 37.344 37.0508ZM15.4842 35.3781H36.516V16.9781L26.0001 10.2872L15.4842 16.9781V35.3781Z" fill="#CB5F10"/>
<path d="M29.6434 20.4908H22.2739V29.6908H29.6434V20.4908Z" fill="white"/>
<path d="M29.6433 30.5273H22.2738C21.777 30.5273 21.4458 30.1927 21.4458 29.6909V20.4909C21.4458 19.9891 21.777 19.6545 22.2738 19.6545H29.6433C30.1401 19.6545 30.4713 19.9891 30.4713 20.4909V29.6909C30.4713 30.1927 30.1401 30.5273 29.6433 30.5273ZM23.1019 28.8545H28.8152V21.3273H23.1019V28.8545Z" fill="#CB5F10"/>
<path d="M35.1084 13.6327H32.2103C31.7135 13.6327 31.3823 13.2982 31.3823 12.7964V7.02545C31.3823 6.52363 31.7135 6.18909 32.2103 6.18909H35.1084C35.6053 6.18909 35.9365 6.52363 35.9365 7.02545V12.7964C35.9365 13.2982 35.5225 13.6327 35.1084 13.6327ZM33.0384 11.96H34.2804V7.86181H33.0384V11.96Z" fill="#CB5F10"/>
<path d="M25.9999 30.1927C25.5031 30.1927 25.1719 29.8582 25.1719 29.3564V20.4909C25.1719 19.9891 25.5031 19.6545 25.9999 19.6545C26.4967 19.6545 26.8279 19.9891 26.8279 20.4909V29.2727C26.8279 29.7745 26.4139 30.1927 25.9999 30.1927Z" fill="#CB5F10"/>
<path d="M29.6435 28.0182H22.3568C21.86 28.0182 21.5288 27.6836 21.5288 27.1818C21.5288 26.68 21.86 26.3455 22.3568 26.3455H29.7263C30.2231 26.3455 30.5543 26.68 30.5543 27.1818C30.4715 27.6 30.1403 28.0182 29.6435 28.0182Z" fill="#CB5F10"/>
<path d="M41.1529 16.8945L26.0828 5.43628H25.8344L10.8472 16.8945L12.7516 19.4036L26 9.28355L39.2484 19.4036L41.1529 16.8945Z" fill="white"/>
<path d="M12.7515 20.24C12.5031 20.24 12.2547 20.1563 12.0891 19.9054L10.1846 17.3963C10.019 17.2291 10.019 16.9782 10.019 16.8109C10.019 16.6436 10.1846 16.3927 10.3503 16.2254L25.3375 4.76725C25.5031 4.68361 25.6687 4.59998 25.8343 4.59998H26.0827C26.2483 4.59998 26.4139 4.68361 26.5795 4.76725L41.6496 16.3091C41.8152 16.4763 41.898 16.6436 41.9808 16.8945C42.0636 17.1454 41.9808 17.3127 41.8152 17.48L39.9108 19.9891C39.6624 20.3236 39.0827 20.4072 38.7515 20.1563L25.9999 10.3709L13.2483 20.0727C13.0827 20.24 12.9171 20.24 12.7515 20.24ZM12.0063 17.0618L12.9171 18.2327L25.5031 8.61452C25.8343 8.36361 26.2483 8.36361 26.4967 8.61452L39.0827 18.2327L39.9936 17.0618L25.9999 6.35634L12.0063 17.0618Z" fill="#CB5F10"/>
<path d="M34.1975 43.8254H17.8026C17.3058 43.8254 16.9746 43.4909 16.9746 42.9891C16.9746 42.4873 17.3058 42.1527 17.8026 42.1527H34.1975C34.6944 42.1527 35.0256 42.4873 35.0256 42.9891C35.0256 43.4909 34.6116 43.8254 34.1975 43.8254Z" fill="#CB5F10"/>
<path d="M46.2868 49.8473H5.63076C5.13394 49.8473 4.80273 49.5127 4.80273 49.0109C4.80273 48.5091 5.13394 48.1746 5.63076 48.1746H46.2868C46.7836 48.1746 47.1148 48.5091 47.1148 49.0109C47.1148 49.5127 46.7836 49.8473 46.2868 49.8473Z" fill="#CB5F10"/>
<path d="M46.2868 55.8691H5.63076C5.13394 55.8691 4.80273 55.5346 4.80273 55.0328C4.80273 54.531 5.13394 54.1964 5.63076 54.1964H46.2868C46.7836 54.1964 47.1148 54.531 47.1148 55.0328C47.1148 55.5346 46.7836 55.8691 46.2868 55.8691Z" fill="#CB5F10"/>
<path d="M46.2865 61.8909H25.9999C25.5031 61.8909 25.1719 61.5563 25.1719 61.0545C25.1719 60.5527 25.5031 60.2181 25.9999 60.2181H46.2865C46.7833 60.2181 47.1145 60.5527 47.1145 61.0545C47.1145 61.5563 46.7833 61.8909 46.2865 61.8909Z" fill="#CB5F10"/>
</svg>
