<svg width="74" height="75" viewBox="0 0 74 75" fill="none" xmlns="http://www.w3.org/2000/svg">
<g clip-path="url(#clip0_2_36)">
<path d="M45.7886 52.5237H7.30664V19.7174L26.5476 7.65625L45.7886 19.7174V52.5237Z" fill="#EBDDD2"/>
<path d="M45.7884 53.3279H7.30648C6.81937 53.3279 6.49463 53.0062 6.49463 52.5238V19.7174C6.49463 19.4762 6.657 19.1546 6.90056 19.0742L26.1415 6.93262C26.3851 6.77181 26.7098 6.77181 27.0346 6.93262L46.2756 18.9938C46.5191 19.1546 46.6815 19.3958 46.6815 19.637V52.5238C46.6003 53.0062 46.1944 53.3279 45.7884 53.3279ZM8.11834 51.7197H44.9766V20.1195L26.5475 8.62119L8.11834 20.1195V51.7197Z" fill="#CB5F10"/>
<path d="M32.8801 26.4717H20.2964V41.7491H32.8801V26.4717Z" fill="white"/>
<path d="M32.7988 42.5532H20.2962C19.8091 42.5532 19.4844 42.2316 19.4844 41.7491V26.4717C19.4844 25.9892 19.8091 25.6676 20.2962 25.6676H32.88C33.3671 25.6676 33.6918 25.9892 33.6918 26.4717V41.7491C33.6107 42.2316 33.2859 42.5532 32.7988 42.5532ZM21.1081 40.9451H32.0681V27.2758H21.1081V40.9451Z" fill="#CB5F10"/>
<path d="M41.9732 14.491H37.0208C36.5337 14.491 36.209 14.1693 36.209 13.6869V4.03796C36.209 3.55552 36.5337 3.23389 37.0208 3.23389H41.9732C42.4603 3.23389 42.785 3.55552 42.785 4.03796V13.6869C42.785 14.0889 42.4603 14.491 41.9732 14.491ZM37.9139 12.8828H41.2425V4.84204H37.9139V12.8828Z" fill="#CB5F10"/>
<path d="M26.5477 41.91C26.0606 41.91 25.7358 41.5883 25.7358 41.1059V26.4717C25.7358 25.9892 26.0606 25.6676 26.5477 25.6676C27.0348 25.6676 27.3596 25.9892 27.3596 26.4717V41.1059C27.3596 41.5883 26.9536 41.91 26.5477 41.91Z" fill="#CB5F10"/>
<path d="M32.7988 38.2916H20.2962C19.8091 38.2916 19.4844 37.97 19.4844 37.4875C19.4844 37.0051 19.8091 36.6835 20.2962 36.6835H32.7988C33.2859 36.6835 33.6107 37.0051 33.6107 37.4875C33.6107 37.97 33.2859 38.2916 32.7988 38.2916Z" fill="#CB5F10"/>
<path d="M52.2837 20.4411L26.7102 1.30408H26.3043L0.812012 20.4411L4.05943 24.6223L26.5478 7.73669L49.0362 24.6223L52.2837 20.4411Z" fill="white"/>
<path d="M4.05928 25.4264C3.81572 25.4264 3.57216 25.346 3.40979 25.1048L0.162371 20.9236C0 20.7627 0 20.6019 0 20.3607C0 20.1195 0.162371 19.9587 0.324742 19.7978L25.817 0.660815C25.9794 0.580408 26.1418 0.5 26.3041 0.5H26.7101C26.8724 0.5 27.0348 0.580408 27.1972 0.660815L52.7706 19.7978C53.0954 20.0391 53.1765 20.6019 52.933 20.9236L49.6856 25.1048C49.5232 25.346 49.3608 25.4264 49.1173 25.4264C48.8737 25.4264 48.7113 25.4264 48.549 25.2656L26.5477 8.78199L4.54639 25.2656C4.38402 25.4264 4.22165 25.4264 4.05928 25.4264ZM1.94845 20.6019L4.22165 23.4966L26.0606 7.09343C26.3853 6.85221 26.7912 6.85221 27.0348 7.09343L48.8737 23.4966L51.1469 20.6019L26.5477 2.10815L1.94845 20.6019Z" fill="#CB5F10"/>
<path d="M37.1831 67.3992V40.7843C37.1831 38.9349 38.6444 37.4875 40.5117 37.4875H58.9408C60.8081 37.4875 62.2694 38.9349 62.2694 40.7843V67.3992C62.2694 69.2486 60.8081 70.6959 58.9408 70.6959H40.5117C38.6444 70.6959 37.1831 69.2486 37.1831 67.3992Z" fill="white"/>
<path d="M58.9407 71.5H40.5116C38.2384 71.5 36.3711 69.6506 36.3711 67.3992V40.7843C36.3711 38.5328 38.2384 36.6835 40.5116 36.6835H58.9407C61.2139 36.6835 63.0811 38.5328 63.0811 40.7843V67.3992C63 69.6506 61.2139 71.5 58.9407 71.5ZM40.5116 38.2916C39.1314 38.2916 37.9948 39.4173 37.9948 40.7843V67.3992C37.9948 68.7661 39.1314 69.8919 40.5116 69.8919H58.9407C60.3208 69.8919 61.4574 68.7661 61.4574 67.3992V40.7843C61.4574 39.4173 60.3208 38.2916 58.9407 38.2916H40.5116Z" fill="#CB5F10"/>
<path d="M41.5669 46.3324V42.6336C41.5669 41.9904 42.054 41.5079 42.7035 41.5079H56.6674C57.3169 41.5079 57.804 41.9904 57.804 42.6336V46.3324C57.804 46.9757 57.3169 47.4581 56.6674 47.4581H42.7035C42.054 47.4581 41.5669 46.9757 41.5669 46.3324Z" fill="white"/>
<path d="M56.6673 48.2622H42.7033C41.6479 48.2622 40.7549 47.3777 40.7549 46.3324V42.6336C40.7549 41.5883 41.6479 40.7039 42.7033 40.7039H56.6673C57.7227 40.7039 58.6157 41.5883 58.6157 42.6336V46.3324C58.6157 47.3777 57.7227 48.2622 56.6673 48.2622ZM42.7033 42.312C42.541 42.312 42.3786 42.4728 42.3786 42.6336V46.3324C42.3786 46.4932 42.541 46.654 42.7033 46.654H56.6673C56.8296 46.654 56.992 46.4932 56.992 46.3324V42.6336C56.992 42.4728 56.8296 42.312 56.6673 42.312H42.7033Z" fill="#CB5F10"/>
<path d="M43.5967 54.132C43.9554 54.132 44.2462 53.844 44.2462 53.4887C44.2462 53.1335 43.9554 52.8455 43.5967 52.8455C43.238 52.8455 42.9473 53.1335 42.9473 53.4887C42.9473 53.844 43.238 54.132 43.5967 54.132Z" fill="white"/>
<path d="M43.5966 54.9361C42.7847 54.9361 42.1353 54.2928 42.1353 53.4887C42.1353 52.6846 42.7847 52.0414 43.5966 52.0414C44.4084 52.0414 45.0579 52.6846 45.0579 53.4887C45.0579 54.2928 44.4084 54.9361 43.5966 54.9361ZM43.5966 53.3279C43.5154 53.3279 43.4342 53.4083 43.4342 53.4887C43.4342 53.7299 43.8401 53.7299 43.8401 53.4887C43.8401 53.4083 43.759 53.3279 43.5966 53.3279Z" fill="#CB5F10"/>
<path d="M49.6856 54.132C50.0443 54.132 50.3351 53.844 50.3351 53.4887C50.3351 53.1335 50.0443 52.8455 49.6856 52.8455C49.3269 52.8455 49.0361 53.1335 49.0361 53.4887C49.0361 53.844 49.3269 54.132 49.6856 54.132Z" fill="white"/>
<path d="M49.6855 54.9361C48.8736 54.9361 48.2241 54.2928 48.2241 53.4887C48.2241 52.6846 48.8736 52.0414 49.6855 52.0414C50.4973 52.0414 51.1468 52.6846 51.1468 53.4887C51.1468 54.2928 50.4973 54.9361 49.6855 54.9361ZM49.6855 53.3279C49.6043 53.3279 49.5231 53.4083 49.5231 53.4887C49.5231 53.7299 49.929 53.7299 49.929 53.4887C49.8478 53.4083 49.7666 53.3279 49.6855 53.3279Z" fill="#CB5F10"/>
<path d="M55.7745 54.132C56.1332 54.132 56.424 53.844 56.424 53.4887C56.424 53.1335 56.1332 52.8455 55.7745 52.8455C55.4158 52.8455 55.125 53.1335 55.125 53.4887C55.125 53.844 55.4158 54.132 55.7745 54.132Z" fill="white"/>
<path d="M55.7743 54.9361C54.9625 54.9361 54.313 54.2928 54.313 53.4887C54.313 52.6846 54.9625 52.0414 55.7743 52.0414C56.5862 52.0414 57.2357 52.6846 57.2357 53.4887C57.2357 54.2928 56.505 54.9361 55.7743 54.9361ZM55.7743 53.3279C55.6931 53.3279 55.612 53.4083 55.612 53.4887C55.612 53.7299 56.0179 53.7299 56.0179 53.4887C55.9367 53.4083 55.8555 53.3279 55.7743 53.3279Z" fill="#CB5F10"/>
<path d="M43.5967 59.9213C43.9554 59.9213 44.2462 59.6333 44.2462 59.278C44.2462 58.9228 43.9554 58.6348 43.5967 58.6348C43.238 58.6348 42.9473 58.9228 42.9473 59.278C42.9473 59.6333 43.238 59.9213 43.5967 59.9213Z" fill="white"/>
<path d="M43.5966 60.7254C42.7847 60.7254 42.1353 60.0821 42.1353 59.278C42.1353 58.4739 42.7847 57.8307 43.5966 57.8307C44.4084 57.8307 45.0579 58.4739 45.0579 59.278C45.0579 60.0821 44.4084 60.7254 43.5966 60.7254ZM43.5966 59.1172C43.5154 59.1172 43.4342 59.1976 43.4342 59.278C43.4342 59.5192 43.8401 59.5192 43.8401 59.278C43.8401 59.1976 43.759 59.1172 43.5966 59.1172Z" fill="#CB5F10"/>
<path d="M49.6856 59.9213C50.0443 59.9213 50.3351 59.6333 50.3351 59.278C50.3351 58.9228 50.0443 58.6348 49.6856 58.6348C49.3269 58.6348 49.0361 58.9228 49.0361 59.278C49.0361 59.6333 49.3269 59.9213 49.6856 59.9213Z" fill="white"/>
<path d="M49.6855 60.7254C48.8736 60.7254 48.2241 60.0821 48.2241 59.278C48.2241 58.4739 48.8736 57.8307 49.6855 57.8307C50.4973 57.8307 51.1468 58.4739 51.1468 59.278C51.1468 60.0821 50.4973 60.7254 49.6855 60.7254ZM49.6855 59.1172C49.6043 59.1172 49.5231 59.1976 49.5231 59.278C49.5231 59.5192 49.929 59.5192 49.929 59.278C49.8478 59.1976 49.7666 59.1172 49.6855 59.1172Z" fill="#CB5F10"/>
<path d="M55.7745 59.9213C56.1332 59.9213 56.424 59.6333 56.424 59.278C56.424 58.9228 56.1332 58.6348 55.7745 58.6348C55.4158 58.6348 55.125 58.9228 55.125 59.278C55.125 59.6333 55.4158 59.9213 55.7745 59.9213Z" fill="white"/>
<path d="M55.7743 60.7254C54.9625 60.7254 54.313 60.0821 54.313 59.278C54.313 58.4739 54.9625 57.8307 55.7743 57.8307C56.5862 57.8307 57.2357 58.4739 57.2357 59.278C57.2357 60.0821 56.505 60.7254 55.7743 60.7254ZM55.7743 59.1172C55.6931 59.1172 55.612 59.1976 55.612 59.278C55.612 59.5192 56.0179 59.5192 56.0179 59.278C55.9367 59.1976 55.8555 59.1172 55.7743 59.1172Z" fill="#CB5F10"/>
<path d="M43.5967 65.791C43.9554 65.791 44.2462 65.503 44.2462 65.1478C44.2462 64.7925 43.9554 64.5045 43.5967 64.5045C43.238 64.5045 42.9473 64.7925 42.9473 65.1478C42.9473 65.503 43.238 65.791 43.5967 65.791Z" fill="white"/>
<path d="M43.5966 66.5147C42.7847 66.5147 42.1353 65.8714 42.1353 65.0673C42.1353 64.2633 42.7847 63.62 43.5966 63.62C44.4084 63.62 45.0579 64.2633 45.0579 65.0673C45.0579 65.8714 44.4084 66.5147 43.5966 66.5147ZM43.5966 64.9065C43.5154 64.9065 43.4342 64.9869 43.4342 65.0673C43.4342 65.3086 43.8401 65.3086 43.8401 65.0673C43.8401 64.9869 43.759 64.9065 43.5966 64.9065Z" fill="#CB5F10"/>
<path d="M49.6856 65.791C50.0443 65.791 50.3351 65.503 50.3351 65.1478C50.3351 64.7925 50.0443 64.5045 49.6856 64.5045C49.3269 64.5045 49.0361 64.7925 49.0361 65.1478C49.0361 65.503 49.3269 65.791 49.6856 65.791Z" fill="white"/>
<path d="M49.6855 66.5147C48.8736 66.5147 48.2241 65.8714 48.2241 65.0673C48.2241 64.2633 48.8736 63.62 49.6855 63.62C50.4973 63.62 51.1468 64.2633 51.1468 65.0673C51.1468 65.8714 50.4973 66.5147 49.6855 66.5147ZM49.6855 64.9065C49.6043 64.9065 49.5231 64.9869 49.5231 65.0673C49.5231 65.3086 49.929 65.3086 49.929 65.0673C49.8478 64.9869 49.7666 64.9065 49.6855 64.9065Z" fill="#CB5F10"/>
<path d="M55.7745 65.791C56.1332 65.791 56.424 65.503 56.424 65.1478C56.424 64.7925 56.1332 64.5045 55.7745 64.5045C55.4158 64.5045 55.125 64.7925 55.125 65.1478C55.125 65.503 55.4158 65.791 55.7745 65.791Z" fill="white"/>
<path d="M55.7743 66.5147C54.9625 66.5147 54.313 65.8714 54.313 65.0673C54.313 64.2633 54.9625 63.62 55.7743 63.62C56.5862 63.62 57.2357 64.2633 57.2357 65.0673C57.2357 65.8714 56.505 66.5147 55.7743 66.5147ZM55.7743 64.9065C55.6931 64.9065 55.612 64.9869 55.612 65.0673C55.612 65.3086 56.0179 65.3086 56.0179 65.0673C55.9367 64.9869 55.8555 64.9065 55.7743 64.9065Z" fill="#CB5F10"/>
</g>
<defs>
<clipPath id="clip0_2_36">
<rect width="74" height="74" fill="white" transform="translate(0 0.5)"/>
</clipPath>
</defs>
</svg>
