<svg width="80" height="66" viewBox="0 0 80 66" fill="none" xmlns="http://www.w3.org/2000/svg">
<path d="M9.2762 30.7639C9.27056 30.7491 9.27056 30.7328 9.2762 30.7181C9.28022 30.725 9.28233 30.7329 9.28233 30.741C9.28233 30.749 9.28022 30.7569 9.2762 30.7639C9.28169 30.8463 9.28169 30.9286 9.2762 31.011V30.7639ZM41.0255 22.2589C40.6793 21.9576 40.4141 21.5744 40.2542 21.1442C40.0942 20.714 40.0447 20.2505 40.11 19.7963C40.1333 19.3691 40.2616 18.9543 40.4836 18.5885C40.7055 18.2228 41.0143 17.9176 41.3825 17.6998C41.5987 17.6005 41.8451 17.5892 42.0695 17.6684C42.2938 17.7476 42.4785 17.9111 42.5844 18.1241C42.6903 18.3372 42.7092 18.5831 42.6369 18.8097C42.5647 19.0364 42.407 19.2261 42.1973 19.3385C42.0198 19.5411 41.9221 19.8015 41.9227 20.0709C41.8987 20.2074 41.9061 20.3475 41.9441 20.4807C41.9822 20.6139 42.05 20.7367 42.1424 20.8399C42.2424 20.9133 42.3265 21.0062 42.3895 21.1131C42.4526 21.2199 42.4932 21.3385 42.509 21.4615C42.5248 21.5846 42.5154 21.7096 42.4815 21.8289C42.4475 21.9482 42.3896 22.0594 42.3114 22.1556C42.2331 22.2519 42.1361 22.3312 42.0262 22.3889C41.9164 22.4465 41.796 22.4812 41.6723 22.4909C41.5486 22.5005 41.4242 22.4849 41.3068 22.4451C41.1893 22.4052 41.0811 22.3419 40.9889 22.2589H41.0255Z" fill="white"/>
<path d="M50.4823 13.3238C48.2455 13.2799 46.0678 14.0437 44.3485 15.4752C40.6426 14.2312 36.8674 13.2042 33.0422 12.3991C29.8013 11.8864 24.4365 10.4491 24.3816 10.4308C24.1461 10.3677 23.8951 10.4007 23.6839 10.5226C23.4728 10.6445 23.3187 10.8453 23.2555 11.0808C23.1924 11.3163 23.2254 11.5673 23.3473 11.7785C23.4692 11.9896 23.67 12.1437 23.9055 12.2069C24.1253 12.2618 29.3985 13.6808 32.7584 14.2026C37.4595 15.242 42.0916 16.572 46.6281 18.185C46.786 18.264 46.9388 18.3527 47.0858 18.4505C47.1174 18.466 47.1454 18.4878 47.1682 18.5146C47.605 18.9739 47.8618 19.5751 47.8914 20.2083C47.9524 20.6486 47.8916 21.0973 47.7157 21.5056C47.5398 21.9139 47.2555 22.2663 46.8936 22.5245C45.1974 23.0821 43.4537 23.4836 41.6844 23.7238L40.5675 23.916C32.8957 25.2343 20.5915 26.7998 16.545 26.5343C14.3935 26.4761 12.2608 26.1155 10.2098 25.4632V6.84207C12.5351 6.03644 21.2506 3.18925 25.4527 3.49137C30.6069 3.88503 48.34 10.7604 49.8506 11.9963C50.1326 12.4156 50.3807 12.8569 50.5922 13.3146L50.4823 13.3238ZM51.1048 13.3238C50.9858 12.5731 50.1893 11.0716 49.3471 10.8062C47.9922 10.385 33.6647 4.44348 32.264 4.16883C29.8471 3.69277 24.6746 2.75897 23.7591 2.74982C20.9119 2.74982 11.5647 5.86249 10.6584 5.99066C10.5038 6.02093 10.3435 5.99149 10.2098 5.90827C9.96258 5.76179 9.87103 5.42306 9.8161 4.99277C9.72455 4.23291 9.8161 3.25334 9.29427 2.9146C8.14075 2.15475 1.5492 2.07235 1.5492 2.96038V3.87587C1.72314 9.25897 1.5492 25.7653 1.5492 29.8484V30.7639C1.30201 31.4139 4.48793 31.0019 6.8499 30.7639C7.64704 30.611 8.46445 30.5956 9.2668 30.7181C9.1661 29.9674 8.91892 27.9716 8.83652 26.809V25.8935L9.24849 26.0125C9.55976 26.1132 9.86187 26.1956 10.164 26.278C17.4879 28.1639 23.402 26.278 22.9809 27.1935C22.8344 27.5047 37.3633 25.0695 38.9379 24.8956H39.1576C39.8077 24.8224 40.4668 24.74 41.1076 24.6301C41.1076 24.447 41.4555 24.2731 42.0231 24.0991C43.5703 23.6597 46.4907 23.266 46.8569 22.8998C48.4316 21.2977 49.3288 19.3752 47.8914 18.0202L47.8274 17.9653L47.4703 17.6907C47.0756 17.422 46.6438 17.2123 46.1886 17.0681C45.8445 16.9451 45.4928 16.8442 45.1358 16.766C45.0983 16.7544 45.0639 16.7344 45.0353 16.7074C45.0067 16.6804 44.9847 16.6472 44.971 16.6104C44.9069 16.4364 45.0809 16.1801 45.4196 15.8871L45.6851 15.6674L45.8407 15.5576C47.2962 14.5386 49.0026 13.9371 50.7753 13.8181H50.9858C51.1231 13.8181 51.1598 13.6625 51.114 13.397L51.1048 13.3238Z" fill="white"/>
<path d="M40.1466 19.7963C40.1698 19.3691 40.2982 18.9543 40.5201 18.5886C40.7421 18.2229 41.0509 17.9176 41.4191 17.6998C41.6353 17.6005 41.8817 17.5892 42.106 17.6685C42.3304 17.7477 42.5151 17.9111 42.621 18.1241C42.7269 18.3372 42.7458 18.5831 42.6735 18.8098C42.6012 19.0364 42.4436 19.2261 42.2339 19.3385C42.0563 19.5411 41.9587 19.8015 41.9593 20.0709C41.9353 20.2074 41.9426 20.3475 41.9807 20.4807C42.0188 20.6139 42.0866 20.7367 42.179 20.8399C42.279 20.9133 42.3631 21.0062 42.4261 21.1131C42.4891 21.22 42.5298 21.3385 42.5456 21.4616C42.5614 21.5846 42.552 21.7096 42.518 21.8289C42.4841 21.9482 42.4262 22.0594 42.3479 22.1556C42.2697 22.2519 42.1727 22.3313 42.0628 22.3889C41.953 22.4465 41.8325 22.4812 41.7088 22.4909C41.5852 22.5005 41.4608 22.485 41.3433 22.4451C41.2259 22.4052 41.1177 22.3419 41.0255 22.2589C40.6792 21.9576 40.4141 21.5744 40.2541 21.1442C40.0942 20.714 40.0446 20.2506 40.11 19.7963H40.1466ZM24.3818 10.4308C24.3818 10.4308 29.8015 11.8864 33.0424 12.3991C36.8676 13.2041 40.6428 14.2312 44.3487 15.4751C46.068 14.0437 48.2457 13.2799 50.4825 13.3237H50.5924C50.3807 12.8653 50.1327 12.4244 49.8508 12.0054C48.386 10.8153 30.6071 3.90331 25.4529 3.49134C21.2508 3.18923 12.5353 6.03641 10.21 6.84204V25.4632C12.2568 26.124 14.3863 26.4938 16.536 26.5618C20.5825 26.8273 32.8867 25.2618 40.5586 23.9435L41.6755 23.7512C43.4448 23.511 45.1884 23.1096 46.8846 22.5519C47.2465 22.2937 47.5308 21.9413 47.7067 21.533C47.8827 21.1248 47.9434 20.6761 47.8825 20.2357C47.8528 19.6026 47.5961 19.0013 47.1593 18.542C47.1365 18.5153 47.1084 18.4934 47.0769 18.478C46.9299 18.3802 46.777 18.2915 46.6191 18.2125C42.0863 16.5905 37.4572 15.2513 32.7586 14.2026C29.417 13.6808 24.1255 12.2618 23.9057 12.2068C23.6702 12.1437 23.4694 11.9896 23.3475 11.7784C23.2256 11.5672 23.1926 11.3163 23.2557 11.0808C23.3189 10.8453 23.473 10.6445 23.6841 10.5226C23.8953 10.4007 24.1463 10.3676 24.3818 10.4308Z" fill="white"/>
<path d="M42.2888 24.6667C42.2797 24.8309 42.2327 24.9907 42.1514 25.1336C42.0506 25.2993 41.9045 25.4328 41.7303 25.5181L41.5106 25.6371L41.3733 25.7104C40.7198 26.0929 40.1273 26.5712 39.6155 27.1294C38.8673 27.9817 38.3254 28.9948 38.0316 30.0902C37.7379 31.1857 37.7004 32.334 37.9219 33.4463C38.1257 34.3264 38.5767 35.13 39.2219 35.7625C39.3381 35.8907 39.4636 36.0097 39.5972 36.1195C39.8444 36.3255 39.9744 36.6414 39.9451 36.9618C39.9449 37.0738 39.9166 37.184 39.8627 37.2822C39.8236 37.3594 39.7776 37.4329 39.7254 37.5019C39.6436 37.6087 39.5367 37.6937 39.4141 37.7491L39.2768 37.6942L39.1028 37.7949L39.0296 37.8498H38.9655C38.7367 37.854 38.5146 37.7724 38.343 37.6209C38.2331 37.5294 38.1324 37.447 38.0409 37.3554C37.8131 37.1435 37.599 36.9172 37.4 36.678L37.9493 36.3484L36.8874 35.0759H36.3381C36.219 34.7829 36.1092 34.4716 36.0176 34.1604C35.9321 33.8595 35.8649 33.5538 35.8162 33.2449C35.5273 30.751 36.2274 28.2433 37.7662 26.2597C37.8578 26.1315 37.9585 26.0033 38.0592 25.8843C38.3859 25.503 38.751 25.1564 39.1486 24.8498C39.5805 24.503 40.0432 24.1966 40.531 23.9343L41.6479 23.7421L41.8127 23.8336C41.9581 23.933 42.0749 24.0687 42.1514 24.2273C42.2205 24.3698 42.255 24.5266 42.2521 24.685L42.2888 24.6667Z" fill="#CB5F10"/>
<path d="M37.9307 36.3667L37.3814 36.6963L32.7399 39.4428C32.5625 39.5503 32.427 39.715 32.3554 39.9097L32.1357 40.5047C31.7247 40.1098 31.1768 39.8891 30.6068 39.8891C30.0368 39.8891 29.4889 40.1098 29.0779 40.5047L24.4364 44.9449C24.2241 45.1453 24.0535 45.3856 23.9345 45.6521C23.8154 45.9186 23.7501 46.206 23.7425 46.4978C23.7348 46.7896 23.7849 47.0801 23.8898 47.3524C23.9948 47.6248 24.1525 47.8738 24.354 48.085L25.9103 49.7238C26.2563 50.0908 26.7175 50.3283 27.2173 50.3966C27.717 50.4649 28.2251 50.3599 28.6568 50.0991L27.0455 54.5026C27.0093 54.6024 26.9907 54.7077 26.9906 54.8139L21.1589 55.235L17.3413 50.4928L19.1723 44.4139L30.7075 35.0759H36.8871L37.9307 36.3667Z" fill="white"/>
<path d="M21.1409 55.235L17.3233 50.4927L19.1543 44.4139L30.7078 35.0758H36.8874L37.9311 36.3667L37.3818 36.6963L32.7402 39.4427C32.5629 39.5503 32.4273 39.7149 32.3557 39.9096L32.136 40.5047C31.725 40.1097 31.1771 39.8891 30.6071 39.8891C30.0371 39.8891 29.4892 40.1097 29.0783 40.5047L24.4367 44.9448C24.2244 45.1452 24.0539 45.3856 23.9348 45.6521C23.8157 45.9186 23.7505 46.206 23.7428 46.4978C23.7351 46.7896 23.7852 47.08 23.8902 47.3524C23.9951 47.6248 24.1528 47.8738 24.3543 48.085L25.9106 49.7237C26.2566 50.0908 26.7178 50.3283 27.2176 50.3966C27.7173 50.4649 28.2254 50.3599 28.6571 50.0991L27.0459 54.5026C27.0096 54.6024 26.9911 54.7077 26.9909 54.8139L21.1592 55.235H21.1409ZM39.8445 37.2913L39.4508 36.797L38.7276 35.8815L37.3268 34.1603H30.3874L18.3212 43.8829L16.3071 50.6941L20.729 56.1871L27.1832 55.6744H27.824L28.0712 55.4822L28.8768 54.8413L29.4811 53.1934L31.5775 47.435L33.5916 42.0244L34.0036 40.8892L39.0388 37.8681L39.1121 37.8132L39.286 37.7125L39.4233 37.7674L40.5952 38.1885L39.8719 37.273L39.8445 37.2913ZM41.4283 39.2505L41.2085 40.166L40.5128 43.1871L40.0001 44.1026L40.1283 44.8899L40.0001 45.604L39.9268 45.9336L39.4508 46.3181L38.6268 46.9772L34.6628 50.1815L35.2029 48.561L35.8621 46.611C36.0251 46.1164 36.3585 45.6958 36.8028 45.4241C37.2472 45.1525 37.7736 45.0475 38.2881 45.1279L38.1691 44.1026C38.1378 43.8935 38.1799 43.68 38.2881 43.4984L40.3663 39.9005L41.0346 38.7378L41.4557 39.2596L41.4283 39.2505Z" fill="white"/>
<path d="M39.1851 44.89L39.0844 45.3202L39.2584 45.3843L39.1851 44.89ZM39.1851 44.89L39.0844 45.3202L39.2584 45.3843L39.1851 44.89ZM39.1851 44.89L39.0844 45.3202L39.2584 45.3843L39.1851 44.89ZM42.2154 38.7836C42.1942 38.7449 42.1697 38.7082 42.1422 38.6738L41.5196 37.9047L41.1168 37.3646L39.9999 36.0188L38.0408 33.5836C38.0018 33.5341 37.9555 33.4909 37.9034 33.4554C37.7411 33.321 37.5374 33.2466 37.3267 33.2449H30.3872C30.1776 33.244 29.974 33.3151 29.8105 33.4463L17.7443 43.1688C17.6045 43.288 17.5001 43.4431 17.4422 43.6174L15.4281 50.4378C15.3862 50.5797 15.3793 50.7296 15.408 50.8747C15.4367 51.0197 15.5001 51.1557 15.5929 51.2709L20.0238 56.7639C20.1081 56.8706 20.2151 56.9572 20.3371 57.0174C20.459 57.0775 20.5928 57.1098 20.7288 57.1118H20.7746L27.4119 56.59H27.8879C28.0379 56.5748 28.1821 56.5246 28.3091 56.4435L28.3915 56.3885L29.0964 55.8209L28.8492 54.9054L29.4534 53.2576L28.0985 54.2829L27.4851 54.7773H26.9908L21.1591 55.1984L17.3415 50.4562L19.1724 44.3773L30.7077 35.0759H36.8872L37.9309 36.3667L38.4985 37.0808L39.0844 37.804L39.2584 37.7033L39.3957 37.7583L40.5675 38.1794L41.19 38.4083L41.0069 38.7287L40.3386 39.8914L39.6429 42.9216L39.1943 44.8716L39.0936 45.3019V45.4118L38.4527 45.9245L35.2027 48.5336L34.6626 50.1815L34.1224 51.7928L38.7457 48.0667L39.5696 47.3984L40.3936 46.7393L40.2379 45.7414L40.1189 44.9632L39.9999 44.1392L40.5126 43.2238L42.0689 40.4773L42.3161 39.3878C42.369 39.1604 42.333 38.9213 42.2154 38.7195V38.7836ZM39.1851 44.89L39.0844 45.3202L39.2584 45.3843L39.1851 44.89ZM39.1851 44.89L39.0844 45.3202L39.2584 45.3843L39.1851 44.89Z" fill="#CB5F10"/>
<path d="M33.5917 42.0245L31.5777 47.435L30.0854 48.8449L29.0143 49.8062C28.8956 49.9196 28.7634 50.018 28.6206 50.0991C28.1889 50.3599 27.6808 50.4649 27.1811 50.3966C26.6813 50.3283 26.2201 50.0908 25.8741 49.7238L24.3178 48.085C24.1186 47.8714 23.9637 47.6206 23.8618 47.3469C23.7599 47.0732 23.7132 46.782 23.7242 46.4902C23.7353 46.1984 23.804 45.9116 23.9262 45.6464C24.0485 45.3812 24.222 45.1428 24.4368 44.9449L29.0875 40.5322C29.4985 40.1372 30.0464 39.9166 30.6164 39.9166C31.1864 39.9166 31.7343 40.1372 32.1453 40.5322L32.2185 40.5963L32.8502 41.2646L33.5551 42.0062L33.5917 42.0245Z" fill="#B60015"/>
<path d="M47.3787 45.3294L46.042 41.2371L45.2913 38.9392L45.0167 38.8385L45.1357 41.4019L45.2822 44.7435C45.2911 44.9533 45.3719 45.1537 45.5111 45.3111L45.8498 45.6956C45.3744 45.9406 44.988 46.3286 44.7449 46.8049C44.5018 47.2812 44.4144 47.8218 44.4949 48.3505L44.7604 50.0716L45.0533 51.9026L46.8843 46.8491L47.2413 45.8695L47.4061 45.4301V45.2836L47.3787 45.3294ZM36.1547 63.0899L30.442 60.9935L29.0963 55.8118L28.8491 54.8963L29.4533 53.2484L31.5773 47.435L33.5913 42.0245L34.0033 40.8892L39.0385 37.8681L39.1118 37.8132L39.2857 37.7125L39.423 37.7674L40.5949 38.1885L41.2174 38.4174L41.0343 38.7378L40.366 39.9005L38.2512 43.4984C38.1429 43.68 38.1009 43.8935 38.1322 44.1026L38.2878 45.1005C37.7733 45.0201 37.2469 45.1251 36.8025 45.3967C36.3582 45.6683 36.0248 46.089 35.8618 46.5836L35.2026 48.5336L34.6625 50.1815L34.1223 51.7928L33.8202 52.7083C33.727 52.9847 33.6892 53.2769 33.7092 53.568C33.7292 53.8591 33.8065 54.1434 33.9366 54.4046C34.0668 54.6657 34.2472 54.8986 34.4676 55.0898C34.688 55.281 34.944 55.4268 35.2209 55.5188L37.3632 56.2329C37.8156 56.3851 38.305 56.3871 38.7587 56.2386C39.2123 56.0902 39.6059 55.7992 39.8808 55.409L40.5033 59.4554C40.5288 59.6266 40.6054 59.7862 40.723 59.9132L36.1456 63.1357L36.1547 63.0899ZM42.5632 37.9414L41.6477 37.6026L41.1167 37.3646L39.9265 36.9343L39.4505 36.7604L39.1575 36.6505L38.4984 37.0442L38.0223 37.3371L33.216 40.2301L32.8406 41.2463L30.0942 48.7625L28.0892 54.2554L27.897 54.7864L28.0709 55.4364L28.3181 56.3519L29.6822 61.6069L36.3378 64.1153L41.4005 60.5449L42.142 60.023L42.4899 59.1076L42.3068 58.9061L42.0596 57.5054L41.1442 51.8202L40.3568 46.7576L40.2012 45.7597L40.0822 44.9815L39.9998 44.1392L40.5125 43.2238L42.0688 40.4773L42.9294 38.985L43.085 38.7195L44.3392 38.5273L42.5723 37.8773L42.5632 37.9414Z" fill="white"/>
<path d="M38.2516 43.4984C38.1433 43.68 38.1013 43.8935 38.1326 44.1026L38.2882 45.1005C37.7737 45.0201 37.2473 45.125 36.8029 45.3967C36.3586 45.6683 36.0252 46.089 35.8622 46.5836L35.203 48.5336L34.6629 50.1815L34.1227 51.7927L33.8206 52.7082C33.7274 52.9847 33.6896 53.2769 33.7096 53.568C33.7296 53.8591 33.8069 54.1434 33.937 54.4045C34.0672 54.6657 34.2476 54.8986 34.468 55.0898C34.6884 55.281 34.9444 55.4268 35.2213 55.5188L37.3636 56.2329C37.816 56.3851 38.3054 56.3871 38.7591 56.2386C39.2127 56.0902 39.6063 55.7992 39.8812 55.4089L40.5037 59.4554C40.5292 59.6266 40.6058 59.7862 40.7234 59.9132L36.146 63.1357L30.4333 61.0392L29.0875 55.8575L28.8403 54.942L29.4446 53.2942L31.5777 47.435L33.5917 42.0244L34.0037 40.8892L39.0389 37.8681L39.1122 37.8132L39.2861 37.7125L39.4234 37.7674L40.5953 38.1885L41.2178 38.4174L41.0347 38.7378L40.3664 39.9005L38.2516 43.4984Z" fill="white"/>
<path d="M46.2163 44.6885L46.4543 45.4209H46.8297L46.2163 44.6885ZM47.9008 45.2103L47.0952 44.2948L46.9487 41.0265L46.1614 38.6096C46.1241 38.4936 46.0616 38.3873 45.9783 38.2984L45.905 38.2801C45.8227 38.1973 45.7225 38.1347 45.6121 38.097L44.9712 37.8589L44.4494 37.6667L42.6733 37.0167L40.0001 36.0188L39.4783 35.8265C39.3911 35.7907 39.2978 35.7721 39.2036 35.7716C39.0374 35.7698 38.8734 35.8108 38.7276 35.8906L37.9677 36.3484L37.4184 36.6779L32.7769 39.4244C32.5995 39.532 32.4639 39.6966 32.3923 39.8913L32.1726 40.4864L28.6388 50.0991L27.0276 54.5026C26.9732 54.6785 26.9732 54.8668 27.0276 55.0427L27.1832 55.6744L27.4212 56.5899L28.7945 61.8906C28.8319 62.0349 28.904 62.1679 29.0045 62.278C29.105 62.3881 29.2309 62.4719 29.3712 62.5223L35.9902 64.9484C36.1291 64.9995 36.2782 65.0162 36.4249 64.997C36.5716 64.9779 36.7114 64.9235 36.8325 64.8385L42.005 61.1765L42.6367 60.7279L42.7557 60.6364C42.85 60.5403 42.9219 60.4247 42.9663 60.2977L43.1677 59.7484L42.4628 59.0068L42.2797 58.8054L42.06 57.5054L41.41 59.2815L41.3367 59.4737L40.7233 59.904L36.1459 63.1265L30.4332 61.0301L29.0874 55.8484L28.8402 54.9329L29.4445 53.285L31.5776 47.435L33.5916 42.0244L34.0036 40.8892L39.0388 37.8681L39.1121 37.8132L39.286 37.7124L39.4233 37.7674L40.5952 38.1885L41.2177 38.4174L42.1332 38.7378L42.2705 38.7927L42.9846 39.0582L43.1402 38.7927L44.3945 38.6005L45.0536 38.4998V38.8477L45.1726 41.411L46.198 44.6885V44.7526L46.436 45.485L46.2071 46.1075L44.7607 50.0808L45.0536 51.9117L45.3466 53.7427L47.5987 47.6089L47.9557 46.6293L48.2853 45.7139C48.2894 45.6896 48.2894 45.6649 48.2853 45.6406L47.8825 45.1737L47.9008 45.2103Z" fill="#CB5F10"/>
<path d="M41.1809 51.7745L40.54 53.6695L40.1738 54.7681C40.0818 55.045 39.936 55.301 39.7448 55.5214C39.5536 55.7418 39.3207 55.9223 39.0596 56.0524C38.7984 56.1826 38.5141 56.2599 38.223 56.2798C37.9319 56.2998 37.6397 56.2621 37.3633 56.1688L35.221 55.4547C34.9441 55.3627 34.6881 55.2169 34.4677 55.0257C34.2473 54.8345 34.0669 54.6016 33.9367 54.3405C33.8066 54.0793 33.7293 53.795 33.7093 53.5039C33.6893 53.2128 33.727 52.9207 33.8203 52.6442L34.1224 51.7287L34.6626 50.1815L35.2027 48.5611L35.8619 46.6111C36.0249 46.1165 36.3583 45.6958 36.8026 45.4242C37.247 45.1525 37.7734 45.0476 38.2879 45.128C38.4152 45.1463 38.5406 45.1738 38.6633 45.2104L39.0844 45.3477L39.2583 45.4118L39.9999 45.604L40.2837 45.6956L40.4393 46.6935L41.2266 51.7562L41.1809 51.7745Z" fill="#E6C848"/>
<path d="M55.0415 48.3505L53.9338 47.1879L53.0824 46.2724C52.6777 45.8446 52.4592 45.2739 52.4746 44.6853C52.4901 44.0967 52.7383 43.5382 53.1648 43.1322L53.2929 43.0132L54.0986 42.2442L55.0141 48.3322L55.0415 48.3505ZM52.6521 62.5132L46.6281 63.4287L43.1584 59.7667L42.4535 59.0252L42.2704 58.8238L42.0598 57.5055L41.1443 51.8202L40.357 46.7576L40.2014 45.7597L40.0824 44.9815L40 44.1393L40.5126 43.2238L42.069 40.4773L42.9295 38.985L43.0852 38.7195L44.3394 38.5273L44.9986 38.4266V38.7745L45.1176 41.3379L45.264 44.6794C45.273 44.8893 45.3538 45.0897 45.4929 45.247L45.8317 45.6315C45.3479 45.8828 44.9572 46.2822 44.7167 46.7714C44.4762 47.2607 44.3985 47.814 44.495 48.3505L44.7605 50.0717L45.0535 51.9026L45.3464 53.7336V53.9717C45.3967 54.3021 45.5117 54.6193 45.6849 54.9051C45.8582 55.1909 46.0862 55.4397 46.3559 55.637C46.6256 55.8344 46.9316 55.9766 47.2564 56.0552C47.5813 56.1339 47.9184 56.1477 48.2486 56.0956L49.8415 55.8484C50.5079 55.7426 51.1051 55.3765 51.5016 54.8306C51.8982 54.2847 52.0617 53.6036 51.9563 52.9371L51.9014 52.5801L55.3345 56.4801L55.3894 56.8097L52.6429 62.5132H52.6521ZM56.2317 56.1048L55.9753 54.4386L54.8493 53.1569L51.407 49.266L48.3035 45.7505L47.9007 45.2836L47.095 44.3681L46.9486 41.0266L46.8204 38.1702L48.0288 37.0991L46.3535 37.3646L44.9894 37.5752L44.4493 37.6576L42.6183 37.9505H42.5633L42.1605 38.6463L42.1148 38.7287L41.2542 40.2118L39.6338 42.9308L39.0845 43.9562L39.231 44.8717L39.3042 45.366L39.4507 46.2815L39.6155 47.316L40.5859 53.6238L41.4556 59.1808L42.1514 59.9132L42.7922 60.5907L46.3443 64.3442L53.3112 63.2639L56.2957 57.121L56.4148 56.8738L56.2774 55.9583L56.2317 56.1048Z" fill="white"/>
<path d="M55.4169 56.8097L52.6704 62.5132L46.6465 63.4287L43.1768 59.7667L42.4718 59.0252L42.2887 58.8238L42.0599 57.5054L41.1444 51.8202L40.357 46.7576L40.2014 45.7597L40.0824 44.9815L40 44.1393L40.5127 43.2238L42.069 40.4773L42.9296 38.985L43.0852 38.7195L44.3394 38.5273L44.9986 38.4266V38.7745L45.1176 41.3378L45.2641 44.6794C45.273 44.8892 45.3538 45.0897 45.493 45.247L45.8317 45.6315C45.3479 45.8828 44.9572 46.2822 44.7167 46.7714C44.4762 47.2607 44.3985 47.814 44.4951 48.3505L44.7606 50.0716L45.0535 51.9026L45.3465 53.7336V53.9716C45.3967 54.3021 45.5117 54.6193 45.685 54.9051C45.8582 55.1909 46.0862 55.4397 46.3559 55.637C46.6256 55.8344 46.9317 55.9765 47.2565 56.0552C47.5813 56.1339 47.9185 56.1476 48.2486 56.0956L49.8415 55.8484C50.508 55.7426 51.1051 55.3765 51.5017 54.8306C51.8982 54.2847 52.0618 53.6036 51.9563 52.9371L51.9014 52.5801L55.3345 56.4801L55.3894 56.8097H55.4169Z" fill="white"/>
<path d="M50.0702 36.7237C50.022 36.8614 50.0075 37.0087 50.0278 37.1531C50.0481 37.2976 50.1026 37.4351 50.1868 37.5542C50.271 37.6734 50.3824 37.7707 50.5118 37.838C50.6412 37.9053 50.7849 37.9408 50.9307 37.9413C51.0574 37.9415 51.1825 37.9133 51.2969 37.8589L50.0702 36.7237ZM54.9131 41.5301C54.8774 41.5547 54.8437 41.5823 54.8124 41.6125L54.1075 42.2808L53.3019 43.0498L53.9427 47.2061L55.0413 48.3505L56.1491 49.5223L54.904 41.5118L54.9131 41.5301ZM57.2385 56.5075L57.0829 55.592L57.0096 55.0794C56.9162 55.1599 56.8466 55.2643 56.8082 55.3815L55.9843 54.466L54.8582 53.1843L55.1054 54.7589L55.3617 56.4434L55.4167 56.773L52.6702 62.4765L46.6462 63.392L43.1765 59.7301L42.4716 58.9885L42.2885 58.7871L42.0596 57.5054L41.1441 51.8202L40.3568 46.7575L40.2012 45.7596L40.0822 44.9815L39.9998 44.1392L40.5124 43.2237L42.0688 40.4773L42.9293 38.985L43.085 38.7195L44.3392 38.5272L44.9984 38.4265L45.9138 38.2801H45.9779L46.8202 38.1519L48.0286 37.0808L49.1547 36.0646C49.0372 36.0372 48.9151 36.0372 48.7977 36.0646L47.5892 36.2477L45.9138 36.5132L42.6364 37.0167H42.3434C42.2068 37.0369 42.0766 37.0878 41.9624 37.1655C41.8483 37.2431 41.7532 37.3456 41.6843 37.4653L41.6202 37.5751L41.4554 37.8498L41.1533 38.3808L40.9702 38.7012L40.3019 39.8639L38.2512 43.4984C38.1429 43.68 38.1009 43.8935 38.1322 44.1026L38.2878 45.1005L38.416 45.9427L38.5807 46.9956L38.7455 48.0392L39.8807 55.3632L40.5033 59.4096C40.5288 59.5809 40.6054 59.7404 40.723 59.8674L41.3364 60.5174L41.9772 61.1857L45.6392 65.0216C45.7246 65.1137 45.8279 65.1872 45.9429 65.2376C46.0579 65.288 46.182 65.3142 46.3075 65.3146H46.4448L53.4117 64.2435C53.5593 64.2205 53.699 64.1618 53.8187 64.0724C53.9384 63.983 54.0344 63.8658 54.0984 63.7308L57.1653 57.423V57.3406C57.2471 57.1732 57.2758 56.9847 57.2477 56.8005V56.4984L57.2385 56.5075Z" fill="#CB5F10"/>
<path d="M49.8782 55.9216L48.2852 56.1688C47.9551 56.2208 47.6179 56.2071 47.2931 56.1284C46.9683 56.0497 46.6623 55.9076 46.3926 55.7102C46.1229 55.5128 45.8948 55.2641 45.7216 54.9783C45.5484 54.6925 45.4333 54.3753 45.3831 54.0448V53.8068L45.0902 51.9758L44.7972 50.1448L44.4951 48.3505C44.39 47.7191 44.5294 47.0714 44.8848 46.5391C45.2402 46.0068 45.7851 45.6299 46.4085 45.485H46.7838L47.3423 45.4026L47.8641 45.3202L48.2669 45.7871L51.4071 49.266L51.6634 50.9322L51.9014 52.58L51.9655 53.0103C52.071 53.6768 51.9074 54.3579 51.5108 54.9038C51.1143 55.4497 50.5171 55.8158 49.8507 55.9216H49.8782Z" fill="#4D7BCA"/>
<path d="M76.0063 20.1258H60.7908V17.0864L57.8704 18.7709C57.2628 17.629 56.4036 16.6402 55.3576 15.8792C54.3117 15.1182 53.1064 14.605 51.8329 14.3783C50.5595 14.1517 49.2511 14.2175 48.0068 14.5709C46.7626 14.9243 45.6149 15.5559 44.6507 16.4181C45.802 16.7601 46.897 17.269 47.9007 17.9287C48.2302 18.2125 48.7338 18.4871 48.8894 18.7984C49.1199 19.458 49.1744 20.1663 49.0475 20.8535C48.9207 21.5406 48.6169 22.1828 48.1662 22.7167C47.3538 23.5072 46.3062 24.0118 45.1816 24.154C44.1471 24.4012 43.0943 24.6026 42.0415 24.7582C42.4459 26.4456 43.3552 27.9696 44.6481 29.1269C45.9409 30.2843 47.5559 31.0199 49.2776 31.2357C50.9993 31.4516 52.7459 31.1373 54.2844 30.335C55.8229 29.5326 57.0803 28.2802 57.8887 26.7449L60.7908 28.4202V25.4082H76.0063C76.2968 25.4094 76.5847 25.3533 76.8534 25.2429C77.1222 25.1326 77.3665 24.9703 77.5723 24.7653C77.7782 24.5603 77.9415 24.3166 78.053 24.0483C78.1644 23.7801 78.2218 23.4924 78.2218 23.2019V22.3413C78.2218 21.7537 77.9884 21.1902 77.5729 20.7747C77.1574 20.3593 76.5939 20.1258 76.0063 20.1258Z" fill="#EBDDD2"/>
<path d="M77.3064 23.1928C77.3076 23.3638 77.2748 23.5334 77.2099 23.6917C77.145 23.85 77.0493 23.9938 76.9283 24.1147C76.8074 24.2357 76.6636 24.3314 76.5053 24.3963C76.347 24.4612 76.1774 24.494 76.0064 24.4928H60.7909C60.5481 24.4928 60.3152 24.5892 60.1435 24.7609C59.9718 24.9326 59.8754 25.1655 59.8754 25.4083V26.8364L58.3465 25.9209C58.2399 25.8582 58.1216 25.8178 57.9988 25.802C57.8761 25.7863 57.7515 25.7956 57.6324 25.8294C57.5132 25.8638 57.4022 25.9222 57.3062 26.0009C57.2102 26.0796 57.1312 26.177 57.074 26.2871C56.5028 27.375 55.6763 28.3081 54.6654 29.0065C53.6545 29.7049 52.4893 30.1477 51.2698 30.297C50.9665 30.3405 50.6606 30.3619 50.3543 30.3611C48.8041 30.376 47.2869 29.9141 46.008 29.0381C44.7291 28.162 43.7503 26.914 43.2043 25.4632C43.9367 25.335 44.6507 25.1885 45.3282 25.0329H45.3831C46.7014 24.8478 47.923 24.237 48.862 23.2935C49.4206 22.6287 49.7936 21.8281 49.9431 20.9728C50.0926 20.1175 50.0134 19.2379 49.7134 18.423C49.4834 18.051 49.17 17.7376 48.7979 17.5076L48.4958 17.2238H48.45C48.1378 16.9612 47.7932 16.7396 47.4247 16.5646H47.3789C47.1317 16.4386 46.878 16.3255 46.619 16.2259C47.5036 15.7213 48.4805 15.3997 49.4918 15.2801C50.5031 15.1605 51.5281 15.2455 52.506 15.5299C53.4838 15.8142 54.3945 16.2923 55.1839 16.9355C55.9734 17.5788 56.6255 18.3742 57.1014 19.2745C57.1596 19.3829 57.239 19.4786 57.335 19.5556C57.4309 19.6327 57.5414 19.6897 57.6599 19.723C57.8998 19.788 58.1552 19.7588 58.374 19.6407L59.9212 18.7252V20.1899C59.9212 20.4328 60.0176 20.6656 60.1893 20.8373C60.361 21.009 60.5939 21.1054 60.8367 21.1054H76.0064C76.7241 21.1054 77.3064 21.6877 77.3064 22.4054V23.2569V23.1928ZM76.0064 19.2104H61.7064V17.0773C61.7054 16.917 61.6624 16.7599 61.5817 16.6215C61.5009 16.483 61.3853 16.3683 61.2463 16.2886C61.1072 16.2089 60.9497 16.167 60.7895 16.1673C60.6293 16.1675 60.4719 16.2098 60.3331 16.2899L58.1909 17.5259C57.4008 16.341 56.353 15.35 55.126 14.6271C53.8989 13.9042 52.5243 13.468 51.105 13.3512H50.4824C48.2456 13.3073 46.068 14.0712 44.3486 15.5026C44.2388 15.585 44.1381 15.6766 44.0374 15.7681C43.9222 15.871 43.835 16.0013 43.7838 16.147C43.7326 16.2927 43.719 16.4489 43.7444 16.6012C43.771 16.7526 43.8352 16.8948 43.9312 17.0148C44.0272 17.1348 44.1519 17.2287 44.2937 17.2878C44.5317 17.3977 44.8247 17.4984 45.1451 17.6083C45.6505 17.7822 46.1457 17.9836 46.6282 18.2125C46.7861 18.2915 46.939 18.3802 47.086 18.478C47.1175 18.4935 47.1456 18.5153 47.1683 18.5421L47.2965 18.6428C47.4247 18.7526 47.5712 18.8533 47.7176 18.9632L48.0655 19.2287C48.21 19.722 48.2304 20.2433 48.125 20.7463C48.0196 21.2494 47.7916 21.7187 47.4613 22.1125C46.7867 22.7254 45.9396 23.1155 45.0352 23.2294H44.962C43.9916 23.4583 42.9571 23.6505 41.886 23.8153C41.7008 23.8531 41.5318 23.9474 41.4023 24.0851C41.2728 24.2228 41.1891 24.3972 41.1627 24.5843C41.1398 24.6961 41.1398 24.8113 41.1627 24.923C41.2268 25.1794 41.2909 25.4357 41.3733 25.6738C41.3724 25.689 41.3724 25.7043 41.3733 25.7195C42.0508 27.8135 43.442 29.6031 45.3043 30.776C47.1665 31.9489 49.3815 32.4306 51.5627 32.1371C52.1865 32.0633 52.8004 31.9221 53.3937 31.716C55.3792 31.0455 57.0837 29.7308 58.2367 27.9808L60.3606 29.2076C60.5 29.2881 60.6582 29.3304 60.8193 29.3302C60.9803 29.3301 61.1384 29.2874 61.2777 29.2066C61.417 29.1259 61.5325 29.0098 61.6126 28.8701C61.6926 28.7304 61.7345 28.5721 61.7338 28.4111V26.3238H76.0064C76.4175 26.3238 76.8247 26.2428 77.2045 26.0854C77.5844 25.9281 77.9296 25.6974 78.2203 25.4067C78.5111 25.116 78.7417 24.7708 78.899 24.3909C79.0564 24.0111 79.1374 23.6039 79.1374 23.1928V22.3414C79.1374 21.511 78.8075 20.7146 78.2203 20.1274C77.6331 19.5402 76.8368 19.2104 76.0064 19.2104Z" fill="#CB5F10"/>
<path d="M47.8002 24.1174C46.0099 24.7807 44.1527 25.2473 42.2615 25.5089L41.5108 25.6371H41.3551C40.2474 25.8294 39.0572 26.0216 37.803 26.223C30.5889 27.3399 21.5072 28.3653 17.4424 28.3653H16.4171C14.3223 28.2529 12.245 27.9215 10.2192 27.3765C9.90723 27.2794 9.6015 27.1632 9.30371 27.0287C9.13892 26.9554 8.98329 26.873 8.84597 26.7998H8.87343C8.6691 26.6738 8.52244 26.4726 8.46504 26.2395C8.40764 26.0064 8.44408 25.7601 8.56653 25.5536C8.68898 25.3471 8.88763 25.197 9.11969 25.1355C9.35176 25.0741 9.59866 25.1063 9.80723 25.2251C9.95188 25.3075 10.102 25.3808 10.2558 25.4448C12.3026 26.1057 14.4321 26.4755 16.5819 26.5434C20.6284 26.8089 32.9326 25.2434 40.6044 23.9251L41.7213 23.7329C43.4906 23.4927 45.2343 23.0913 46.9305 22.5336C47.2924 22.2754 47.5767 21.923 47.7526 21.5147C47.9285 21.1064 47.9893 20.6578 47.9284 20.2174C47.8987 19.5843 47.6419 18.983 47.2051 18.5237C47.1823 18.4969 47.1543 18.4751 47.1227 18.4596C47.0043 18.3538 46.8679 18.2701 46.7199 18.2125H46.665C42.1172 16.5887 37.4728 15.2495 32.7586 14.2026C29.4171 13.6808 24.1255 12.2618 23.9058 12.2068C23.6703 12.1437 23.4695 11.9896 23.3476 11.7784C23.2257 11.5672 23.1927 11.3163 23.2558 11.0808C23.319 10.8452 23.4731 10.6444 23.6842 10.5226C23.8954 10.4007 24.1464 10.3676 24.3819 10.4308C24.3819 10.4308 29.8016 11.8864 33.0424 12.3991C36.8677 13.2041 40.6429 14.2312 44.3488 15.4751L45.4016 15.8139H45.4474C46.2439 16.0794 46.903 16.3082 47.3333 16.473H47.3791C47.7591 16.6267 48.1069 16.8503 48.4044 17.1322C49.1624 17.9003 49.612 18.92 49.6678 19.9977C49.7671 20.7843 49.6397 21.583 49.3008 22.2997C48.9619 23.0165 48.4254 23.6217 47.7544 24.0441L47.8002 24.1174Z" fill="#CB5F10"/>
<path d="M41.831 18.5237C41.6057 18.7001 41.4198 18.9217 41.2852 19.1743C41.1507 19.4269 41.0705 19.7048 41.0498 19.9902C41.0291 20.2756 41.0684 20.5622 41.1651 20.8315C41.2618 21.1009 41.4138 21.347 41.6113 21.554L41.831 18.5237Z" fill="white"/>
<path d="M42.2339 19.3385C42.0564 19.5411 41.9587 19.8015 41.9593 20.0709C41.9353 20.2074 41.9427 20.3475 41.9807 20.4807C42.0188 20.6139 42.0866 20.7367 42.179 20.8399C42.279 20.9133 42.3631 21.0062 42.4262 21.1131C42.4892 21.2199 42.5298 21.3385 42.5456 21.4615C42.5614 21.5846 42.5521 21.7096 42.5181 21.8289C42.4841 21.9482 42.4262 22.0594 42.348 22.1556C42.2697 22.2519 42.1727 22.3312 42.0629 22.3889C41.953 22.4465 41.8326 22.4812 41.7089 22.4909C41.5852 22.5005 41.4608 22.4849 41.3434 22.4451C41.2259 22.4052 41.1177 22.3419 41.0255 22.2589C40.6793 21.9576 40.4141 21.5744 40.2542 21.1442C40.0942 20.714 40.0447 20.2505 40.11 19.7963C40.1333 19.3691 40.2616 18.9543 40.4835 18.5885C40.7055 18.2228 41.0143 17.9176 41.3825 17.6998C41.5987 17.6005 41.8451 17.5892 42.0694 17.6684C42.2938 17.7476 42.4785 17.9111 42.5844 18.1241C42.6903 18.3372 42.7092 18.5831 42.6369 18.8097C42.5647 19.0364 42.407 19.2261 42.1973 19.3385H42.2339Z" fill="#CB5F10"/>
<path d="M58.9049 55.9857L58.1084 56.4617C57.9671 56.5456 57.8058 56.5899 57.6415 56.5899H57.2844C57.08 56.4854 56.9223 56.3078 56.8426 56.0925C56.7629 55.8771 56.767 55.6397 56.8542 55.4272C56.8926 55.3101 56.9622 55.2056 57.0556 55.1251L57.1288 55.6378L58.9598 56.0864L58.9049 55.9857Z" fill="#DC9C42"/>
<path d="M62.2741 49.4857L60.6354 51.0421C60.2077 51.4467 59.6369 51.6652 59.0483 51.6498C58.4597 51.6343 57.9012 51.3862 57.4953 50.9597L56.1495 49.5407L55.0418 48.3505L53.934 47.1879L53.0826 46.2724C52.678 45.8446 52.4594 45.2739 52.4749 44.6853C52.4903 44.0967 52.7385 43.5382 53.165 43.1322L53.2932 43.0132L54.0988 42.2442L54.8037 41.5759C54.835 41.5457 54.8687 41.5182 54.9044 41.4935C55.3362 41.1275 55.8917 40.9406 56.4569 40.9713C57.0221 41.0019 57.5542 41.2477 57.9439 41.6583L62.3565 46.309C62.7612 46.7367 62.9797 47.3075 62.9643 47.8961C62.9488 48.4847 62.7006 49.0432 62.2741 49.4491V49.4857Z" fill="white"/>
<path d="M63.1071 57.0202L58.905 55.9857L57.074 55.5371L57.0008 55.0245C56.9074 55.105 56.8378 55.2094 56.7994 55.3266L55.9755 54.4111L54.8494 53.1294L51.4071 49.266L48.3036 45.7505L47.9008 45.2836L47.0952 44.3681L46.9487 41.0266L46.8205 38.1702L48.029 37.0991L49.155 36.0646L50.986 34.4259H51.0776C50.8283 35.1614 50.4933 35.8651 50.0797 36.5223C50.043 36.5788 50.0152 36.6406 49.9973 36.7054C49.9491 36.8431 49.9346 36.9904 49.9549 37.1348C49.9752 37.2793 50.0297 37.4168 50.1139 37.536C50.1981 37.6551 50.3095 37.7524 50.4389 37.8197C50.5683 37.887 50.712 37.9225 50.8578 37.923C50.9845 37.9232 51.1096 37.895 51.224 37.8407C51.3958 37.773 51.5405 37.6507 51.636 37.4928C52.1732 36.6353 52.5979 35.7122 52.8994 34.7463L57.0283 35.5061L67.4649 46.3181L67.7029 52.928L63.1255 56.9928L63.1071 57.0202ZM68.3804 45.9336L57.5409 34.6914L53.1924 33.8857L51.3614 33.5561L50.7571 33.4463L47.5987 36.1928L46.3536 37.3646L45.8867 37.7766V38.3533L46.0149 41.2463L46.198 44.6885L46.8022 45.3752L47.2416 45.8787L47.9374 46.6569L51.6452 50.859L55.1057 54.759L56.2318 56.0315L56.4515 56.2787L57.2297 56.4709H57.4769L63.3452 57.9266L68.6367 53.2576L68.3804 45.9336Z" fill="white"/>
<path d="M58.9047 55.9857L57.0738 55.5371H56.9456L56.7991 55.3632L55.9752 54.4477L54.8491 53.166L51.4069 49.266L48.3033 45.7505L47.9005 45.2836L47.0949 44.3681L46.9484 41.0266L46.8202 38.1702L48.0287 37.0991L49.1547 36.0646L50.9857 34.4259H51.0773L52.9083 34.7554L57.0371 35.5153L67.4646 46.3181L67.7026 52.928L63.1252 56.9928L58.923 55.9583L58.9047 55.9857ZM69.2956 45.897C69.2855 45.674 69.1944 45.4624 69.0392 45.3019L58.209 34.0505C58.0739 33.9153 57.9019 33.8229 57.7146 33.785L53.3294 32.9885L51.4984 32.659L50.9857 32.5491C50.8485 32.5225 50.7071 32.5276 50.5722 32.5641C50.4373 32.6006 50.3126 32.6675 50.2076 32.7597L45.9505 36.4949L45.2822 37.0808C45.1357 37.2075 45.0331 37.3774 44.9892 37.566C44.9756 37.6478 44.9756 37.7314 44.9892 37.8132V38.8111L45.1083 41.3745L45.2547 44.716C45.2637 44.9259 45.3445 45.1263 45.4836 45.2836L45.8223 45.6681L46.1885 46.0801L46.8752 46.8674L47.5709 47.6456L51.9012 52.5801L55.3343 56.4801L55.7371 56.9287C55.8583 57.0692 56.0224 57.1657 56.204 57.2033L57.1195 57.4322L63.0885 58.9153C63.2343 58.9438 63.3846 58.9397 63.5287 58.9033C63.6727 58.8669 63.8069 58.7991 63.9216 58.7047L69.204 54.0449C69.3065 53.9551 69.3875 53.8436 69.4414 53.7184C69.4952 53.5933 69.5205 53.4578 69.5153 53.3216L69.2956 45.897Z" fill="#CB5F10"/>
<path d="M62.2738 49.4857L60.6351 51.042C60.2073 51.4467 59.6366 51.6652 59.048 51.6498C58.4594 51.6343 57.9009 51.3861 57.495 50.9596L56.1492 49.5406L55.0414 48.3505L53.9337 47.1878L53.0823 46.2723C52.6777 45.8446 52.4591 45.2738 52.4746 44.6852C52.49 44.0966 52.7382 43.5381 53.1647 43.1322L53.2928 43.0132L54.0985 42.2442L54.8034 41.5758C54.8347 41.5457 54.8684 41.5181 54.9041 41.4934C55.3359 41.1274 55.8914 40.9406 56.4566 40.9712C57.0218 41.0019 57.5539 41.2477 57.9435 41.6582L62.3562 46.3089C62.7608 46.7367 62.9794 47.3074 62.9639 47.896C62.9485 48.4846 62.7003 49.0431 62.2738 49.4491V49.4857ZM67.4647 46.3181L57.0921 35.5336L52.9633 34.7737C52.6617 35.7396 52.2371 36.6627 51.6999 37.5202C51.6044 37.6782 51.4597 37.8004 51.2879 37.8681C51.1735 37.9225 51.0484 37.9506 50.9217 37.9505C50.7755 37.949 50.6318 37.9125 50.5026 37.844C50.3734 37.7755 50.2625 37.6771 50.1791 37.557C50.0958 37.4369 50.0424 37.2986 50.0235 37.1536C50.0045 37.0086 50.0206 36.8612 50.0703 36.7237C50.0883 36.6588 50.1161 36.5971 50.1527 36.5406C50.5664 35.8833 50.9013 35.1797 51.1506 34.4442H51.059L49.2281 36.0829L48.0654 37.1174L46.8569 38.1885L46.9485 41.0265L47.095 44.304L47.9006 45.2195L48.3034 45.6864L51.4069 49.266L54.8492 53.1568L55.9752 54.4385L56.7992 55.354C56.8376 55.2369 56.9072 55.1324 57.0006 55.0519L57.0738 55.5646L58.9048 56.0132L63.1069 57.0477L67.6844 52.9829L67.4647 46.3181Z" fill="white"/>
<path d="M52.5241 14.5322C52.4241 14.6369 52.3022 14.7182 52.1671 14.7702C51.9469 14.8497 51.7046 14.8418 51.49 14.7481C51.2755 14.6545 51.105 14.4822 51.0135 14.2667C50.9576 14.1078 50.8934 13.952 50.8213 13.7998L50.6107 13.3695C50.399 12.911 50.1511 12.4702 49.8692 12.0512C48.3861 10.8153 30.6072 3.90332 25.453 3.49135C21.2509 3.18923 12.5354 6.03642 10.21 6.84205L9.60579 7.05261C9.50893 7.1046 9.40349 7.13871 9.29453 7.15332C9.05172 7.15332 8.81886 7.05686 8.64718 6.88518C8.47549 6.71349 8.37903 6.48063 8.37903 6.23782C8.36738 6.04044 8.41994 5.84459 8.52886 5.67957C8.63777 5.51454 8.79719 5.38921 8.98326 5.32233L9.29453 5.21247L9.81636 5.02937L10.21 4.90121C13.2861 3.87585 21.2966 1.35825 25.5903 1.66036C30.3966 2.02656 50.1255 9.11247 51.334 10.9068C51.8877 11.7388 52.3482 12.6291 52.7072 13.5618C52.7604 13.7176 52.7707 13.8848 52.7368 14.0459C52.703 14.207 52.6263 14.356 52.5149 14.4773L52.5241 14.5322ZM53.3297 32.9885C53.3023 33.2961 53.2565 33.6019 53.1924 33.904C53.1332 34.2132 53.0568 34.5189 52.9635 34.8195C52.662 35.7854 52.2374 36.7085 51.7002 37.566C51.6047 37.724 51.4599 37.8462 51.2882 37.9139C51.1738 37.9682 51.0487 37.9963 50.922 37.9963C50.7537 37.9951 50.589 37.9476 50.4459 37.859C50.2577 37.7461 50.1162 37.5695 50.0473 37.3611C49.9784 37.1527 49.9867 36.9265 50.0706 36.7237C50.0885 36.6589 50.1163 36.5971 50.153 36.5406C50.5666 35.8834 50.9016 35.1797 51.1509 34.4442C51.2607 34.1466 51.3431 33.8399 51.398 33.5287C51.4693 33.2275 51.5182 32.9215 51.5445 32.6132V32.0913C51.5471 31.785 51.5257 31.4789 51.4804 31.1759C51.436 30.8645 51.3624 30.558 51.2607 30.2604C51.2496 30.2103 51.2343 30.1613 51.2149 30.1139C50.9483 29.377 50.5156 28.7113 49.9504 28.1684C49.3853 27.6254 48.7028 27.2198 47.9558 26.9829C47.8374 26.9491 47.7271 26.8918 47.6313 26.8144C47.5356 26.737 47.4565 26.641 47.3987 26.5323C47.3409 26.4236 47.3056 26.3044 47.295 26.1818C47.2843 26.0591 47.2985 25.9356 47.3367 25.8186C47.3749 25.7015 47.4363 25.5934 47.5172 25.5006C47.5982 25.4079 47.697 25.3324 47.8078 25.2787C47.9186 25.225 48.039 25.1942 48.162 25.1882C48.285 25.1821 48.4079 25.2009 48.5234 25.2435C49.5346 25.5673 50.4581 26.1186 51.223 26.855C51.988 27.5913 52.574 28.4932 52.9361 29.4913C52.9361 29.6012 53.0093 29.7111 53.0368 29.8209C53.1375 30.1185 53.2107 30.4251 53.2565 30.7364C53.3114 31.0385 53.3453 31.3443 53.3572 31.6519C53.403 32.0749 53.403 32.5015 53.3572 32.9244L53.3297 32.9885Z" fill="#CB5F10"/>
<path d="M62.2741 49.4857L60.6354 51.0421C60.2077 51.4467 59.6369 51.6652 59.0483 51.6498C58.4597 51.6343 57.9012 51.3862 57.4953 50.9597L56.1495 49.5407L55.0418 48.3505L53.934 47.1879L53.0826 46.2724C52.678 45.8446 52.4594 45.2739 52.4749 44.6853C52.4903 44.0967 52.7385 43.5382 53.165 43.1322L53.2932 43.0132L54.0988 42.2442L54.8037 41.5759C54.835 41.5457 54.8687 41.5182 54.9044 41.4935C55.3362 41.1275 55.8917 40.9406 56.4569 40.9713C57.0221 41.0019 57.5542 41.2477 57.9439 41.6583L62.3565 46.309C62.7612 46.7367 62.9797 47.3075 62.9643 47.8961C62.9488 48.4847 62.7006 49.0432 62.2741 49.4491V49.4857Z" fill="#4F497A"/>
<path d="M1.54932 2.96039H9.29439V30.7639H1.54932V2.96039Z" fill="white"/>
<path d="M10.2098 2.96035V30.7639C10.2098 31.0067 10.1134 31.2395 9.9417 31.4112C9.77001 31.5829 9.53716 31.6794 9.29435 31.6794H1.54928C1.30648 31.6794 1.07362 31.5829 0.901931 31.4112C0.730243 31.2395 0.633789 31.0067 0.633789 30.7639C0.633789 30.5211 0.730243 30.2882 0.901931 30.1165C1.07362 29.9448 1.30648 29.8484 1.54928 29.8484H8.37886V3.87585H1.54928C1.30648 3.87585 1.07362 3.77939 0.901931 3.6077C0.730243 3.43602 0.633789 3.20316 0.633789 2.96035C0.633789 2.71755 0.730243 2.48469 0.901931 2.313C1.07362 2.14131 1.30648 2.04486 1.54928 2.04486H9.29435C9.53716 2.04486 9.77001 2.14131 9.9417 2.313C10.1134 2.48469 10.2098 2.71755 10.2098 2.96035Z" fill="#CB5F10"/>
</svg>
