<svg width="15" height="16" viewBox="0 0 15 16" fill="none" xmlns="http://www.w3.org/2000/svg">
<path d="M10.0247 5.25073C9.53015 2.95386 8.47547 1.50073 7.5 1.50073C6.52453 1.50073 5.46984 2.95386 4.97531 5.25073H10.0247Z" fill="#CB5F10"/>
<path d="M4.6875 8.06323C4.68738 8.69032 4.7292 9.31672 4.81266 9.93823H10.1873C10.2708 9.31672 10.3126 8.69032 10.3125 8.06323C10.3126 7.43614 10.2708 6.80974 10.1873 6.18823H4.81266C4.7292 6.80974 4.68738 7.43614 4.6875 8.06323Z" fill="#CB5F10"/>
<path d="M4.97531 10.8757C5.46984 13.1726 6.52453 14.6257 7.5 14.6257C8.47547 14.6257 9.53015 13.1726 10.0247 10.8757H4.97531Z" fill="#CB5F10"/>
<path d="M10.9847 5.25071H13.9378C13.4941 4.24091 12.8199 3.34916 11.9693 2.64696C11.1187 1.94477 10.1154 1.45169 9.03986 1.20728C9.92907 1.98962 10.6266 3.43618 10.9847 5.25071Z" fill="#CB5F10"/>
<path d="M14.2749 6.18823H11.1342C11.2116 6.81024 11.2502 7.43644 11.25 8.06323C11.2501 8.69004 11.2112 9.31624 11.1338 9.93823H14.2744C14.6162 8.7116 14.6162 7.41486 14.2744 6.18823H14.2749Z" fill="#CB5F10"/>
<path d="M9.03986 14.9192C10.1156 14.6749 11.1191 14.1819 11.9699 13.4797C12.8206 12.7775 13.495 11.8856 13.9388 10.8757H10.9856C10.6266 12.6903 9.92907 14.1368 9.03986 14.9192Z" fill="#CB5F10"/>
<path d="M4.01532 10.8757H1.06219C1.506 11.8856 2.18034 12.7775 3.0311 13.4797C3.88186 14.1819 4.88537 14.6749 5.9611 14.9192C5.07094 14.1368 4.37344 12.6903 4.01532 10.8757Z" fill="#CB5F10"/>
<path d="M5.96016 1.20728C4.88442 1.45156 3.88092 1.94458 3.03016 2.64678C2.17939 3.34898 1.50506 4.24081 1.06125 5.25071H4.01437C4.37344 3.43618 5.07094 1.98962 5.96016 1.20728Z" fill="#CB5F10"/>
<path d="M3.75 8.06323C3.74994 7.43643 3.78876 6.81023 3.86625 6.18823H0.725622C0.383777 7.41486 0.383777 8.7116 0.725622 9.93823H3.86625C3.78876 9.31624 3.74994 8.69004 3.75 8.06323Z" fill="#CB5F10"/>
</svg>
