<svg width="78" height="55" viewBox="0 0 78 55" fill="none" xmlns="http://www.w3.org/2000/svg">
<g clip-path="url(#clip0_2_325)">
<path d="M73.1201 46.5549H4.62013V6.08487C4.61881 5.44975 4.74277 4.8206 4.98492 4.23344C5.22706 3.64628 5.58262 3.11265 6.03126 2.66308C6.4799 2.21351 7.0128 1.85684 7.59945 1.61349C8.18611 1.37013 8.815 1.24487 9.45013 1.24487H68.2901C68.9253 1.24487 69.5541 1.37013 70.1408 1.61349C70.7275 1.85684 71.2604 2.21351 71.709 2.66308C72.1576 3.11265 72.5132 3.64628 72.7553 4.23344C72.9975 4.8206 73.1214 5.44975 73.1201 6.08487V46.5549Z" fill="white"/>
<path d="M72.1198 45.5549H5.61979V6.08487C5.61979 5.06817 6.02299 4.09297 6.74097 3.37311C7.45895 2.65326 8.4331 2.24752 9.44979 2.24487H68.2898C69.3065 2.24752 70.2806 2.65326 70.9986 3.37311C71.7166 4.09297 72.1198 5.06817 72.1198 6.08487V45.5549ZM68.2898 0.244873H9.44979C7.90266 0.247522 6.4198 0.863976 5.32675 1.9589C4.2337 3.05383 3.61979 4.53774 3.61979 6.08487V46.5549C3.61437 46.6214 3.61437 46.6883 3.61979 46.7549H74.0998C74.1052 46.6883 74.1052 46.6214 74.0998 46.5549V6.08487C74.0998 4.54119 73.4886 3.06029 72.3999 1.96594C71.3112 0.871586 69.8335 0.252803 68.2898 0.244873V0.244873Z" fill="#CB5F10"/>
<path d="M71.6601 49.9648C71.6601 50.2301 71.5547 50.4844 71.3672 50.6719C71.1796 50.8595 70.9253 50.9648 70.6601 50.9648H7.08008C6.81486 50.9648 6.56051 50.8595 6.37297 50.6719C6.18544 50.4844 6.08008 50.2301 6.08008 49.9648C6.08008 49.6996 6.18544 49.4453 6.37297 49.2577C6.56051 49.0702 6.81486 48.9648 7.08008 48.9648H70.6601C70.9253 48.9648 71.1796 49.0702 71.3672 49.2577C71.5547 49.4453 71.6601 49.6996 71.6601 49.9648Z" fill="white"/>
<path d="M72.22 51.7849H5.52001C5.05644 51.7836 4.59768 51.691 4.1699 51.5124C3.74212 51.3338 3.35371 51.0726 3.02685 50.7439C2.69999 50.4152 2.44107 50.0253 2.26489 49.5965C2.0887 49.1678 1.9987 48.7085 2.00001 48.2449C2.00265 47.8435 2.16396 47.4595 2.44873 47.1766C2.7335 46.8937 3.11861 46.7349 3.52001 46.7349H74.22C74.6214 46.7349 75.0065 46.8937 75.2913 47.1766C75.5761 47.4595 75.7374 47.8435 75.74 48.2449C75.7374 49.1777 75.3657 50.0714 74.7061 50.731C74.0466 51.3906 73.1528 51.7623 72.22 51.7649V51.7849ZM76 46.4949C75.7674 46.2594 75.4902 46.0727 75.1845 45.9457C74.8789 45.8186 74.551 45.7537 74.22 45.7549H3.52001C2.85683 45.7549 2.22036 46.0162 1.74863 46.4824C1.27689 46.9485 1.00791 47.5818 1.00001 48.2449C0.998693 48.8388 1.11471 49.4272 1.34139 49.9762C1.56807 50.5252 1.90096 51.024 2.32095 51.444C2.74093 51.8639 3.23974 52.1968 3.78872 52.4235C4.33771 52.6502 4.92607 52.7662 5.52001 52.7649H72.22C73.4188 52.7649 74.5685 52.2887 75.4161 51.441C76.2638 50.5934 76.74 49.4437 76.74 48.2449C76.7383 47.9188 76.672 47.5963 76.545 47.2959C76.418 46.9955 76.2328 46.7233 76 46.4949Z" fill="white"/>
<path d="M72.22 51.7849H5.52C5.05643 51.7836 4.59766 51.6909 4.16989 51.5123C3.74211 51.3337 3.3537 51.0726 3.02684 50.7439C2.69998 50.4152 2.44106 50.0253 2.26487 49.5965C2.08869 49.1677 1.99868 48.7084 2 48.2449C2.00264 47.8435 2.16395 47.4594 2.44872 47.1765C2.73349 46.8936 3.1186 46.7349 3.52 46.7349H74.22C74.6214 46.7349 75.0065 46.8936 75.2913 47.1765C75.576 47.4594 75.7374 47.8435 75.74 48.2449C75.7374 49.1776 75.3657 50.0714 74.7061 50.731C74.0465 51.3905 73.1527 51.7622 72.22 51.7649V51.7849ZM74.22 44.7849H3.52C2.59674 44.7847 1.71039 45.1473 1.05196 45.7945C0.393529 46.4418 0.0157374 47.3217 0 48.2449C0 49.7089 0.58157 51.1129 1.61677 52.1481C2.65197 53.1833 4.05601 53.7649 5.52 53.7649H72.22C73.684 53.7649 75.088 53.1833 76.1232 52.1481C77.1584 51.1129 77.74 49.7089 77.74 48.2449C77.7374 47.313 77.3653 46.4203 76.7055 45.7623C76.0456 45.1043 75.1518 44.7349 74.22 44.7349V44.7849Z" fill="#CB5F10"/>
<path d="M70.66 50.9649H7.08C6.81478 50.9649 6.56043 50.8595 6.37289 50.672C6.18536 50.4844 6.08 50.2301 6.08 49.9649C6.08 49.6996 6.18536 49.4453 6.37289 49.2578C6.56043 49.0702 6.81478 48.9649 7.08 48.9649H70.66C70.9252 48.9649 71.1796 49.0702 71.3671 49.2578C71.5546 49.4453 71.66 49.6996 71.66 49.9649C71.66 50.2301 71.5546 50.4844 71.3671 50.672C71.1796 50.8595 70.9252 50.9649 70.66 50.9649ZM74.22 46.7549H3.52C3.12202 46.7548 2.73988 46.9108 2.45567 47.1894C2.17146 47.468 2.00785 47.847 2 48.2449C2.00264 49.1776 2.37434 50.0714 3.0339 50.731C3.69346 51.3905 4.58725 51.7622 5.52 51.7649H72.22C73.1527 51.7622 74.0465 51.3905 74.7061 50.731C75.3657 50.0714 75.7374 49.1776 75.74 48.2449C75.7374 47.8435 75.576 47.4594 75.2913 47.1765C75.0065 46.8936 74.6214 46.7349 74.22 46.7349V46.7549Z" fill="white"/>
<path d="M71.6601 49.9648C71.6601 50.2301 71.5547 50.4844 71.3672 50.6719C71.1796 50.8595 70.9253 50.9648 70.6601 50.9648H7.08008C6.81486 50.9648 6.56051 50.8595 6.37297 50.6719C6.18544 50.4844 6.08008 50.2301 6.08008 49.9648C6.08008 49.6996 6.18544 49.4453 6.37297 49.2577C6.56051 49.0702 6.81486 48.9648 7.08008 48.9648H70.6601C70.9253 48.9648 71.1796 49.0702 71.3672 49.2577C71.5547 49.4453 71.6601 49.6996 71.6601 49.9648Z" fill="#CB5F10"/>
<path d="M65.3299 42.2449H12.4099C11.9574 42.2436 11.5096 42.1525 11.0925 41.977C10.6755 41.8014 10.2974 41.5448 9.98021 41.222C9.66303 40.8993 9.41306 40.5168 9.24478 40.0967C9.0765 39.6766 8.99326 39.2274 8.99988 38.7749V9.49489C8.99988 8.58785 9.3602 7.71796 10.0016 7.07658C10.6429 6.43521 11.5128 6.07489 12.4199 6.07489H65.3299C66.2369 6.07489 67.1068 6.43521 67.7482 7.07658C68.3896 7.71796 68.7499 8.58785 68.7499 9.49489V38.7749C68.7562 39.2281 68.6725 39.6781 68.5035 40.0987C68.3345 40.5193 68.0836 40.9022 67.7654 41.225C67.4472 41.5478 67.0681 41.8042 66.65 41.9793C66.2319 42.1544 65.7832 42.2447 65.3299 42.2449Z" fill="white"/>
<path d="M12.4098 7.07489C11.7705 7.08015 11.1591 7.33711 10.708 7.7901C10.2568 8.24309 10.0024 8.8556 9.99979 9.49489V38.7749C9.99356 39.0959 10.0512 39.415 10.1694 39.7136C10.2875 40.0121 10.4638 40.2842 10.6881 40.514C10.9123 40.7439 11.18 40.9268 11.4756 41.0523C11.7711 41.1778 12.0887 41.2432 12.4098 41.2449H65.3298C65.9716 41.2449 66.5872 40.9899 67.041 40.5361C67.4948 40.0822 67.7498 39.4667 67.7498 38.8249V9.49489C67.7498 8.85307 67.4948 8.23753 67.041 7.78369C66.5872 7.32985 65.9716 7.07489 65.3298 7.07489H12.4098ZM65.3298 43.2449H12.4098C11.826 43.2436 11.2482 43.1267 10.7098 42.9008C10.1714 42.675 9.68309 42.3447 9.27305 41.9291C8.86302 41.5135 8.53939 41.0208 8.32085 40.4794C8.10231 39.938 7.99319 39.3587 7.99979 38.7749V9.49489C7.99979 8.32263 8.46547 7.19839 9.29438 6.36948C10.1233 5.54057 11.2475 5.07489 12.4198 5.07489H65.3298C66.5021 5.07489 67.6263 5.54057 68.4552 6.36948C69.2841 7.19839 69.7498 8.32263 69.7498 9.49489V38.7749C69.7563 39.3595 69.6467 39.9396 69.4275 40.4816C69.2083 41.0235 68.8838 41.5167 68.4727 41.9324C68.0616 42.3481 67.5722 42.6782 67.0327 42.9035C66.4932 43.1287 65.9144 43.2448 65.3298 43.2449Z" fill="#CB5F10"/>
<path d="M41.3799 4.84485H36.3799C36.1147 4.84485 35.8603 4.73949 35.6728 4.55196C35.4852 4.36442 35.3799 4.11007 35.3799 3.84485C35.3799 3.57963 35.4852 3.32528 35.6728 3.13774C35.8603 2.95021 36.1147 2.84485 36.3799 2.84485H41.3799C41.6451 2.84485 41.8995 2.95021 42.087 3.13774C42.2745 3.32528 42.3799 3.57963 42.3799 3.84485C42.3799 4.11007 42.2745 4.36442 42.087 4.55196C41.8995 4.73949 41.6451 4.84485 41.3799 4.84485Z" fill="#CB5F10"/>
<path d="M62.5602 17.2449H40.1602C39.8949 17.2449 39.6406 17.1395 39.453 16.952C39.2655 16.7644 39.1602 16.5101 39.1602 16.2449C39.1602 15.9797 39.2655 15.7253 39.453 15.5378C39.6406 15.3502 39.8949 15.2449 40.1602 15.2449H62.5602C62.8254 15.2449 63.0797 15.3502 63.2673 15.5378C63.4548 15.7253 63.5602 15.9797 63.5602 16.2449C63.5602 16.5101 63.4548 16.7644 63.2673 16.952C63.0797 17.1395 62.8254 17.2449 62.5602 17.2449ZM62.5602 25.8949H40.1602C39.8949 25.8949 39.6406 25.7895 39.453 25.602C39.2655 25.4144 39.1602 25.1601 39.1602 24.8949C39.1602 24.6297 39.2655 24.3753 39.453 24.1878C39.6406 24.0002 39.8949 23.8949 40.1602 23.8949H62.5602C62.8254 23.8949 63.0797 24.0002 63.2673 24.1878C63.4548 24.3753 63.5602 24.6297 63.5602 24.8949C63.5602 25.1601 63.4548 25.4144 63.2673 25.602C63.0797 25.7895 62.8254 25.8949 62.5602 25.8949ZM62.5602 34.1249H40.1602C39.8949 34.1249 39.6406 34.0195 39.453 33.832C39.2655 33.6444 39.1602 33.3901 39.1602 33.1249C39.1602 32.8597 39.2655 32.6053 39.453 32.4178C39.6406 32.2302 39.8949 32.1249 40.1602 32.1249H62.5602C62.8254 32.1249 63.0797 32.2302 63.2673 32.4178C63.4548 32.6053 63.5602 32.8597 63.5602 33.1249C63.5602 33.3901 63.4548 33.6444 63.2673 33.832C63.0797 34.0195 62.8254 34.1249 62.5602 34.1249Z" fill="#CB5F10"/>
<path d="M31.87 33.1249H17.75V16.0749H31.87V33.1249Z" fill="#EBDDD2"/>
<path d="M18.75 32.1249H30.87V17.1249H18.75V32.1249ZM31.87 34.1249H17.75C17.4848 34.1249 17.2304 34.0195 17.0429 33.832C16.8554 33.6445 16.75 33.3901 16.75 33.1249V16.0749C16.75 15.8097 16.8554 15.5553 17.0429 15.3678C17.2304 15.1802 17.4848 15.0749 17.75 15.0749H31.87C32.1352 15.0749 32.3896 15.1802 32.5771 15.3678C32.7646 15.5553 32.87 15.8097 32.87 16.0749V33.1249C32.87 33.3901 32.7646 33.6445 32.5771 33.832C32.3896 34.0195 32.1352 34.1249 31.87 34.1249Z" fill="#CB5F10"/>
</g>
<defs>
<clipPath id="clip0_2_325">
<rect width="78" height="54" fill="white" transform="translate(0 0.244873)"/>
</clipPath>
</defs>
</svg>
