<svg width="64" height="71" viewBox="0 0 64 71" fill="none" xmlns="http://www.w3.org/2000/svg">
<g clip-path="url(#clip0_2_281)">
<path d="M54.2101 49.3579H21.4253V21.4202L37.7784 11.1478L54.2101 21.4202V49.3579Z" fill="#EBDDD2"/>
<path d="M54.2102 50.1362H21.4254C20.9536 50.1362 20.6392 49.8249 20.6392 49.358V21.4202C20.6392 21.1868 20.7964 20.8755 21.0323 20.7977L37.3854 10.5253C37.6212 10.3697 37.9357 10.3697 38.2502 10.5253L54.6033 20.7977C54.8392 20.9533 54.9964 21.1868 54.9964 21.4202V49.358C54.9964 49.8249 54.6033 50.1362 54.2102 50.1362ZM22.2116 48.5798H53.424V21.8872L37.7785 12.0817L22.2116 21.8872V48.5798Z" fill="#CB5F10"/>
<path d="M43.1245 27.179H32.4321V40.1751H43.1245V27.179Z" fill="white"/>
<path d="M43.1246 41.0311H32.4322C31.9605 41.0311 31.646 40.7198 31.646 40.2529V27.179C31.646 26.712 31.9605 26.4008 32.4322 26.4008H43.1246C43.5963 26.4008 43.9108 26.712 43.9108 27.179V40.1751C43.9108 40.642 43.5963 41.0311 43.1246 41.0311ZM33.2184 39.4747H42.3384V27.9572H33.2184V39.4747Z" fill="#CB5F10"/>
<path d="M50.9868 17.0622H46.8199C46.3482 17.0622 46.0337 16.7509 46.0337 16.284V8.1128C46.0337 7.64588 46.3482 7.33459 46.8199 7.33459H50.9868C51.4585 7.33459 51.773 7.64588 51.773 8.1128V16.284C51.773 16.7509 51.3799 17.0622 50.9868 17.0622ZM47.6061 15.5058H50.2006V8.89102H47.6061V15.5058Z" fill="#CB5F10"/>
<path d="M37.7784 40.4864C37.3067 40.4864 36.9922 40.1751 36.9922 39.7082V27.2568C36.9922 26.7899 37.3067 26.4786 37.7784 26.4786C38.2501 26.4786 38.5646 26.7899 38.5646 27.2568V39.7082C38.5646 40.0973 38.2501 40.4864 37.7784 40.4864Z" fill="#CB5F10"/>
<path d="M43.1246 37.3736H32.5108C32.0391 37.3736 31.7246 37.0623 31.7246 36.5954C31.7246 36.1284 32.0391 35.8171 32.5108 35.8171H43.2032C43.675 35.8171 43.9894 36.1284 43.9894 36.5954C43.9894 37.0623 43.5963 37.3736 43.1246 37.3736Z" fill="#CB5F10"/>
<path d="M59.7136 22.1206L37.9357 5.7782H37.6212L15.9219 22.1206L18.595 25.6226L37.7784 11.3035L56.9619 25.6226L59.7136 22.1206Z" fill="white"/>
<path d="M56.9619 26.4008C56.8047 26.4008 56.6475 26.323 56.4902 26.2451L37.7785 12.2374L19.0668 26.2451C18.7523 26.4786 18.2019 26.4008 17.9661 26.0895L15.293 22.5875C15.1357 22.4319 15.1357 22.1984 15.1357 22.0428C15.1357 21.8872 15.293 21.6537 15.4502 21.4981L37.2282 5.15564C37.3068 5.07782 37.464 5 37.6213 5H37.9357C38.093 5 38.2502 5.07782 38.4075 5.15564L60.1854 21.4981C60.3426 21.6537 60.4213 21.8093 60.4999 22.0428C60.5785 22.2763 60.4999 22.4319 60.3426 22.5875L57.5909 26.1673C57.4337 26.323 57.1978 26.4008 56.9619 26.4008ZM37.7785 10.5253C37.9357 10.5253 38.093 10.6031 38.2502 10.6809L56.8047 24.6109L58.613 22.2763L37.7785 6.63424L17.0226 22.1984L18.8309 24.5331L37.3068 10.6809C37.464 10.5253 37.6213 10.5253 37.7785 10.5253Z" fill="#CB5F10"/>
<path d="M11.2834 5.7782H4.28613V64.2218H11.2834V5.7782Z" fill="white"/>
<path d="M11.2834 65H4.28621C3.81448 65 3.5 64.6887 3.5 64.2218V5.77821C3.5 5.31128 3.81448 5 4.28621 5H11.2834C11.7552 5 12.0697 5.31128 12.0697 5.77821V64.2218C12.0697 64.6887 11.7552 65 11.2834 65ZM5.07241 63.4436H10.4972V6.55642H5.07241V63.4436Z" fill="#CB5F10"/>
<path d="M59.7153 64.2457V57.3196L4.28774 57.3196V64.2457L59.7153 64.2457Z" fill="white"/>
<path d="M59.7138 65.0001H4.28621C3.81448 65.0001 3.5 64.6888 3.5 64.2219V57.2958C3.5 56.8289 3.81448 56.5176 4.28621 56.5176H59.7138C60.1855 56.5176 60.5 56.8289 60.5 57.2958V64.2219C60.5 64.6888 60.1069 65.0001 59.7138 65.0001ZM5.07241 63.4437H58.9276V58.074H5.07241V63.4437Z" fill="#CB5F10"/>
<path d="M14.9786 61.5759C14.5069 61.5759 14.1924 61.2647 14.1924 60.7977V57.2958C14.1924 56.8289 14.5069 56.5176 14.9786 56.5176C15.4503 56.5176 15.7648 56.8289 15.7648 57.2958V60.7977C15.7648 61.1868 15.3717 61.5759 14.9786 61.5759Z" fill="#CB5F10"/>
<path d="M39.7442 61.5759C39.2725 61.5759 38.958 61.2647 38.958 60.7977V57.2958C38.958 56.8289 39.2725 56.5176 39.7442 56.5176C40.2159 56.5176 40.5304 56.8289 40.5304 57.2958V60.7977C40.5304 61.1868 40.2159 61.5759 39.7442 61.5759Z" fill="#CB5F10"/>
<path d="M27.3219 61.5759C26.8501 61.5759 26.5356 61.2647 26.5356 60.7977V57.2958C26.5356 56.8289 26.8501 56.5176 27.3219 56.5176C27.7936 56.5176 28.1081 56.8289 28.1081 57.2958V60.7977C28.1081 61.1868 27.7936 61.5759 27.3219 61.5759Z" fill="#CB5F10"/>
<path d="M52.1661 61.5759C51.6944 61.5759 51.3799 61.2647 51.3799 60.7977V57.2958C51.3799 56.8289 51.6944 56.5176 52.1661 56.5176C52.6378 56.5176 52.9523 56.8289 52.9523 57.2958V60.7977C52.9523 61.1868 52.5592 61.5759 52.1661 61.5759Z" fill="#CB5F10"/>
<path d="M8.13858 13.4047H4.67927C4.20755 13.4047 3.89307 13.0934 3.89307 12.6265C3.89307 12.1596 4.20755 11.8483 4.67927 11.8483H8.2172C8.68893 11.8483 9.00341 12.1596 9.00341 12.6265C9.00341 13.0934 8.61031 13.4047 8.13858 13.4047Z" fill="#CB5F10"/>
<path d="M8.13858 37.9184H4.67927C4.20755 37.9184 3.89307 37.6071 3.89307 37.1401C3.89307 36.6732 4.20755 36.3619 4.67927 36.3619H8.2172C8.68893 36.3619 9.00341 36.6732 9.00341 37.1401C9.00341 37.6071 8.61031 37.9184 8.13858 37.9184Z" fill="#CB5F10"/>
<path d="M8.13858 25.6226H4.67927C4.20755 25.6226 3.89307 25.3113 3.89307 24.8444C3.89307 24.3774 4.20755 24.0662 4.67927 24.0662H8.2172C8.68893 24.0662 9.00341 24.3774 9.00341 24.8444C9.00341 25.3113 8.61031 25.6226 8.13858 25.6226Z" fill="#CB5F10"/>
<path d="M8.13858 50.1363H4.67927C4.20755 50.1363 3.89307 49.825 3.89307 49.358C3.89307 48.8911 4.20755 48.5798 4.67927 48.5798H8.2172C8.68893 48.5798 9.00341 48.8911 9.00341 49.358C9.00341 49.825 8.61031 50.1363 8.13858 50.1363Z" fill="#CB5F10"/>
</g>
<defs>
<clipPath id="clip0_2_281">
<rect width="57" height="60" fill="white" transform="translate(3.5 5)"/>
</clipPath>
</defs>
</svg>
