<svg width="15" height="16" viewBox="0 0 15 16" fill="none" xmlns="http://www.w3.org/2000/svg">
<path d="M14.505 4.16672C14.4439 3.75838 14.2386 3.38543 13.9261 3.11549C13.6137 2.84555 13.2149 2.69649 12.802 2.69531H2.19796C1.78508 2.69649 1.38628 2.84555 1.07386 3.11549C0.761439 3.38543 0.556074 3.75838 0.494995 4.16672L7.5 8.69953L14.505 4.16672Z" fill="#CB5F10"/>
<path d="M7.75453 9.65151C7.6787 9.70055 7.59031 9.72664 7.5 9.72664C7.40969 9.72664 7.3213 9.70055 7.24547 9.65151L0.46875 5.26683V12.216C0.469246 12.6745 0.651591 13.1141 0.975775 13.4382C1.29996 13.7624 1.7395 13.9448 2.19797 13.9453H12.802C13.2605 13.9448 13.7 13.7624 14.0242 13.4382C14.3484 13.1141 14.5308 12.6745 14.5312 12.216V5.26636L7.75453 9.65151Z" fill="#CB5F10"/>
</svg>
