<svg width="17" height="12" viewBox="0 0 17 12" fill="none" xmlns="http://www.w3.org/2000/svg">
<g clip-path="url(#clip0_2_1226)">
<path d="M16.2498 10.5905C16.1598 10.8082 16.1011 11.0489 15.968 11.2398C15.7097 11.6218 15.3144 11.7898 14.8486 11.8089C14.8173 11.8089 14.786 11.8089 14.7547 11.8089C10.4181 11.8089 6.08149 11.8089 1.74489 11.8089C1.25174 11.8089 0.840784 11.6447 0.535501 11.2551C0.335892 11.003 0.249786 10.7127 0.249786 10.3995C0.249786 7.67247 0.245872 4.94156 0.249786 2.21448C0.2537 1.3933 0.872095 0.816564 1.72924 0.812744C3.52572 0.812744 5.32219 0.812744 7.11867 0.812744C9.66661 0.812744 12.2106 0.812744 14.7586 0.812744C15.3692 0.812744 15.8349 1.06101 16.1089 1.60337C16.1754 1.73705 16.2067 1.88983 16.2537 2.03497C16.2498 4.88809 16.2498 7.7374 16.2498 10.5905ZM1.87405 1.73323C1.90145 1.76761 1.91319 1.7867 1.92885 1.79816C3.70184 3.52073 5.46701 5.25094 7.24783 6.96587C7.84665 7.5426 8.68423 7.52733 9.28697 6.94295C11.0443 5.23948 12.7938 3.53219 14.5472 1.8249C14.5746 1.79816 14.5942 1.76761 14.6255 1.72941C10.3672 1.73323 6.13237 1.73323 1.87405 1.73323ZM1.95624 10.8846C6.13628 10.8846 10.3711 10.8846 14.5394 10.8846C13.2517 9.59747 11.9328 8.28358 10.5942 6.95059C10.3633 7.17976 10.1519 7.39747 9.93276 7.60753C9.27131 8.23774 8.48853 8.44399 7.59225 8.21101C7.18129 8.10406 6.83687 7.87872 6.53941 7.58462C6.33198 7.37837 6.12454 7.17212 5.90145 6.94677C4.56681 8.27976 3.24783 9.59747 1.95624 10.8846ZM1.19303 10.2582C2.54333 8.91379 3.86622 7.59608 5.13824 6.32802C3.84665 5.04469 2.52376 3.7308 1.19303 2.40927C1.19303 5.01413 1.19303 7.61135 1.19303 10.2582ZM15.3065 2.42073C15.2948 2.41309 15.283 2.40545 15.2713 2.39781C13.9484 3.7117 12.6216 5.02941 11.2948 6.34712C12.6138 7.62663 13.9484 8.92524 15.3065 10.2468C15.3065 7.60754 15.3065 5.01413 15.3065 2.42073Z" fill="#A05E2A"/>
</g>
<defs>
<clipPath id="clip0_2_1226">
<rect width="16" height="11" fill="white" transform="translate(0.25 0.812744)"/>
</clipPath>
</defs>
</svg>
