<svg width="15" height="16" viewBox="0 0 15 16" fill="none" xmlns="http://www.w3.org/2000/svg">
<g clip-path="url(#clip0_2_1729)">
<path d="M14.0789 11.4141C14.0405 11.3836 11.25 9.37219 10.4841 9.51656C10.1184 9.58125 9.90938 9.83063 9.48984 10.3298C9.42234 10.4105 9.26016 10.6036 9.13406 10.7409C8.86894 10.6545 8.61031 10.5492 8.36016 10.4259C7.06899 9.79735 6.02578 8.75413 5.39719 7.46297C5.27384 7.21285 5.16857 6.95422 5.08219 6.68906C5.22 6.5625 5.41313 6.40031 5.49563 6.33094C5.9925 5.91375 6.24234 5.70469 6.30703 5.33812C6.43969 4.57875 4.42969 1.76906 4.40859 1.74375C4.3174 1.61347 4.19838 1.50509 4.06016 1.42645C3.92194 1.34782 3.76796 1.30089 3.60938 1.28906C2.79469 1.28906 0.46875 4.30641 0.46875 4.81453C0.46875 4.84406 0.511406 7.84594 4.21312 11.6114C7.97484 15.3089 10.9762 15.3516 11.0058 15.3516C11.5144 15.3516 14.5312 13.0256 14.5312 12.2109C14.5196 12.0529 14.4729 11.8994 14.3947 11.7616C14.3165 11.6238 14.2086 11.5051 14.0789 11.4141Z" fill="#CB5F10"/>
</g>
<defs>
<clipPath id="clip0_2_1729">
<rect width="15" height="15" fill="white" transform="translate(0 0.820312)"/>
</clipPath>
</defs>
</svg>
