<svg width="18" height="18" viewBox="0 0 18 18" fill="none" xmlns="http://www.w3.org/2000/svg">
<g clip-path="url(#clip0_2_1230)">
<path d="M1.25 5.93807C1.31263 5.63327 1.34603 5.32012 1.44624 5.02785C2.05165 3.2241 3.29588 2.15939 5.17475 1.85041C5.35429 1.82118 5.538 1.81701 5.71754 1.81283C6.00563 1.80866 6.18934 1.95062 6.25197 2.23454C6.48161 3.2909 6.70707 4.34727 6.93671 5.4078C6.96594 5.54559 6.99517 5.68338 7.02439 5.82116C7.07032 6.03828 7.01604 6.21782 6.85738 6.37648C6.44821 6.77732 6.04738 7.1865 5.64238 7.59151C5.61733 7.61656 5.59228 7.64579 5.5714 7.66666C6.3647 9.70423 9.34584 12.6854 11.4042 13.4996C11.8218 13.0821 12.2435 12.6687 12.6568 12.2387C12.8447 12.0466 13.0451 11.9923 13.304 12.0508C14.448 12.3013 15.592 12.5435 16.7361 12.7856C17.1285 12.8691 17.258 13.032 17.2496 13.437C17.2037 15.5581 15.5879 17.4161 13.4919 17.7501C13.3708 17.771 13.2497 17.7919 13.1286 17.8127C12.8781 17.8127 12.6276 17.8127 12.3771 17.8127C12.3479 17.8044 12.3186 17.7919 12.2894 17.7835C11.922 17.6958 11.5379 17.6457 11.1871 17.5163C8.43563 16.5017 6.12254 14.865 4.25202 12.6019C3.04119 11.1364 2.1101 9.50799 1.48799 7.71259C1.37108 7.37439 1.32515 7.01113 1.25 6.65623C1.25 6.41406 1.25 6.17607 1.25 5.93807ZM5.36264 2.83579C5.26243 2.85249 5.17475 2.86084 5.08707 2.87755C3.25413 3.19905 1.9598 5.06542 2.30217 6.89422C2.42325 7.54975 2.69882 8.15518 2.98274 8.74808C4.7781 12.4975 7.62563 15.1029 11.5086 16.5768C13.4251 17.3034 15.5336 16.2512 16.1098 14.2888C16.1641 14.0967 16.1933 13.9004 16.235 13.7C15.2622 13.4913 14.3186 13.295 13.3792 13.0863C13.2789 13.0654 13.2163 13.0863 13.1495 13.1572C12.7362 13.5748 12.3186 13.9923 11.9011 14.4057C11.6756 14.6311 11.4878 14.6645 11.2122 14.5267C8.23105 13.0737 6.00563 10.8566 4.54846 7.87125C4.39815 7.56228 4.42738 7.38691 4.66954 7.14474C5.08707 6.72721 5.5046 6.31385 5.91377 5.89632C5.95135 5.85874 5.98893 5.78776 5.98058 5.74183C5.78434 4.77733 5.57558 3.817 5.36264 2.83579Z" fill="#A05E2A"/>
</g>
<defs>
<clipPath id="clip0_2_1230">
<rect width="17" height="17" fill="white" transform="translate(0.25 0.812744)"/>
</clipPath>
</defs>
</svg>
