<svg width="40" height="41" viewBox="0 0 40 41" fill="none" xmlns="http://www.w3.org/2000/svg">
<g clip-path="url(#clip0_2_1566)">
<path d="M20 0.813477C14.1845 0.813477 9.45312 5.5448 9.45312 11.3604C9.45312 17.1759 14.1845 21.9072 20 21.9072C25.8155 21.9072 30.5469 17.1759 30.5469 11.3604C30.5469 5.5448 25.8155 0.813477 20 0.813477ZM20 19.5635C15.4768 19.5635 11.7969 15.8836 11.7969 11.3604C11.7969 6.83715 15.4768 3.15723 20 3.15723C24.5232 3.15723 28.2031 6.83715 28.2031 11.3604C28.2031 15.8836 24.5232 19.5635 20 19.5635Z" fill="#E1E1E1"/>
<path d="M33.1223 28.7975C30.2348 25.8656 26.407 24.251 22.3438 24.251H17.6562C13.5931 24.251 9.76516 25.8656 6.87766 28.7975C4.0043 31.715 2.42188 35.5661 2.42188 39.6416C2.42188 40.2888 2.94656 40.8135 3.59375 40.8135H36.4062C37.0534 40.8135 37.5781 40.2888 37.5781 39.6416C37.5781 35.5661 35.9957 31.715 33.1223 28.7975ZM4.81719 38.4697C5.4043 31.8224 10.9384 26.5947 17.6562 26.5947H22.3438C29.0616 26.5947 34.5957 31.8224 35.1828 38.4697H4.81719Z" fill="#E1E1E1"/>
</g>
<defs>
<clipPath id="clip0_2_1566">
<rect width="40" height="40" fill="white" transform="translate(0 0.813477)"/>
</clipPath>
</defs>
</svg>
